<?xml version="1.0" encoding="utf-8"?>
<!-- Generator: Adobe Illustrator 25.4.1, SVG Export Plug-In . SVG Version: 6.00 Build 0)  -->
<svg width="220" version="1.1" xmlns="http://www.w3.org/2000/svg" xmlns:xlink="http://www.w3.org/1999/xlink" x="0px" y="0px"
	 viewBox="0 0 1000 408" style="enable-background:new 0 0 1000 408;" xml:space="preserve">
<style type="text/css">
	.st0{fill:#003869;}
	.st1{fill:#BAD8E9;}
</style>
<g id="DE">
	<path class="st0" d="M0,395.349v-43.161h14.111c4.684,0,8.206,0.97,10.568,2.905c2.361,1.938,3.542,4.802,3.542,8.596
		c0,2.017-0.573,3.8-1.719,5.352c-1.148,1.552-2.709,2.752-4.684,3.602c2.331,0.651,4.175,1.892,5.528,3.72
		c1.354,1.828,2.03,4.006,2.03,6.535c0,3.873-1.255,6.918-3.764,9.13c-2.51,2.214-6.058,3.321-10.643,3.321L0,395.349z
		 M5.691,370.599h8.598c2.49,0,4.481-0.624,5.973-1.872c1.491-1.247,2.237-2.941,2.237-5.08c0-2.376-0.692-4.105-2.075-5.183
		c-1.383-1.08-3.488-1.621-6.314-1.621h-8.42V370.599z M5.691,375.164v15.533h9.397c2.649,0,4.738-0.687,6.27-2.061
		c1.532-1.372,2.298-3.265,2.298-5.677c0-5.197-2.827-7.795-8.479-7.795H5.691z M57.434,392.178
		c-2.134,2.51-5.268,3.766-9.397,3.766c-3.419,0-6.023-0.993-7.811-2.979c-1.789-1.987-2.693-4.926-2.713-8.82v-20.869h5.485v20.721
		c0,4.862,1.977,7.293,5.928,7.293c4.19,0,6.977-1.561,8.361-4.684v-23.33h5.485v32.074h-5.218L57.434,392.178z M78.102,363.276
		l0.178,4.031c2.45-3.083,5.652-4.624,9.605-4.624c6.777,0,10.198,3.823,10.256,11.472v21.196h-5.483v-21.225
		c-0.02-2.312-0.548-4.022-1.586-5.129c-1.038-1.107-2.653-1.66-4.846-1.66c-1.78,0-3.341,0.475-4.684,1.422
		c-1.344,0.949-2.392,2.194-3.143,3.736v22.855h-5.485v-32.074H78.102z M106.893,379.046c0-4.921,1.166-8.879,3.497-11.873
		c2.333-2.993,5.385-4.49,9.16-4.49c3.755,0,6.731,1.285,8.924,3.853v-16.719h5.483v45.534h-5.04l-0.265-3.439
		c-2.195,2.688-5.247,4.033-9.161,4.033c-3.716,0-6.743-1.522-9.085-4.565c-2.342-3.043-3.513-7.016-3.513-11.917V379.046z
		 M112.376,379.669c0,3.636,0.751,6.482,2.254,8.537c1.5,2.056,3.575,3.083,6.225,3.083c3.478,0,6.017-1.561,7.619-4.684v-14.734
		c-1.641-3.024-4.161-4.535-7.56-4.535c-2.688,0-4.784,1.037-6.284,3.113C113.127,372.525,112.376,375.598,112.376,379.669z
		 M157.432,395.944c-4.348,0-7.886-1.429-10.613-4.284s-4.09-6.674-4.09-11.458v-1.007c0-3.182,0.607-6.023,1.824-8.523
		c1.215-2.5,2.915-4.456,5.097-5.869c2.184-1.413,4.551-2.12,7.101-2.12c4.17,0,7.411,1.374,9.723,4.12
		c2.312,2.748,3.468,6.681,3.468,11.798v2.283h-21.73c0.08,3.163,1.004,5.717,2.773,7.663c1.769,1.947,4.017,2.921,6.743,2.921
		c1.938,0,3.577-0.395,4.921-1.187c1.344-0.79,2.52-1.838,3.528-3.143l3.349,2.609C166.838,393.878,162.807,395.944,157.432,395.944
		z M156.749,367.189c-2.214,0-4.072,0.806-5.574,2.415c-1.502,1.611-2.431,3.869-2.787,6.774h16.068v-0.415
		c-0.159-2.787-0.91-4.944-2.253-6.476C160.86,367.955,159.041,367.189,156.749,367.189z M197.255,386.843
		c0-1.483-0.559-2.634-1.675-3.453c-1.116-0.821-3.063-1.527-5.839-2.12c-2.777-0.593-4.98-1.304-6.61-2.134
		c-1.632-0.831-2.837-1.819-3.617-2.965s-1.171-2.509-1.171-4.09c0-2.628,1.112-4.851,3.335-6.67
		c2.223-1.819,5.065-2.728,8.523-2.728c3.636,0,6.585,0.938,8.849,2.816c2.262,1.877,3.394,4.278,3.394,7.204h-5.514
		c0-1.502-0.637-2.796-1.911-3.884c-1.276-1.087-2.881-1.63-4.818-1.63c-1.995,0-3.557,0.436-4.684,1.304
		c-1.126,0.871-1.689,2.006-1.689,3.41c0,1.324,0.523,2.323,1.571,2.994c1.048,0.671,2.94,1.315,5.677,1.927
		c2.737,0.612,4.955,1.344,6.656,2.194c1.7,0.849,2.96,1.872,3.78,3.068s1.23,2.654,1.23,4.373c0,2.865-1.146,5.163-3.439,6.891
		c-2.292,1.73-5.266,2.595-8.923,2.595c-2.568,0-4.841-0.456-6.818-1.365c-1.977-0.909-3.522-2.178-4.638-3.809
		c-1.118-1.63-1.675-3.394-1.675-5.291h5.483c0.1,1.838,0.835,3.296,2.209,4.373c1.374,1.077,3.187,1.616,5.439,1.616
		c2.075,0,3.741-0.42,4.996-1.26C196.628,389.368,197.255,388.247,197.255,386.843z M211.728,354.767
		c0-0.888,0.272-1.639,0.815-2.253c0.543-0.612,1.349-0.918,2.417-0.918c1.066,0,1.877,0.306,2.431,0.918
		c0.553,0.614,0.829,1.365,0.829,2.253c0,0.89-0.276,1.632-0.829,2.223c-0.554,0.593-1.365,0.89-2.431,0.89
		c-1.068,0-1.874-0.297-2.417-0.89C212,356.399,211.728,355.657,211.728,354.767z M217.656,395.351h-5.485v-32.074h2.742h2.742
		V395.351z M233.435,363.276l0.178,4.031c2.45-3.083,5.652-4.624,9.605-4.624c6.777,0,10.198,3.823,10.256,11.472v21.196h-5.483
		v-21.225c-0.02-2.312-0.548-4.022-1.586-5.129c-1.038-1.107-2.653-1.66-4.846-1.66c-1.78,0-3.341,0.475-4.684,1.422
		c-1.344,0.949-2.392,2.194-3.143,3.736v22.855h-5.485v-32.074H233.435z M282.235,386.843c0-1.483-0.559-2.634-1.675-3.453
		c-1.116-0.821-3.063-1.527-5.839-2.12c-2.777-0.593-4.98-1.304-6.61-2.134c-1.632-0.831-2.837-1.819-3.617-2.965
		c-0.781-1.146-1.171-2.509-1.171-4.09c0-2.628,1.112-4.851,3.335-6.67c2.223-1.819,5.065-2.728,8.523-2.728
		c3.636,0,6.585,0.938,8.849,2.816c2.262,1.877,3.394,4.278,3.394,7.204h-5.514c0-1.502-0.637-2.796-1.911-3.884
		c-1.276-1.087-2.881-1.63-4.818-1.63c-1.995,0-3.557,0.436-4.684,1.304c-1.126,0.871-1.689,2.006-1.689,3.41
		c0,1.324,0.523,2.323,1.571,2.994c1.048,0.671,2.94,1.315,5.677,1.927c2.737,0.612,4.955,1.344,6.656,2.194
		c1.7,0.849,2.96,1.872,3.78,3.068c0.82,1.196,1.23,2.654,1.23,4.373c0,2.865-1.146,5.163-3.439,6.891
		c-2.292,1.73-5.266,2.595-8.923,2.595c-2.568,0-4.841-0.456-6.818-1.365c-1.977-0.909-3.522-2.178-4.638-3.809
		c-1.118-1.63-1.675-3.394-1.675-5.291h5.483c0.1,1.838,0.835,3.296,2.209,4.373c1.374,1.077,3.186,1.616,5.439,1.616
		c2.075,0,3.741-0.42,4.996-1.26C281.607,389.368,282.235,388.247,282.235,386.843z M304.439,355.509v7.767h5.989v4.239h-5.989
		v19.915c0,1.286,0.267,2.251,0.801,2.895c0.532,0.643,1.443,0.965,2.728,0.965c0.632,0,1.5-0.119,2.607-0.356v4.42
		c-1.443,0.393-2.845,0.59-4.209,0.59c-2.45,0-4.298-0.742-5.542-2.223c-1.246-1.483-1.869-3.588-1.869-6.315v-19.89h-5.839v-4.239
		h5.839v-7.767H304.439z M319.313,354.767c0-0.888,0.272-1.639,0.815-2.253c0.543-0.612,1.349-0.918,2.417-0.918
		c1.066,0,1.877,0.306,2.431,0.918c0.553,0.614,0.829,1.365,0.829,2.253c0,0.89-0.276,1.632-0.829,2.223
		c-0.554,0.593-1.365,0.89-2.431,0.89c-1.068,0-1.874-0.297-2.417-0.89C319.585,356.399,319.313,355.657,319.313,354.767z
		 M325.242,395.351h-5.485v-32.074h2.742h2.742V395.351z M344.072,355.509v7.767h5.989v4.239h-5.989v19.915
		c0,1.286,0.267,2.251,0.801,2.895c0.532,0.643,1.443,0.965,2.728,0.965c0.632,0,1.5-0.119,2.607-0.356v4.42
		c-1.443,0.393-2.845,0.59-4.209,0.59c-2.45,0-4.298-0.742-5.542-2.223c-1.246-1.483-1.869-3.588-1.869-6.315v-19.89h-5.839v-4.239
		h5.839v-7.767H344.072z M378.401,392.178c-2.134,2.51-5.268,3.766-9.397,3.766c-3.419,0-6.023-0.993-7.811-2.979
		c-1.789-1.987-2.693-4.926-2.713-8.82v-20.869h5.485v20.721c0,4.862,1.977,7.293,5.928,7.293c4.19,0,6.977-1.561,8.361-4.684
		v-23.33h5.485v32.074h-5.218L378.401,392.178z M401.962,355.509v7.767h5.989v4.239h-5.989v19.915c0,1.286,0.267,2.251,0.801,2.895
		c0.532,0.643,1.443,0.965,2.728,0.965c0.632,0,1.5-0.119,2.607-0.356v4.42c-1.443,0.393-2.845,0.59-4.209,0.59
		c-2.45,0-4.298-0.742-5.542-2.223c-1.246-1.483-1.869-3.588-1.869-6.315v-19.89h-5.839v-4.239h5.839v-7.767H401.962z
		 M437.046,395.351v-27.836h-5.069v-4.239h5.069v-3.291c0-3.438,0.92-6.097,2.757-7.975c1.838-1.877,4.436-2.815,7.797-2.815
		c1.265,0,2.52,0.167,3.764,0.5l-0.297,4.421c-0.929-0.178-1.917-0.267-2.965-0.267c-1.778,0-3.152,0.52-4.12,1.561
		c-0.968,1.04-1.452,2.532-1.452,4.475v3.391h6.848v4.239h-6.848v27.836H437.046z M477.362,392.178
		c-2.134,2.51-5.268,3.766-9.397,3.766c-3.419,0-6.023-0.993-7.811-2.979c-1.789-1.987-2.693-4.926-2.713-8.82v-20.869h5.485v20.721
		c0,4.862,1.977,7.293,5.928,7.293c4.19,0,6.977-1.561,8.361-4.684v-23.33h5.485v32.074h-5.218L477.362,392.178z M460.672,354.694
		c0-0.893,0.272-1.642,0.815-2.248c0.543-0.606,1.349-0.909,2.417-0.909c1.066,0,1.877,0.303,2.429,0.909
		c0.554,0.606,0.831,1.355,0.831,2.248s-0.276,1.638-0.831,2.234c-0.553,0.595-1.363,0.893-2.429,0.893
		c-1.068,0-1.874-0.298-2.417-0.893C460.944,356.332,460.672,355.587,460.672,354.694z M473.418,354.753
		c0-0.893,0.272-1.649,0.817-2.264c0.543-0.615,1.349-0.923,2.415-0.923c1.068,0,1.878,0.308,2.431,0.923
		c0.553,0.615,0.831,1.371,0.831,2.264s-0.278,1.638-0.831,2.234c-0.553,0.595-1.363,0.893-2.431,0.893
		c-1.066,0-1.872-0.298-2.415-0.893C473.69,356.391,473.418,355.646,473.418,354.753z M508.507,368.197
		c-0.831-0.139-1.73-0.208-2.698-0.208c-3.597,0-6.037,1.532-7.322,4.595v22.766h-5.485v-32.074h5.336l0.089,3.705
		c1.799-2.865,4.348-4.298,7.649-4.298c1.066,0,1.877,0.139,2.431,0.415V368.197z M546.231,377.89h-10.139v17.461h-5.72v-43.162
		h14.289c4.862,0,8.601,1.107,11.221,3.321c2.618,2.214,3.927,5.435,3.927,9.664c0,2.687-0.726,5.029-2.178,7.026
		c-1.454,1.997-3.474,3.488-6.062,4.476l10.139,18.32v0.356h-6.108L546.231,377.89z M536.093,373.236h8.746
		c2.826,0,5.074-0.732,6.743-2.197c1.671-1.464,2.506-3.425,2.506-5.881c0-2.671-0.796-4.721-2.387-6.147
		c-1.591-1.425-3.888-2.148-6.891-2.169h-8.716V373.236z M569.406,354.767c0-0.888,0.272-1.639,0.815-2.253
		c0.543-0.612,1.349-0.918,2.417-0.918c1.066,0,1.877,0.306,2.431,0.918c0.553,0.614,0.829,1.365,0.829,2.253
		c0,0.89-0.276,1.632-0.829,2.223c-0.554,0.593-1.365,0.89-2.431,0.89c-1.068,0-1.874-0.297-2.417-0.89
		C569.678,356.399,569.406,355.657,569.406,354.767z M575.337,395.351h-5.485v-32.074h2.742h2.742V395.351z M604.281,386.843
		c0-1.483-0.559-2.634-1.675-3.453c-1.116-0.821-3.063-1.527-5.839-2.12c-2.777-0.593-4.98-1.304-6.61-2.134
		c-1.631-0.831-2.837-1.819-3.617-2.965c-0.781-1.146-1.171-2.509-1.171-4.09c0-2.628,1.112-4.851,3.335-6.67
		c2.223-1.819,5.065-2.728,8.523-2.728c3.636,0,6.585,0.938,8.849,2.816c2.262,1.877,3.394,4.278,3.394,7.204h-5.514
		c0-1.502-0.637-2.796-1.911-3.884c-1.276-1.087-2.88-1.63-4.818-1.63c-1.995,0-3.557,0.436-4.684,1.304
		c-1.126,0.871-1.689,2.006-1.689,3.41c0,1.324,0.523,2.323,1.571,2.994c1.048,0.671,2.94,1.315,5.677,1.927
		c2.737,0.612,4.955,1.344,6.656,2.194c1.7,0.849,2.96,1.872,3.78,3.068s1.23,2.654,1.23,4.373c0,2.865-1.146,5.163-3.439,6.891
		c-2.292,1.73-5.266,2.595-8.923,2.595c-2.568,0-4.841-0.456-6.818-1.365c-1.977-0.909-3.522-2.178-4.638-3.809
		c-1.118-1.63-1.675-3.394-1.675-5.291h5.483c0.1,1.838,0.835,3.296,2.209,4.373c1.374,1.077,3.186,1.616,5.439,1.616
		c2.075,0,3.741-0.42,4.996-1.26C603.653,389.368,604.281,388.247,604.281,386.843z M619.233,354.767
		c0-0.888,0.272-1.639,0.815-2.253c0.543-0.612,1.349-0.918,2.417-0.918c1.066,0,1.877,0.306,2.431,0.918
		c0.553,0.614,0.829,1.365,0.829,2.253c0,0.89-0.276,1.632-0.829,2.223c-0.554,0.593-1.365,0.89-2.431,0.89
		c-1.068,0-1.874-0.297-2.417-0.89C619.505,356.399,619.233,355.657,619.233,354.767z M625.161,395.351h-5.485v-32.074h2.742h2.742
		V395.351z M645.664,380.498l-3.438,3.588v11.264h-5.485v-45.534h5.485v27.54l2.935-3.528l9.989-10.553h6.671l-12.481,13.399
		l13.933,18.676h-6.432L645.664,380.498z M666.885,379.017c0-3.143,0.617-5.969,1.853-8.478c1.235-2.51,2.954-4.448,5.157-5.811
		c2.205-1.363,4.718-2.045,7.546-2.045c4.367,0,7.9,1.511,10.598,4.535c2.696,3.024,4.045,7.046,4.045,12.065v0.386
		c0,3.122-0.598,5.923-1.792,8.404c-1.196,2.479-2.906,4.412-5.129,5.795s-4.777,2.075-7.663,2.075
		c-4.348,0-7.872-1.513-10.568-4.535c-2.698-3.024-4.047-7.026-4.047-12.006V379.017z M672.399,379.669
		c0,3.557,0.824,6.412,2.475,8.567c1.65,2.155,3.858,3.232,6.626,3.232c2.785,0,4.999-1.093,6.64-3.276
		c1.639-2.184,2.461-5.243,2.461-9.175c0-3.517-0.835-6.368-2.506-8.553c-1.669-2.183-3.888-3.276-6.654-3.276
		c-2.709,0-4.891,1.077-6.553,3.232C673.228,372.574,672.399,375.657,672.399,379.669z M731.771,379.669
		c0,4.901-1.127,8.838-3.38,11.812c-2.253,2.974-5.277,4.462-9.071,4.462c-4.051,0-7.183-1.433-9.397-4.298l-0.267,3.705h-5.04
		v-45.534h5.485v16.986c2.212-2.746,5.266-4.12,9.16-4.12c3.894,0,6.952,1.472,9.175,4.417c2.223,2.945,3.335,6.977,3.335,12.095
		V379.669z M726.287,379.046c0-3.734-0.721-6.62-2.164-8.656c-1.443-2.036-3.518-3.054-6.225-3.054c-3.617,0-6.217,1.68-7.797,5.04
		v13.873c1.68,3.36,4.298,5.04,7.856,5.04c2.628,0,4.673-1.018,6.136-3.054C725.556,386.2,726.287,383.137,726.287,379.046z
		 M753.964,395.944c-4.348,0-7.886-1.429-10.613-4.284c-2.727-2.856-4.09-6.674-4.09-11.458v-1.007c0-3.182,0.607-6.023,1.824-8.523
		c1.215-2.5,2.915-4.456,5.097-5.869c2.184-1.413,4.551-2.12,7.101-2.12c4.17,0,7.411,1.374,9.723,4.12
		c2.312,2.748,3.468,6.681,3.468,11.798v2.283h-21.729c0.08,3.163,1.004,5.717,2.773,7.663c1.769,1.947,4.017,2.921,6.743,2.921
		c1.938,0,3.577-0.395,4.921-1.187c1.344-0.79,2.52-1.838,3.528-3.143l3.349,2.609C763.371,393.878,759.339,395.944,753.964,395.944
		z M753.282,367.189c-2.214,0-4.072,0.806-5.574,2.415c-1.502,1.611-2.431,3.869-2.787,6.774h16.068v-0.415
		c-0.159-2.787-0.91-4.944-2.253-6.476C757.393,367.955,755.574,367.189,753.282,367.189z M803.51,387.791l6.167-24.515h5.483
		l-9.338,32.074h-4.446l-7.797-24.309l-7.588,24.309h-4.448l-9.308-32.074h5.455l6.314,24.01l7.471-24.01h4.417L803.51,387.791z
		 M835.219,395.944c-4.348,0-7.886-1.429-10.613-4.284c-2.728-2.856-4.091-6.674-4.091-11.458v-1.007
		c0-3.182,0.607-6.023,1.824-8.523c1.215-2.5,2.915-4.456,5.097-5.869c2.184-1.413,4.551-2.12,7.101-2.12
		c4.17,0,7.411,1.374,9.724,4.12c2.312,2.748,3.468,6.681,3.468,11.798v2.283h-21.729c0.08,3.163,1.004,5.717,2.773,7.663
		c1.769,1.947,4.017,2.921,6.743,2.921c1.938,0,3.577-0.395,4.921-1.187c1.344-0.79,2.52-1.838,3.528-3.143l3.349,2.609
		C844.626,393.878,840.594,395.944,835.219,395.944z M834.537,367.189c-2.214,0-4.072,0.806-5.574,2.415
		c-1.502,1.611-2.431,3.869-2.787,6.774h16.068v-0.415c-0.159-2.787-0.91-4.944-2.253-6.476
		C838.648,367.955,836.829,367.189,834.537,367.189z M872.352,368.197c-0.831-0.139-1.73-0.208-2.698-0.208
		c-3.597,0-6.037,1.532-7.322,4.595v22.766h-5.485v-32.074h5.336l0.089,3.705c1.799-2.865,4.348-4.298,7.649-4.298
		c1.066,0,1.877,0.139,2.431,0.415V368.197z M889.248,355.509v7.767h5.989v4.239h-5.989v19.915c0,1.286,0.267,2.251,0.801,2.895
		c0.532,0.643,1.443,0.965,2.728,0.965c0.632,0,1.5-0.119,2.607-0.356v4.42c-1.443,0.393-2.845,0.59-4.209,0.59
		c-2.45,0-4.298-0.742-5.542-2.223c-1.246-1.483-1.869-3.588-1.869-6.315v-19.89h-5.839v-4.239h5.839v-7.767H889.248z
		 M923.417,392.178c-2.134,2.51-5.268,3.766-9.397,3.766c-3.419,0-6.023-0.993-7.811-2.979c-1.789-1.987-2.693-4.926-2.714-8.82
		v-20.869h5.485v20.721c0,4.862,1.977,7.293,5.928,7.293c4.19,0,6.977-1.561,8.36-4.684v-23.33h5.485v32.074h-5.218L923.417,392.178
		z M944.085,363.276l0.178,4.031c2.45-3.083,5.652-4.624,9.605-4.624c6.777,0,10.198,3.823,10.256,11.472v21.196h-5.483v-21.225
		c-0.02-2.312-0.548-4.022-1.586-5.129s-2.653-1.66-4.846-1.66c-1.78,0-3.341,0.475-4.684,1.422
		c-1.344,0.949-2.392,2.194-3.143,3.736v22.855h-5.485v-32.074H944.085z M972.906,379.046c0-4.999,1.155-8.977,3.468-11.931
		c2.312-2.955,5.375-4.432,9.19-4.432c3.914,0,6.966,1.383,9.161,4.15l0.265-3.557h5.01v31.335c0,4.151-1.23,7.421-3.691,9.812
		S990.544,408,986.394,408c-2.312,0-4.576-0.484-6.788-1.472c-2.214-0.988-3.903-2.342-5.069-4.061l2.846-3.291
		c2.351,2.906,5.227,4.359,8.626,4.359c2.668,0,4.748-0.753,6.24-2.254c1.493-1.502,2.239-3.616,2.239-6.343v-2.789
		c-2.194,2.531-5.188,3.795-8.983,3.795c-3.755,0-6.793-1.513-9.115-4.535C974.066,388.384,972.906,384.264,972.906,379.046z
		 M978.419,379.669c0,3.616,0.742,6.457,2.223,8.523c1.483,2.064,3.558,3.098,6.226,3.098c3.458,0,5.998-1.572,7.619-4.713v-14.645
		c-1.68-3.063-4.2-4.595-7.56-4.595c-2.668,0-4.754,1.037-6.256,3.113C979.17,372.525,978.419,375.598,978.419,379.669z"/>
</g>
<g id="BfR">
	<path class="st0" d="M395.349,302.326V33.59h94.13c32.606,0,57.337,6.25,74.197,18.738c16.856,12.489,25.286,30.793,25.286,54.909
		c0,13.167-3.385,24.764-10.151,34.791c-6.768,10.03-16.181,17.381-28.239,22.055c13.779,3.446,24.64,10.399,32.577,20.856
		c7.935,10.46,11.904,23.257,11.904,38.391c0,25.839-8.246,45.404-24.733,58.693c-16.489,13.288-39.99,20.058-70.504,20.302H395.349
		z M450.719,146.181h40.976c27.93-0.491,41.897-11.628,41.897-33.408c0-12.181-3.539-20.948-10.613-26.3
		c-7.077-5.352-18.244-8.029-33.499-8.029h-38.76V146.181z M450.719,185.31v72.535h47.434c13.041,0,23.224-3.106,30.546-9.32
		c7.32-6.212,10.982-14.795,10.982-25.748c0-24.608-12.735-37.098-38.206-37.467H450.719z M651.163,302.326l-0.001-152.272h-29.715
		v-39.129h29.715v-16.98c0-22.394,6.428-39.774,19.287-52.141c12.856-12.367,30.852-18.548,53.986-18.548
		c7.383,0,16.426,1.23,27.133,3.691l-0.554,41.343c-4.43-1.106-9.847-1.66-16.242-1.66c-20.057,0-30.084,9.412-30.084,28.239v16.057
		h42.703v39.129h-42.703v152.272H651.163z M890.181,203.95h-44.112v98.376h-55.37V33.59h99.851c31.746,0,56.231,7.08,73.459,21.229
		c17.225,14.151,25.839,34.145,25.839,59.985c0,18.336-3.968,33.623-11.904,45.866c-7.937,12.244-19.965,21.994-36.084,29.253
		L1000,299.741v2.585h-59.432L890.181,203.95z M846.068,159.1h44.666c13.903,0,24.669-3.534,32.3-10.611
		c7.628-7.075,11.442-16.825,11.442-29.255c0-12.673-3.599-22.638-10.797-29.901c-7.198-7.259-18.244-10.888-33.131-10.888h-44.481
		V159.1z"/>
</g>
<g id="Bildmarke">
	<rect class="st0" width="255.814" height="255.814"/>
	<path class="st1" d="M46.511,302.326c0,0,7.185-91.155,88.096-176.154C216.564,40.076,302.326,33.59,302.326,33.59v268.736H46.511
		L46.511,302.326z"/>
	<path class="st0" d="M228.448,274.597l-0.179-0.355c-11.007-21.915-17.127-44.445-18.711-68.879
		c-1.023-15.782,0.243-31.478,3.761-46.65l0.75-3.646l0.353-0.087c13.762-3.385,28.897-2.763,46.27,1.906
		c4.411,1.187,8.845,2.669,13.182,4.408l0.722,0.289l-2.594,3.712l-1.213,0.227l-35.946-0.208c0.002,0.002-3.454,0.227-5.11,1.619
		c-1.239,1.039-2.618,2.464-3.454,5.166c-3.385,10.956-2.748,20.779-2.011,32.154c1.295,19.969,7.466,50.924,16.35,68.967
		l0.453,0.918l-6.675-0.069L228.448,274.597L228.448,274.597z M180.863,274.597l0.179-0.355
		c11.005-21.912,17.125-44.443,18.711-68.879c1.024-15.781-0.241-31.476-3.758-46.635l-0.752-3.661l-0.355-0.087
		c-13.763-3.385-28.897-2.763-46.269,1.906c-4.418,1.189-8.853,2.673-13.184,4.408l-0.721,0.288l2.592,3.712l1.315,0.236
		l35.808-0.218c0.035,0.002,3.488,0.227,5.146,1.619c1.239,1.039,2.618,2.466,3.452,5.166c3.387,10.954,2.75,20.779,2.013,32.154
		c-1.295,19.969-7.466,50.924-16.35,68.967l-0.453,0.918l6.622-0.072L180.863,274.597L180.863,274.597z M204.656,106.69
		c-8.115,0-14.693,7.094-14.693,15.845s6.578,15.845,14.693,15.845s14.693-7.094,14.693-15.845S212.771,106.69,204.656,106.69z"/>
</g>
</svg>
