<?xml version="1.0" encoding="UTF-8" standalone="no"?>
<svg
   xmlns:dc="http://purl.org/dc/elements/1.1/"
   xmlns:cc="http://creativecommons.org/ns#"
   xmlns:rdf="http://www.w3.org/1999/02/22-rdf-syntax-ns#"
   xmlns:svg="http://www.w3.org/2000/svg"
   xmlns="http://www.w3.org/2000/svg"
   xmlns:sodipodi="http://sodipodi.sourceforge.net/DTD/sodipodi-0.dtd"
   xmlns:inkscape="http://www.inkscape.org/namespaces/inkscape"
   height="680"
   width="680"
   inkscape:version="1.0 (4035a4f, 2020-05-01)"
   sodipodi:docname="chart-network.svg"
   id="svg4501"
   version="1.1"
   viewBox="0 0 680 680">
  <metadata
     id="metadata4505">
    <rdf:RDF>
      <cc:Work
         rdf:about="">
        <dc:format>image/svg+xml</dc:format>
        <dc:type
           rdf:resource="http://purl.org/dc/dcmitype/StillImage" />
        <dc:title></dc:title>
      </cc:Work>
    </rdf:RDF>
  </metadata>
  <sodipodi:namedview
     fit-margin-bottom="0"
     fit-margin-right="0"
     fit-margin-left="0"
     fit-margin-top="0"
     inkscape:current-layer="svg4501"
     inkscape:window-maximized="0"
     inkscape:window-y="23"
     inkscape:window-x="1280"
     inkscape:cy="340"
     inkscape:cx="340"
     inkscape:zoom="1.1113281"
     showgrid="false"
     id="namedview4503"
     inkscape:window-height="1155"
     inkscape:window-width="1920"
     inkscape:pageshadow="2"
     inkscape:pageopacity="0"
     guidetolerance="10"
     gridtolerance="10"
     objecttolerance="10"
     borderopacity="1"
     bordercolor="#666666"
     pagecolor="#ffffff" />
  <defs
     id="defs4495">
    <style
       id="style4493">.fa-secondary{opacity:.4}</style>
  </defs>
  <path
     style="opacity:1;fill:#3771c8;fill-opacity:1"
     id="path4497"
     class="fa-secondary"
     d="m 84,324 a 64,64 0 1 0 64,64 64.06,64.06 0 0 0 -64,-64 z m 88,80 h 48 v -32 h -48 z m 294.4,-106.8 19.2,25.6 48,-36 -19.2,-25.6 z M 596,148 a 64,64 0 1 0 64,64 64.06,64.06 0 0 0 -64,-64 z" />
  <path
     style="fill:#212529;fill-opacity:1"
     id="path4499"
     class="fa-primary"
     d="m 596,468 a 63.84,63.84 0 0 0 -38.3,13 l -96,-57.6 a 109.91,109.91 0 0 0 6.3,-35.5 111.94,111.94 0 0 0 -112,-112 108.64,108.64 0 0 0 -24.4,2.9 L 290.8,191.4 A 63.84,63.84 0 1 0 244,212 c 1.1,0 2.1,-0.3 3.2,-0.3 l 41,87.8 C 261.5,319.9 244,351.8 244,388 a 111.71,111.71 0 0 0 193.2,76.7 L 533,522.2 A 63.87,63.87 0 1 0 596,468 Z M 356,436 a 48,48 0 1 1 48,-48 48,48 0 0 1 -48,48 z" />
  <rect
     y="0"
     x="0"
     height="680"
     width="680"
     id="rect6251"
     style="opacity:0.429423;fill:none;fill-opacity:1;stroke-width:1.00251;stroke-linecap:round" />
</svg>
