<?xml version="1.0" encoding="UTF-8" standalone="no"?>
<svg
   xmlns:dc="http://purl.org/dc/elements/1.1/"
   xmlns:cc="http://creativecommons.org/ns#"
   xmlns:rdf="http://www.w3.org/1999/02/22-rdf-syntax-ns#"
   xmlns:svg="http://www.w3.org/2000/svg"
   xmlns="http://www.w3.org/2000/svg"
   xmlns:sodipodi="http://sodipodi.sourceforge.net/DTD/sodipodi-0.dtd"
   xmlns:inkscape="http://www.inkscape.org/namespaces/inkscape"
   height="600"
   width="600"
   inkscape:version="1.0 (4035a4f, 2020-05-01)"
   sodipodi:docname="microscope.svg"
   id="svg3351"
   version="1.1"
   viewBox="0 0 600 600">
  <metadata
     id="metadata3355">
    <rdf:RDF>
      <cc:Work
         rdf:about="">
        <dc:format>image/svg+xml</dc:format>
        <dc:type
           rdf:resource="http://purl.org/dc/dcmitype/StillImage" />
        <dc:title></dc:title>
      </cc:Work>
    </rdf:RDF>
  </metadata>
  <sodipodi:namedview
     fit-margin-bottom="0"
     fit-margin-right="0"
     fit-margin-left="0"
     fit-margin-top="0"
     inkscape:current-layer="svg3351"
     inkscape:window-maximized="0"
     inkscape:window-y="23"
     inkscape:window-x="1280"
     inkscape:cy="300"
     inkscape:cx="300"
     inkscape:zoom="1.1113281"
     showgrid="false"
     id="namedview3353"
     inkscape:window-height="1155"
     inkscape:window-width="1920"
     inkscape:pageshadow="2"
     inkscape:pageopacity="0"
     guidetolerance="10"
     gridtolerance="10"
     objecttolerance="10"
     borderopacity="1"
     bordercolor="#666666"
     pagecolor="#ffffff" />
  <defs
     id="defs3345">
    <style
       id="style3343">.fa-secondary{opacity:.4}</style>
  </defs>
  <path
     style="opacity:1;fill:#00aa00;fill-opacity:1"
     id="path3347"
     class="fa-secondary"
     d="m 148,428 h 208 a 8,8 0 0 1 8,8 v 16 a 8,8 0 0 1 -8,8 H 148 a 8,8 0 0 1 -8,-8 v -16 a 8,8 0 0 1 8,-8 z" />
  <path
     style="fill:#212529;fill-opacity:1"
     id="path3349"
     class="fa-primary"
     d="m 508,492 h -1.29 A 191,191 0 0 0 556,364 C 556,258.12 469.88,172 364,172 v 64 a 128,128 0 0 1 0,256 H 92 a 48,48 0 0 0 -48,48 16,16 0 0 0 16,16 h 480 a 16,16 0 0 0 16,-16 48,48 0 0 0 -48,-48 z M 204,364 h 12 v 16 a 16,16 0 0 0 16,16 h 40 a 16,16 0 0 0 16,-16 v -16 h 12 a 32,32 0 0 0 32,-32 V 108 A 32,32 0 0 0 300,76 V 60 A 16,16 0 0 0 284,44 h -64 a 16,16 0 0 0 -16,16 v 16 a 32,32 0 0 0 -32,32 v 224 a 32,32 0 0 0 32,32 z" />
</svg>
