<?xml version="1.0" encoding="UTF-8" standalone="no"?>
<svg
   xmlns:dc="http://purl.org/dc/elements/1.1/"
   xmlns:cc="http://creativecommons.org/ns#"
   xmlns:rdf="http://www.w3.org/1999/02/22-rdf-syntax-ns#"
   xmlns:svg="http://www.w3.org/2000/svg"
   xmlns="http://www.w3.org/2000/svg"
   xmlns:sodipodi="http://sodipodi.sourceforge.net/DTD/sodipodi-0.dtd"
   xmlns:inkscape="http://www.inkscape.org/namespaces/inkscape"
   height="680"
   width="680"
   viewBox="0 0 680 680"
   version="1.1"
   id="svg2776"
   sodipodi:docname="users.svg"
   inkscape:version="1.0 (4035a4f, 2020-05-01)">
  <metadata
     id="metadata2780">
    <rdf:RDF>
      <cc:Work
         rdf:about="">
        <dc:format>image/svg+xml</dc:format>
        <dc:type
           rdf:resource="http://purl.org/dc/dcmitype/StillImage" />
        <dc:title></dc:title>
      </cc:Work>
    </rdf:RDF>
  </metadata>
  <sodipodi:namedview
     fit-margin-bottom="0"
     fit-margin-right="0"
     fit-margin-left="0"
     fit-margin-top="0"
     inkscape:document-rotation="0"
     pagecolor="#ffffff"
     bordercolor="#666666"
     borderopacity="1"
     objecttolerance="10"
     gridtolerance="10"
     guidetolerance="10"
     inkscape:pageopacity="0"
     inkscape:pageshadow="2"
     inkscape:window-width="1920"
     inkscape:window-height="1155"
     id="namedview2778"
     showgrid="false"
     inkscape:zoom="1.1113281"
     inkscape:cx="268.42262"
     inkscape:cy="340"
     inkscape:window-x="1280"
     inkscape:window-y="23"
     inkscape:window-maximized="0"
     inkscape:current-layer="svg2776" />
  <defs
     id="defs2770">
    <style
       id="style2768">.fa-secondary{opacity:.4}</style>
  </defs>
  <path
     d="m 116,308 a 64,64 0 1 0 -64,-64 64.06,64.06 0 0 0 64,64 z m 480,32 H 532 A 63.81,63.81 0 0 0 486.9,358.6 146.27,146.27 0 0 1 562,468 h 66 a 32,32 0 0 0 32,-32 v -32 a 64.06,64.06 0 0 0 -64,-64 z m -512,0 a 64.06,64.06 0 0 0 -64,64 v 32 a 32,32 0 0 0 32,32 h 65.9 A 146.64,146.64 0 0 1 193.1,358.6 63.81,63.81 0 0 0 148,340 Z m 480,-32 a 64,64 0 1 0 -64,-64 64.06,64.06 0 0 0 64,64 z"
     class="fa-secondary"
     id="path2772"
     style="opacity:1;fill:#d40000;fill-opacity:1" />
  <path
     style="fill:#212529;fill-opacity:1"
     d="m 416.8,372 h -8.3 A 157.53,157.53 0 0 1 340,388 c -24.6,0 -47.6,-6 -68.5,-16 h -8.3 A 115.23,115.23 0 0 0 148,487.2 V 516 a 48,48 0 0 0 48,48 h 288 a 48,48 0 0 0 48,-48 V 487.2 A 115.23,115.23 0 0 0 416.8,372 Z M 340,340 A 112,112 0 1 0 228,228 111.94,111.94 0 0 0 340,340 Z"
     class="fa-primary"
     id="path2774" />
  <rect
     style="opacity:0.429423;fill:none;fill-opacity:1;stroke-width:1.00251;stroke-linecap:round"
     id="rect6251"
     width="680"
     height="680"
     x="0"
     y="0" />
</svg>
