<?xml version="1.0" encoding="UTF-8" standalone="no"?>
<svg
   xmlns:dc="http://purl.org/dc/elements/1.1/"
   xmlns:cc="http://creativecommons.org/ns#"
   xmlns:rdf="http://www.w3.org/1999/02/22-rdf-syntax-ns#"
   xmlns:svg="http://www.w3.org/2000/svg"
   xmlns="http://www.w3.org/2000/svg"
   width="76.201378mm"
   height="16.91497mm"
   viewBox="0 0 76.201378 16.91497"
   version="1.1"
   id="svg2872">
  <defs
     id="defs2866" />
  <metadata
     id="metadata2869">
    <rdf:RDF>
      <cc:Work
         rdf:about="">
        <dc:format>image/svg+xml</dc:format>
        <dc:type
           rdf:resource="http://purl.org/dc/dcmitype/StillImage" />
        <dc:title></dc:title>
      </cc:Work>
    </rdf:RDF>
  </metadata>
  <g
     id="layer1"
     transform="translate(-66.723229,-139.87455)">
    <path
       style="fill:#000000;fill-opacity:1;fill-rule:nonzero;stroke:none;stroke-width:0.352778"
       d="m 72.176126,147.64026 c 0,-0.50574 -0.402389,-0.90675 -0.909507,-0.90675 -0.505739,0 -0.890214,0.40101 -0.890214,0.90675 0,0.5085 0.384475,0.89297 0.890214,0.89297 0.507118,0 0.909507,-0.38447 0.909507,-0.89297"
       id="path2541" />
    <path
       style="fill:#000000;fill-opacity:1;fill-rule:nonzero;stroke:none;stroke-width:0.352778"
       d="m 69.275354,150.05458 c 0.507118,0 0.908128,-0.38585 0.908128,-0.89297 0,-0.50711 -0.40101,-0.90812 -0.908128,-0.90812 -0.507118,0 -0.891589,0.40101 -0.891589,0.90812 0,0.50712 0.384471,0.89297 0.891589,0.89297"
       id="path2543" />
    <path
       style="fill:#000000;fill-opacity:1;fill-rule:nonzero;stroke:none;stroke-width:0.352778"
       d="m 73.031887,153.18135 h -4.59576 v -2.18419 c 0,-0.52503 -0.350019,-0.83922 -0.855761,-0.83922 -0.507118,0 -0.857137,0.31419 -0.857137,0.83922 v 3.30178 c 0,0.33348 0.139181,0.49058 0.472666,0.49058 h 5.835992 c 0.525032,0 0.839223,-0.31557 0.839223,-0.80339 0,-0.49058 -0.314191,-0.80478 -0.839223,-0.80478"
       id="path2545" />
    <path
       style="fill:#000000;fill-opacity:1;fill-rule:nonzero;stroke:none;stroke-width:0.352778"
       d="m 73.399824,142.01373 h -5.837372 c -0.525032,0 -0.839223,0.31557 -0.839223,0.80615 0,0.48783 0.314191,0.80202 0.839223,0.80202 h 4.59576 v 2.18557 c 0,0.52365 0.350019,0.83923 0.857137,0.83923 0.505742,0 0.855761,-0.31558 0.855761,-0.83923 v -3.30316 c 0,-0.33348 -0.139181,-0.49058 -0.471286,-0.49058"
       id="path2547" />
    <path
       style="fill:#000000;fill-opacity:1;fill-rule:nonzero;stroke:none;stroke-width:0.352778"
       d="m 82.751191,152.15058 c 0,0.62976 -0.279742,1.03077 -0.926042,1.03077 h -3.739995 v -4.29948 h 3.496081 c 0.733118,0 1.169956,0.29766 1.169956,0.99632 z m -4.666037,-8.52868 h 3.564986 c 0.646299,0 0.926041,0.40101 0.926041,1.03077 v 1.66054 c 0,0.70004 -0.384475,0.99632 -0.994946,0.99632 h -3.496081 z m 5.09323,4.44142 c 0.693152,-0.24529 1.110696,-0.65319 1.110696,-1.71979 v -1.65503 c 0,-1.74735 -1.048685,-2.67477 -2.673393,-2.67477 h -4.772145 c -0.330729,0 -0.47129,0.15847 -0.47129,0.49058 v 11.79463 c 0,0.33348 0.140561,0.49058 0.47129,0.49058 h 4.947155 c 1.624707,0 2.673396,-0.92604 2.673396,-2.67477 v -2.2021 c 0,-1.13 -0.370692,-1.67432 -1.285709,-1.84933"
       id="path2549" />
    <path
       style="fill:#000000;fill-opacity:1;fill-rule:nonzero;stroke:none;stroke-width:0.352778"
       d="m 96.798912,141.87455 c -0.507118,0 -0.855761,0.31557 -0.855761,0.87367 v 9.40236 c 0,0.62976 -0.279742,1.03077 -0.927421,1.03077 h -0.994943 c -0.698666,0 -0.943956,-0.38447 -0.943956,-0.99632 v -8.0381 c 0,-0.55948 -0.332108,-0.87505 -0.839226,-0.87505 -0.507118,0 -0.837848,0.31557 -0.837848,0.87505 v 8.0381 c 0,0.61185 -0.246665,0.99632 -0.943955,0.99632 h -0.996323 c -0.647675,0 -0.927417,-0.40101 -0.927417,-1.03077 v -9.40236 c 0,-0.5581 -0.348643,-0.87367 -0.855761,-0.87367 -0.507118,0 -0.855762,0.31557 -0.855762,0.87367 v 9.36653 c 0,1.74873 1.048685,2.67477 2.673393,2.67477 h 0.888834 c 1.146528,0 1.550293,-0.091 1.853463,-0.78272 0.304546,0.69177 0.694531,0.78272 1.856218,0.78272 h 0.888834 c 1.626084,0 2.674772,-0.92604 2.674772,-2.67477 v -9.36653 c 0,-0.5581 -0.350023,-0.87367 -0.857141,-0.87367"
       id="path2551" />
    <path
       style="fill:#000000;fill-opacity:1;fill-rule:nonzero;stroke:none;stroke-width:0.352778"
       d="m 101.20312,144.03531 c 0.26596,-0.01 0.33624,-0.0386 0.33624,-0.1378 v -1.52549 c 0,-0.1006 -0.0703,-0.12954 -0.33624,-0.13918 v -0.1571 h 0.99908 v 0.1571 c -0.26734,0.01 -0.33624,0.0386 -0.33624,0.13918 v 1.62746 h 0.29765 c 0.41893,0 0.51677,-0.15158 0.63804,-0.58842 l 0.12953,0.007 -0.022,0.77446 h -1.70601 z m 0,0"
       id="path2553" />
    <path
       style="fill:#000000;fill-opacity:1;fill-rule:nonzero;stroke:none;stroke-width:0.352778"
       d="m 103.48378,143.30771 0.65732,-0.0124 c 0.003,-0.26734 -0.0868,-0.46715 -0.30868,-0.46715 -0.17363,0 -0.32246,0.11024 -0.34864,0.47955 m -0.32384,0.16123 c 0,-0.44097 0.28249,-0.77859 0.69453,-0.77859 0.46715,0 0.62563,0.37621 0.59945,0.7469 l -0.9729,-0.004 v 0.007 c 0,0.32522 0.15434,0.58292 0.46578,0.58292 0.17777,0 0.31695,-0.10336 0.44372,-0.26183 l 0.0896,0.0868 c -0.11713,0.19982 -0.30455,0.37069 -0.62563,0.37069 -0.44373,0 -0.69453,-0.32521 -0.69453,-0.74965"
       id="path2555" />
    <path
       style="fill:#000000;fill-opacity:1;fill-rule:nonzero;stroke:none;stroke-width:0.352778"
       d="m 104.88662,142.16807 c 0,-0.12127 0.0786,-0.20808 0.19568,-0.20808 0.11851,0 0.19706,0.0799 0.19706,0.20257 0,0.12264 -0.0785,0.20533 -0.19706,0.20533 -0.11713,0 -0.19568,-0.0772 -0.19568,-0.19982 m -0.17501,1.87 c 0.18466,-0.003 0.22875,-0.0358 0.22875,-0.11162 v -0.8916 c 0,-0.0965 -0.0441,-0.15434 -0.22875,-0.15847 v -0.15434 l 0.52641,-0.0124 v 1.21681 c 0,0.0758 0.0413,0.10886 0.22875,0.11162 v 0.15434 h -0.75516 z m 0,0"
       id="path2557" />
    <path
       style="fill:#000000;fill-opacity:1;fill-rule:nonzero;stroke:none;stroke-width:0.352778"
       d="m 106.82139,143.42346 c 0,-0.31144 -0.15572,-0.52779 -0.3831,-0.52779 -0.14056,0 -0.24115,0.0427 -0.35002,0.13505 v 0.80478 c 0.0772,0.15434 0.19706,0.22462 0.35829,0.22462 0.26458,0 0.37483,-0.23014 0.37483,-0.63666 m -1.03078,0.52504 v -1.67019 c 0,-0.0965 -0.0606,-0.15434 -0.24391,-0.15847 v -0.1571 l 0.54157,-0.0124 v 0.93567 c 0.11438,-0.10887 0.25356,-0.19568 0.45062,-0.19568 0.38723,0 0.60909,0.30179 0.60909,0.71796 0,0.42994 -0.26872,0.81028 -0.69178,0.81028 -0.17363,0 -0.31695,-0.0606 -0.45337,-0.16399 l -0.1006,0.18328 h -0.12126 z m 0,0"
       id="path2559" />
    <path
       style="fill:#000000;fill-opacity:1;fill-rule:nonzero;stroke:none;stroke-width:0.352778"
       d="m 107.36433,144.03807 c 0.18466,-0.003 0.23151,-0.0345 0.23151,-0.11162 v -0.8916 c 0,-0.0978 -0.0468,-0.15434 -0.23151,-0.15847 v -0.15434 l 0.52366,-0.0124 v 0.22186 c 0.16812,-0.11989 0.34864,-0.23151 0.5581,-0.23151 0.21911,0 0.37483,0.1571 0.37483,0.44649 v 0.77997 c 0,0.0772 0.0441,0.10886 0.23013,0.11162 v 0.15434 h -0.73174 v -0.15434 c 0.16123,-0.003 0.20257,-0.0345 0.20257,-0.11162 v -0.66284 c 0,-0.25769 -0.0923,-0.33211 -0.27285,-0.33211 -0.14193,0 -0.2632,0.0606 -0.35553,0.11576 v 0.87919 c 0,0.0772 0.0413,0.10886 0.19982,0.11162 v 0.15434 h -0.72899 z m 0,0"
       id="path2561" />
    <path
       style="fill:#000000;fill-opacity:1;fill-rule:nonzero;stroke:none;stroke-width:0.352778"
       d="m 109.40796,142.16807 c 0,-0.12127 0.0785,-0.20808 0.19569,-0.20808 0.1185,0 0.19705,0.0799 0.19705,0.20257 0,0.12264 -0.0786,0.20533 -0.19705,0.20533 -0.11714,0 -0.19569,-0.0772 -0.19569,-0.19982 m -0.17501,1.87 c 0.18466,-0.003 0.22876,-0.0358 0.22876,-0.11162 v -0.8916 c 0,-0.0965 -0.0441,-0.15434 -0.22876,-0.15847 v -0.15434 l 0.52641,-0.0124 v 1.21681 c 0,0.0758 0.0413,0.10886 0.22876,0.11162 v 0.15434 h -0.75517 z m 0,0"
       id="path2563" />
    <path
       style="fill:#000000;fill-opacity:1;fill-rule:nonzero;stroke:none;stroke-width:0.352778"
       d="m 110.17829,144.11524 0.86541,-1.24851 h -0.23703 c -0.2384,0 -0.3073,0.0331 -0.46302,0.3955 l -0.11713,-0.005 0.0317,-0.54019 h 1.17271 l 0.01,0.0758 -0.86266,1.24988 h 0.27561 c 0.20671,0 0.30455,-0.0386 0.46026,-0.41892 l 0.11714,0.007 -0.0317,0.56224 h -1.2113 z m 0,0"
       id="path2565" />
    <path
       style="fill:#000000;fill-opacity:1;fill-rule:nonzero;stroke:none;stroke-width:0.352778"
       d="m 112.8503,144.03531 c 0.26596,-0.01 0.33625,-0.0386 0.33625,-0.1378 v -1.52549 c 0,-0.1006 -0.0703,-0.12954 -0.33625,-0.13918 v -0.1571 h 0.99908 v 0.1571 c -0.26596,0.01 -0.33624,0.0386 -0.33624,0.13918 v 1.52549 c 0,0.0992 0.0703,0.12816 0.33624,0.1378 v 0.1571 h -0.99908 z m 0,0"
       id="path2569" />
    <path
       style="fill:#000000;fill-opacity:1;fill-rule:nonzero;stroke:none;stroke-width:0.352778"
       d="m 114.05884,144.03807 c 0.18466,-0.003 0.23151,-0.0345 0.23151,-0.11162 v -0.8916 c 0,-0.0978 -0.0469,-0.15434 -0.23151,-0.15847 v -0.15434 l 0.52366,-0.0124 v 0.22186 c 0.16812,-0.11989 0.34864,-0.23151 0.5581,-0.23151 0.21911,0 0.37345,0.1571 0.37345,0.44649 v 0.77997 c 0,0.0772 0.0455,0.10886 0.23289,0.11162 v 0.15434 h -0.73312 v -0.15434 c 0.16123,-0.003 0.20257,-0.0345 0.20257,-0.11162 v -0.66284 c 0,-0.25769 -0.091,-0.33211 -0.27285,-0.33211 -0.14194,0 -0.2632,0.0606 -0.35553,0.11576 v 0.87919 c 0,0.0772 0.0413,0.10886 0.20119,0.11162 v 0.15434 h -0.73036 z m 0,0"
       id="path2571" />
    <path
       style="fill:#000000;fill-opacity:1;fill-rule:nonzero;stroke:none;stroke-width:0.352778"
       d="m 115.8999,144.03807 c 0.18328,-0.003 0.23427,-0.0345 0.23427,-0.11162 v -1.03629 h -0.2701 v -0.11713 l 0.2701,-0.0579 v -0.0606 c 0,-0.27699 0.0854,-0.45338 0.19981,-0.56913 0.1006,-0.10335 0.22462,-0.15434 0.34865,-0.15434 0.2384,0 0.36104,0.12816 0.36104,0.29214 0,0.1006 -0.0634,0.17363 -0.15434,0.17363 -0.0827,0 -0.1819,-0.0537 -0.1819,-0.20257 0,-0.0262 0.004,-0.0551 0.01,-0.0868 -0.0289,-0.0124 -0.0537,-0.0193 -0.0786,-0.0193 -0.051,0 -0.0992,0.0193 -0.13366,0.0551 -0.0538,0.0537 -0.073,0.13781 -0.073,0.38861 v 0.19017 h 0.38723 v 0.16812 h -0.38723 v 1.03628 c 0,0.0772 0.0662,0.10198 0.31695,0.11162 v 0.15434 h -0.84887 z m 0,0"
       id="path2573" />
    <path
       style="fill:#000000;fill-opacity:1;fill-rule:nonzero;stroke:none;stroke-width:0.352778"
       d="m 118.10063,143.4524 c 0,-0.42168 -0.15572,-0.60496 -0.40928,-0.60496 -0.2508,0 -0.38034,0.18328 -0.38034,0.60496 0,0.42168 0.15572,0.60909 0.40928,0.60909 0.24805,0 0.38034,-0.18741 0.38034,-0.60909 m -1.11897,0.007 c 0,-0.44786 0.29077,-0.76894 0.72623,-0.76894 0.44648,0 0.72209,0.30868 0.72209,0.75654 0,0.44924 -0.29077,0.7717 -0.72209,0.7717 -0.45476,0 -0.72623,-0.30868 -0.72623,-0.7593"
       id="path2575" />
    <path
       style="fill:#000000;fill-opacity:1;fill-rule:nonzero;stroke:none;stroke-width:0.352778"
       d="m 118.64633,144.03807 c 0.18466,-0.003 0.23289,-0.0345 0.23289,-0.11162 v -0.8916 c 0,-0.0978 -0.0482,-0.15434 -0.23289,-0.15847 v -0.15434 l 0.52365,-0.0124 v 0.2508 c 0.11163,-0.14194 0.24116,-0.26045 0.40653,-0.26045 0.16123,0 0.24391,0.11162 0.24391,0.2508 0,0.10198 -0.0758,0.19293 -0.17501,0.19293 -0.0951,0 -0.18328,-0.051 -0.18328,-0.17363 0,-0.0165 0.003,-0.0358 0.007,-0.0551 -0.14332,-0.006 -0.226,0.0909 -0.29214,0.17088 v 0.8406 c 0,0.0772 0.0565,0.10886 0.26596,0.11162 v 0.15434 h -0.79651 z m 0,0"
       id="path2577" />
    <path
       style="fill:#000000;fill-opacity:1;fill-rule:nonzero;stroke:none;stroke-width:0.352778"
       d="m 120.91458,144.03807 c 0.15848,-0.003 0.18466,-0.0345 0.18466,-0.11162 v -0.66008 c 0,-0.25769 -0.0951,-0.33487 -0.27561,-0.33487 -0.14332,0 -0.23151,0.0606 -0.32384,0.11576 v 0.87919 c 0,0.0772 0.022,0.10886 0.18052,0.11162 v 0.15434 h -0.70968 v -0.15434 c 0.18328,-0.003 0.23151,-0.0345 0.23151,-0.11162 v -0.8916 c 0,-0.0978 -0.0482,-0.15434 -0.23151,-0.15847 v -0.15434 l 0.52227,-0.0124 v 0.22186 c 0.16812,-0.11989 0.32109,-0.23151 0.53055,-0.23151 0.16123,0 0.28801,0.0965 0.34451,0.26321 0.18465,-0.16123 0.36518,-0.26321 0.56499,-0.26321 0.21911,0 0.36243,0.1571 0.36243,0.44649 v 0.77997 c 0,0.0772 0.0469,0.10886 0.23151,0.11162 v 0.15434 h -0.71383 v -0.15434 c 0.15848,-0.003 0.18328,-0.0345 0.18328,-0.11162 v -0.66008 c 0,-0.25769 -0.0827,-0.33487 -0.2632,-0.33487 -0.10473,0 -0.20257,0.0482 -0.34176,0.14194 0.003,0.0413 0.006,0.0675 0.006,0.0923 v 0.76068 c 0,0.0772 0.0289,0.10886 0.21222,0.11162 v 0.15434 h -0.69453 z m 0,0"
       id="path2579" />
    <path
       style="fill:#000000;fill-opacity:1;fill-rule:nonzero;stroke:none;stroke-width:0.352778"
       d="m 123.57971,143.81345 v -0.36656 c -0.44373,0.10198 -0.52641,0.1695 -0.52641,0.35278 0,0.10748 0.0537,0.2067 0.21911,0.2067 0.12678,0 0.2384,-0.0937 0.3073,-0.19292 m -0.85852,0.0606 c 0,-0.12816 0.0593,-0.26045 0.19293,-0.33486 0.24115,-0.13505 0.61873,-0.18879 0.66559,-0.22738 v -0.0909 c 0,-0.2701 -0.073,-0.37069 -0.27837,-0.37069 -0.10197,0 -0.15847,0.0234 -0.20946,0.0648 0.0248,0.0551 0.0317,0.10611 0.0317,0.15158 0,0.0965 -0.0606,0.18053 -0.16813,0.18053 -0.11437,0 -0.18327,-0.0868 -0.18327,-0.18053 0,-0.22186 0.26871,-0.36656 0.57326,-0.36656 0.33073,0 0.5333,0.15021 0.5333,0.46027 v 0.68213 c 0,0.15709 0.0124,0.20533 0.22187,0.18052 l 0.0124,0.12127 c -0.11438,0.0427 -0.17777,0.062 -0.26321,0.062 -0.16812,0 -0.226,-0.062 -0.24115,-0.24805 h -0.0289 c -0.12678,0.1447 -0.27147,0.25356 -0.45888,0.25356 -0.26734,0 -0.39964,-0.14745 -0.39964,-0.33762"
       id="path2581" />
    <path
       style="fill:#000000;fill-opacity:1;fill-rule:nonzero;stroke:none;stroke-width:0.352778"
       d="m 124.4272,143.8162 v -0.92604 h -0.25356 v -0.11575 l 0.26045,-0.0593 v -0.41754 l 0.29215,-0.11576 v 0.54019 h 0.44373 v 0.16812 h -0.44373 v 0.89022 c 0,0.17776 0.0537,0.24804 0.18741,0.24804 0.0882,0 0.14883,-0.0675 0.21773,-0.17087 l 0.0951,0.0744 c -0.11713,0.21635 -0.22186,0.28663 -0.42443,0.28663 -0.25356,0 -0.37483,-0.16123 -0.37483,-0.40239"
       id="path2583" />
    <path
       style="fill:#000000;fill-opacity:1;fill-rule:nonzero;stroke:none;stroke-width:0.352778"
       d="m 125.55719,142.16807 c 0,-0.12127 0.0799,-0.20808 0.19706,-0.20808 0.11714,0 0.19706,0.0799 0.19706,0.20257 0,0.12264 -0.0799,0.20533 -0.19706,0.20533 -0.11713,0 -0.19706,-0.0772 -0.19706,-0.19982 m -0.17501,1.87 c 0.18466,-0.003 0.22876,-0.0358 0.22876,-0.11162 v -0.8916 c 0,-0.0965 -0.0441,-0.15434 -0.22876,-0.15847 v -0.15434 l 0.52779,-0.0124 v 1.21681 c 0,0.0758 0.0413,0.10886 0.22738,0.11162 v 0.15434 h -0.75517 z m 0,0"
       id="path2585" />
    <path
       style="fill:#000000;fill-opacity:1;fill-rule:nonzero;stroke:none;stroke-width:0.352778"
       d="m 127.45062,143.4524 c 0,-0.42168 -0.15572,-0.60496 -0.40928,-0.60496 -0.24942,0 -0.38034,0.18328 -0.38034,0.60496 0,0.42168 0.15572,0.60909 0.40928,0.60909 0.24805,0 0.38034,-0.18741 0.38034,-0.60909 m -1.11897,0.007 c 0,-0.44786 0.29215,-0.76894 0.72623,-0.76894 0.44786,0 0.72347,0.30868 0.72347,0.75654 0,0.44924 -0.29214,0.7717 -0.72347,0.7717 -0.45338,0 -0.72623,-0.30868 -0.72623,-0.7593"
       id="path2587" />
    <path
       style="fill:#000000;fill-opacity:1;fill-rule:nonzero;stroke:none;stroke-width:0.352778"
       d="m 127.9977,144.03807 c 0.18328,-0.003 0.23151,-0.0345 0.23151,-0.11162 v -0.8916 c 0,-0.0978 -0.0482,-0.15434 -0.23151,-0.15847 v -0.15434 l 0.52228,-0.0124 v 0.22186 c 0.16812,-0.11989 0.34864,-0.23151 0.55948,-0.23151 0.21773,0 0.37345,0.1571 0.37345,0.44649 v 0.77997 c 0,0.0772 0.0441,0.10886 0.23151,0.11162 v 0.15434 h -0.73312 v -0.15434 c 0.16261,-0.003 0.20395,-0.0345 0.20395,-0.11162 v -0.66284 c 0,-0.25769 -0.0923,-0.33211 -0.27285,-0.33211 -0.14332,0 -0.26321,0.0606 -0.35553,0.11576 v 0.87919 c 0,0.0772 0.0413,0.10886 0.19981,0.11162 v 0.15434 h -0.72898 z m 0,0"
       id="path2589" />
    <path
       style="fill:#000000;fill-opacity:1;fill-rule:nonzero;stroke:none;stroke-width:0.352778"
       d="m 129.90353,143.72663 h 0.13367 c 0.14607,0.23427 0.28249,0.34038 0.46577,0.34038 0.14608,0 0.226,-0.0896 0.226,-0.19017 0,-0.13781 -0.0951,-0.21773 -0.36242,-0.28939 -0.31971,-0.0868 -0.44649,-0.22462 -0.44649,-0.42719 0,-0.27975 0.20533,-0.46991 0.51952,-0.46991 0.10198,0 0.21911,0.0413 0.2825,0.0923 l 0.0579,-0.0923 h 0.113 v 0.44097 h -0.13229 c -0.11162,-0.19017 -0.20395,-0.29077 -0.35829,-0.29077 -0.15572,0 -0.23565,0.0813 -0.23565,0.1943 0,0.12817 0.10887,0.19293 0.34589,0.2577 0.31695,0.0868 0.44373,0.21222 0.44373,0.42995 0,0.27147 -0.15434,0.49609 -0.50023,0.49609 -0.13367,0 -0.27009,-0.0482 -0.35278,-0.11575 l -0.0854,0.11575 h -0.11437 z m 0,0"
       id="path2591" />
    <path
       style="fill:#000000;fill-opacity:1;fill-rule:nonzero;stroke:none;stroke-width:0.352778"
       d="m 131.21404,144.11524 0.86541,-1.24851 h -0.23702 c -0.2384,0 -0.3073,0.0331 -0.46302,0.3955 l -0.11714,-0.005 0.0317,-0.54019 h 1.17271 l 0.01,0.0758 -0.86265,1.24988 h 0.27699 c 0.20533,0 0.30317,-0.0386 0.45889,-0.41892 l 0.11713,0.007 -0.0317,0.56224 h -1.2113 z m 0,0"
       id="path2593" />
    <path
       style="fill:#000000;fill-opacity:1;fill-rule:nonzero;stroke:none;stroke-width:0.352778"
       d="m 133.02616,143.30771 0.65595,-0.0124 c 0.004,-0.26734 -0.0854,-0.46715 -0.3073,-0.46715 -0.17364,0 -0.32384,0.11024 -0.34865,0.47955 m -0.32384,0.16123 c 0,-0.44097 0.2825,-0.77859 0.69453,-0.77859 0.46578,0 0.62563,0.37621 0.59945,0.7469 l -0.97289,-0.004 v 0.007 c 0,0.32522 0.15434,0.58292 0.46577,0.58292 0.17777,0 0.31695,-0.10336 0.44373,-0.26183 l 0.0896,0.0868 c -0.11851,0.19982 -0.30454,0.37069 -0.62563,0.37069 -0.44372,0 -0.69453,-0.32521 -0.69453,-0.74965"
       id="path2595" />
    <path
       style="fill:#000000;fill-opacity:1;fill-rule:nonzero;stroke:none;stroke-width:0.352778"
       d="m 134.25124,144.03807 c 0.18328,-0.003 0.23151,-0.0345 0.23151,-0.11162 v -0.8916 c 0,-0.0978 -0.0482,-0.15434 -0.23151,-0.15847 v -0.15434 l 0.52227,-0.0124 v 0.22186 c 0.1695,-0.11989 0.35003,-0.23151 0.55949,-0.23151 0.21773,0 0.37344,0.1571 0.37344,0.44649 v 0.77997 c 0,0.0772 0.0441,0.10886 0.23151,0.11162 v 0.15434 h -0.73173 v -0.15434 c 0.16123,-0.003 0.20257,-0.0345 0.20257,-0.11162 v -0.66284 c 0,-0.25769 -0.0923,-0.33211 -0.27285,-0.33211 -0.14332,0 -0.26321,0.0606 -0.35554,0.11576 v 0.87919 c 0,0.0772 0.0413,0.10886 0.19982,0.11162 v 0.15434 h -0.72898 z m 0,0"
       id="path2597" />
    <path
       style="fill:#000000;fill-opacity:1;fill-rule:nonzero;stroke:none;stroke-width:0.352778"
       d="m 136.28798,143.8162 v -0.92604 h -0.25356 v -0.11575 l 0.25907,-0.0593 v -0.41754 l 0.29214,-0.11576 v 0.54019 h 0.44373 v 0.16812 h -0.44373 v 0.89022 c 0,0.17776 0.0537,0.24804 0.18742,0.24804 0.0896,0 0.14883,-0.0675 0.21911,-0.17087 l 0.0951,0.0744 c -0.11713,0.21635 -0.22186,0.28663 -0.42581,0.28663 -0.25356,0 -0.37345,-0.16123 -0.37345,-0.40239"
       id="path2599" />
    <path
       style="fill:#000000;fill-opacity:1;fill-rule:nonzero;stroke:none;stroke-width:0.352778"
       d="m 137.2402,144.03807 c 0.18328,-0.003 0.23151,-0.0345 0.23151,-0.11162 v -0.8916 c 0,-0.0978 -0.0482,-0.15434 -0.23151,-0.15847 v -0.15434 l 0.52228,-0.0124 v 0.2508 c 0.11162,-0.14194 0.24115,-0.26045 0.40652,-0.26045 0.16123,0 0.24391,0.11162 0.24391,0.2508 0,0.10198 -0.0758,0.19293 -0.17363,0.19293 -0.0965,0 -0.18466,-0.051 -0.18466,-0.17363 0,-0.0165 0.003,-0.0358 0.007,-0.0551 -0.14332,-0.006 -0.226,0.0909 -0.29215,0.17088 v 0.8406 c 0,0.0772 0.0565,0.10886 0.26597,0.11162 v 0.15434 h -0.79513 z m 0,0"
       id="path2601" />
    <path
       style="fill:#000000;fill-opacity:1;fill-rule:nonzero;stroke:none;stroke-width:0.352778"
       d="m 138.74364,143.77073 v -0.76481 c 0,-0.1006 -0.051,-0.12265 -0.23426,-0.12954 v -0.15434 l 0.53192,-0.0152 v 0.94809 c 0,0.2577 0.0923,0.33211 0.29214,0.33211 0.14332,0 0.23151,-0.0455 0.32935,-0.0937 v -0.88745 c 0,-0.1006 -0.0592,-0.12265 -0.23426,-0.12954 v -0.15434 l 0.5333,-0.0152 v 1.21957 c 0,0.0799 0.0469,0.10886 0.23151,0.11575 v 0.15021 h -0.52366 v -0.18604 c -0.15847,0.11576 -0.32384,0.21222 -0.5333,0.21222 -0.22875,0 -0.39274,-0.1571 -0.39274,-0.44786"
       id="path2603" />
    <path
       style="fill:#000000;fill-opacity:1;fill-rule:nonzero;stroke:none;stroke-width:0.352778"
       d="m 141.31369,144.03807 c 0.15847,-0.003 0.18327,-0.0345 0.18327,-0.11162 v -0.66008 c 0,-0.25769 -0.0951,-0.33487 -0.2756,-0.33487 -0.14194,0 -0.23151,0.0606 -0.32384,0.11576 v 0.87919 c 0,0.0772 0.0221,0.10886 0.1819,0.11162 v 0.15434 h -0.71107 v -0.15434 c 0.18328,-0.003 0.23151,-0.0345 0.23151,-0.11162 v -0.8916 c 0,-0.0978 -0.0482,-0.15434 -0.23151,-0.15847 v -0.15434 l 0.52365,-0.0124 v 0.22186 c 0.16813,-0.11989 0.31971,-0.23151 0.52917,-0.23151 0.16123,0 0.28801,0.0965 0.34589,0.26321 0.18328,-0.16123 0.3638,-0.26321 0.56499,-0.26321 0.21773,0 0.36105,0.1571 0.36105,0.44649 v 0.77997 c 0,0.0772 0.0469,0.10886 0.23151,0.11162 v 0.15434 h -0.71383 v -0.15434 c 0.15848,-0.003 0.18329,-0.0345 0.18329,-0.11162 v -0.66008 c 0,-0.25769 -0.0813,-0.33487 -0.26321,-0.33487 -0.10473,0 -0.20257,0.0482 -0.34175,0.14194 0.003,0.0413 0.006,0.0675 0.006,0.0923 v 0.76068 c 0,0.0772 0.0289,0.10886 0.2136,0.11162 v 0.15434 h -0.69454 z m 0,0"
       id="path2605" />
    <path
       style="fill:#000000;fill-opacity:1;fill-rule:nonzero;stroke:none;stroke-width:0.352778"
       d="m 102.52604,145.92874 c -0.0482,-0.15159 -0.0992,-0.19017 -0.30868,-0.2384 v -0.14745 h 0.86265 v 0.14745 c -0.21222,0.0262 -0.26596,0.0841 -0.23426,0.18741 l 0.39274,1.28433 h 0.0289 l 0.339,-1.05971 c 0.10473,-0.32522 0.11438,-0.36656 -0.18328,-0.41203 v -0.14745 h 0.76757 v 0.14745 c -0.21635,0.0455 -0.28939,0.11988 -0.38447,0.40927 l -0.52917,1.61231 h -0.19017 l -0.43546,-1.37666 -0.51263,1.37666 h -0.19017 l -0.54019,-1.79283 c -0.0413,-0.1378 -0.10335,-0.18052 -0.32659,-0.22875 v -0.14745 h 0.87229 v 0.14745 c -0.20532,0.0262 -0.24667,0.0772 -0.20946,0.20257 l 0.36794,1.26917 h 0.0289 l 0.42168,-1.10794 z m 0,0"
       id="path2607" />
    <path
       style="fill:#000000;fill-opacity:1;fill-rule:nonzero;stroke:none;stroke-width:0.352778"
       d="m 104.436,145.63659 c 0,-0.12264 0.0785,-0.20946 0.19568,-0.20946 0.11851,0 0.19706,0.0799 0.19706,0.20257 0,0.12265 -0.0785,0.20533 -0.19706,0.20533 -0.11713,0 -0.19568,-0.0772 -0.19568,-0.19844 m -0.17501,1.86862 c 0.18466,-0.003 0.22875,-0.0345 0.22875,-0.11162 V 146.502 c 0,-0.0965 -0.0441,-0.15434 -0.22875,-0.15847 v -0.15434 l 0.52641,-0.0124 v 1.21681 c 0,0.0772 0.0413,0.10886 0.22875,0.11162 v 0.15434 h -0.75516 z m 0,0"
       id="path2609" />
    <path
       style="fill:#000000;fill-opacity:1;fill-rule:nonzero;stroke:none;stroke-width:0.352778"
       d="m 105.20357,147.50521 c 0.18466,-0.003 0.23151,-0.0345 0.23151,-0.11162 V 146.502 c 0,-0.0965 -0.0469,-0.15434 -0.23151,-0.15847 v -0.15434 l 0.52365,-0.0124 v 0.2508 c 0.11025,-0.14193 0.24116,-0.26045 0.40515,-0.26045 0.1626,0 0.24529,0.11163 0.24529,0.25081 0,0.10335 -0.0772,0.19292 -0.17501,0.19292 -0.0951,0 -0.18328,-0.051 -0.18328,-0.17363 0,-0.0165 0.003,-0.0345 0.006,-0.0551 -0.14194,-0.006 -0.22462,0.0909 -0.29215,0.17087 v 0.84061 c 0,0.0772 0.0579,0.10886 0.26734,0.11162 v 0.15434 h -0.7965 z m 0,0"
       id="path2611" />
    <path
       style="fill:#000000;fill-opacity:1;fill-rule:nonzero;stroke:none;stroke-width:0.352778"
       d="m 106.73319,147.28335 v -0.92604 h -0.25356 v -0.11576 l 0.25907,-0.0592 v -0.41755 l 0.29215,-0.11576 v 0.5402 h 0.44373 v 0.16812 h -0.44373 v 0.89159 c 0,0.17639 0.0537,0.24667 0.18741,0.24667 0.0896,0 0.14883,-0.0675 0.21911,-0.17088 l 0.0951,0.0744 c -0.11713,0.21636 -0.22186,0.28664 -0.42581,0.28664 -0.25356,0 -0.37345,-0.16123 -0.37345,-0.40239"
       id="path2613" />
    <path
       style="fill:#000000;fill-opacity:1;fill-rule:nonzero;stroke:none;stroke-width:0.352778"
       d="m 107.72262,147.19378 h 0.13367 c 0.14607,0.23426 0.2825,0.34037 0.46578,0.34037 0.14607,0 0.226,-0.0896 0.226,-0.19017 0,-0.1378 -0.0951,-0.21773 -0.36243,-0.28938 -0.3197,-0.0868 -0.44648,-0.22463 -0.44648,-0.4272 0,-0.27974 0.20533,-0.46991 0.51952,-0.46991 0.10197,0 0.21911,0.0413 0.2825,0.0937 l 0.0579,-0.0937 h 0.113 v 0.44097 h -0.13229 c -0.11162,-0.19017 -0.20395,-0.28939 -0.35829,-0.28939 -0.15572,0 -0.23564,0.0799 -0.23564,0.19293 0,0.12816 0.10749,0.19292 0.34589,0.25631 0.31695,0.0882 0.44372,0.2136 0.44372,0.43271 0,0.2701 -0.15434,0.49472 -0.50022,0.49472 -0.13367,0 -0.2701,-0.0482 -0.35278,-0.11576 l -0.0854,0.11576 h -0.11438 z m 0,0"
       id="path2615" />
    <path
       style="fill:#000000;fill-opacity:1;fill-rule:nonzero;stroke:none;stroke-width:0.352778"
       d="m 109.03314,146.93608 c 0,-0.44786 0.32108,-0.77859 0.71658,-0.77859 0.32797,0 0.5333,0.17639 0.5333,0.36931 0,0.12954 -0.0785,0.23565 -0.19017,0.23565 -0.10749,0 -0.18328,-0.0703 -0.18328,-0.16812 0,-0.0868 0.0565,-0.14745 0.1006,-0.17363 -0.0317,-0.051 -0.13643,-0.10611 -0.25356,-0.10611 -0.23702,0 -0.40239,0.14193 -0.40239,0.55121 0,0.38172 0.15434,0.62425 0.46578,0.62425 0.17776,0 0.31005,-0.10335 0.41892,-0.22875 l 0.0882,0.0868 c -0.1323,0.19568 -0.29491,0.33762 -0.6091,0.33762 -0.41479,0 -0.68488,-0.32109 -0.68488,-0.74966"
       id="path2617" />
    <path
       style="fill:#000000;fill-opacity:1;fill-rule:nonzero;stroke:none;stroke-width:0.352778"
       d="m 110.45114,147.50521 c 0.18466,-0.003 0.23564,-0.0345 0.23564,-0.11162 v -1.65089 c 0,-0.0978 -0.0606,-0.15434 -0.24529,-0.15847 v -0.15434 l 0.54295,-0.0124 v 0.97841 c 0.17087,-0.11989 0.34589,-0.22876 0.55535,-0.22876 0.21497,0 0.37069,0.1571 0.37069,0.44649 v 0.77997 c 0,0.0772 0.0482,0.10886 0.23151,0.11162 v 0.15434 h -0.73174 v -0.15434 c 0.15848,-0.003 0.20257,-0.0345 0.20257,-0.11162 v -0.66284 c 0,-0.25769 -0.0923,-0.33211 -0.27285,-0.33211 -0.14331,0 -0.2632,0.0606 -0.35553,0.11576 v 0.87919 c 0,0.0772 0.0413,0.10886 0.19982,0.11162 v 0.15434 h -0.73312 z m 0,0"
       id="path2619" />
    <path
       style="fill:#000000;fill-opacity:1;fill-rule:nonzero;stroke:none;stroke-width:0.352778"
       d="m 113.19206,147.28059 v -0.36656 c -0.44373,0.10198 -0.52642,0.17088 -0.52642,0.35278 0,0.10749 0.0538,0.20671 0.21911,0.20671 0.12678,0 0.2384,-0.0923 0.30731,-0.19293 m -0.85852,0.0606 c 0,-0.12816 0.0593,-0.26045 0.19292,-0.33487 0.24116,-0.13505 0.61874,-0.18879 0.6656,-0.22737 v -0.091 c 0,-0.27009 -0.073,-0.37069 -0.27837,-0.37069 -0.10197,0 -0.15847,0.0234 -0.20946,0.0648 0.0248,0.0551 0.0317,0.10611 0.0317,0.15158 0,0.0965 -0.0606,0.18053 -0.16812,0.18053 -0.11438,0 -0.18328,-0.0868 -0.18328,-0.18053 0,-0.22186 0.26872,-0.36655 0.57327,-0.36655 0.33073,0 0.5333,0.1502 0.5333,0.46026 v 0.68213 c 0,0.1571 0.0124,0.20533 0.22186,0.18052 l 0.0124,0.12127 c -0.11438,0.0427 -0.17777,0.062 -0.26321,0.062 -0.16812,0 -0.22462,-0.062 -0.24116,-0.24804 h -0.0289 c -0.12541,0.14469 -0.27148,0.25356 -0.45889,0.25356 -0.26734,0 -0.39963,-0.14745 -0.39963,-0.33762"
       id="path2621" />
    <path
       style="fill:#000000;fill-opacity:1;fill-rule:nonzero;stroke:none;stroke-width:0.352778"
       d="m 113.83147,147.50521 c 0.18327,-0.003 0.23426,-0.0345 0.23426,-0.11162 v -1.03628 h -0.27009 v -0.11576 l 0.27009,-0.0579 v -0.062 c 0,-0.27698 0.0854,-0.45337 0.19982,-0.56913 0.1006,-0.10335 0.22462,-0.15434 0.34864,-0.15434 0.2384,0 0.36105,0.12816 0.36105,0.29215 0,0.10059 -0.062,0.17363 -0.15434,0.17363 -0.0827,0 -0.18191,-0.0538 -0.18191,-0.20257 0,-0.0262 0.004,-0.0537 0.01,-0.0868 -0.0276,-0.0124 -0.0537,-0.0193 -0.0786,-0.0193 -0.051,0 -0.0978,0.0193 -0.13367,0.0551 -0.0537,0.0538 -0.073,0.13781 -0.073,0.38861 v 0.19017 h 0.38724 v 0.16812 h -0.38724 v 1.03628 c 0,0.0772 0.0675,0.10198 0.31695,0.11163 v 0.15434 h -0.84887 z m 0,0"
       id="path2623" />
    <path
       style="fill:#000000;fill-opacity:1;fill-rule:nonzero;stroke:none;stroke-width:0.352778"
       d="m 115.13785,147.28335 v -0.92604 h -0.25356 v -0.11576 l 0.26045,-0.0592 v -0.41755 l 0.29076,-0.11576 v 0.5402 h 0.44511 v 0.16812 h -0.44511 v 0.89159 c 0,0.17639 0.0551,0.24667 0.18742,0.24667 0.0896,0 0.14882,-0.0675 0.2191,-0.17088 l 0.0951,0.0744 c -0.11713,0.21636 -0.22186,0.28664 -0.42444,0.28664 -0.25356,0 -0.37482,-0.16123 -0.37482,-0.40239"
       id="path2625" />
    <path
       style="fill:#000000;fill-opacity:1;fill-rule:nonzero;stroke:none;stroke-width:0.352778"
       d="m 101.20312,150.9696 c 0.26596,-0.01 0.33624,-0.0386 0.33624,-0.1378 v -1.52549 c 0,-0.0992 -0.0703,-0.12816 -0.33624,-0.13781 v -0.15847 h 0.99908 v 0.15847 c -0.26734,0.01 -0.33624,0.0386 -0.33624,0.13781 v 1.62884 h 0.29765 c 0.41893,0 0.51677,-0.15158 0.63804,-0.5898 l 0.12953,0.007 -0.022,0.77583 h -1.70601 z m 0,0"
       id="path2627" />
    <path
       style="fill:#000000;fill-opacity:1;fill-rule:nonzero;stroke:none;stroke-width:0.352778"
       d="m 103.48378,150.24338 0.65732,-0.0138 c 0.003,-0.26734 -0.0868,-0.46715 -0.30868,-0.46715 -0.17363,0 -0.32246,0.11024 -0.34864,0.48093 m -0.32384,0.15985 c 0,-0.44097 0.28249,-0.77859 0.69453,-0.77859 0.46715,0 0.62563,0.37621 0.59945,0.7469 l -0.9729,-0.004 v 0.007 c 0,0.32522 0.15434,0.58291 0.46578,0.58291 0.17777,0 0.31695,-0.10335 0.44372,-0.26045 l 0.0896,0.0868 c -0.11713,0.19981 -0.30455,0.36931 -0.62563,0.36931 -0.44373,0 -0.69453,-0.32384 -0.69453,-0.74965"
       id="path2629" />
    <path
       style="fill:#000000;fill-opacity:1;fill-rule:nonzero;stroke:none;stroke-width:0.352778"
       d="m 104.88662,149.10374 c 0,-0.12265 0.0786,-0.20946 0.19568,-0.20946 0.11851,0 0.19706,0.0799 0.19706,0.20257 0,0.12264 -0.0785,0.2067 -0.19706,0.2067 -0.11713,0 -0.19568,-0.0772 -0.19568,-0.19981 m -0.17501,1.86999 c 0.18466,-0.004 0.22875,-0.0358 0.22875,-0.11299 v -0.8916 c 0,-0.0965 -0.0441,-0.15434 -0.22875,-0.15709 v -0.15434 l 0.52641,-0.0138 v 1.21681 c 0,0.0772 0.0413,0.10887 0.22875,0.113 v 0.15434 h -0.75516 z m 0,0"
       id="path2631" />
    <path
       style="fill:#000000;fill-opacity:1;fill-rule:nonzero;stroke:none;stroke-width:0.352778"
       d="m 106.82139,150.35913 c 0,-0.31282 -0.15572,-0.52779 -0.3831,-0.52779 -0.14056,0 -0.24115,0.0413 -0.35002,0.13505 v 0.80477 c 0.0772,0.15297 0.19706,0.22462 0.35829,0.22462 0.26458,0 0.37483,-0.23151 0.37483,-0.63665 m -1.03078,0.52365 v -1.67018 c 0,-0.0965 -0.0606,-0.15434 -0.24391,-0.15709 v -0.15848 l 0.54157,-0.0124 v 0.93706 c 0.11438,-0.11024 0.25356,-0.19706 0.45062,-0.19706 0.38723,0 0.60909,0.30317 0.60909,0.71796 0,0.43133 -0.26872,0.81029 -0.69178,0.81029 -0.17363,0 -0.31695,-0.0606 -0.45337,-0.16399 l -0.1006,0.18328 h -0.12126 z m 0,0"
       id="path2633" />
    <path
       style="fill:#000000;fill-opacity:1;fill-rule:nonzero;stroke:none;stroke-width:0.352778"
       d="m 107.36433,150.97373 c 0.18466,-0.004 0.23151,-0.0358 0.23151,-0.11299 v -0.8916 c 0,-0.0965 -0.0468,-0.15434 -0.23151,-0.15709 v -0.15434 l 0.52366,-0.0138 v 0.22187 c 0.16812,-0.11851 0.34864,-0.23151 0.5581,-0.23151 0.21911,0 0.37483,0.15847 0.37483,0.44786 v 0.77859 c 0,0.0772 0.0441,0.10887 0.23013,0.113 v 0.15434 h -0.73174 v -0.15434 c 0.16123,-0.004 0.20257,-0.0358 0.20257,-0.113 v -0.66284 c 0,-0.25769 -0.0923,-0.3321 -0.27285,-0.3321 -0.14193,0 -0.2632,0.062 -0.35553,0.11575 v 0.87919 c 0,0.0772 0.0413,0.10887 0.19982,0.113 v 0.15434 h -0.72899 z m 0,0"
       id="path2635" />
    <path
       style="fill:#000000;fill-opacity:1;fill-rule:nonzero;stroke:none;stroke-width:0.352778"
       d="m 109.40796,149.10374 c 0,-0.12265 0.0785,-0.20946 0.19569,-0.20946 0.1185,0 0.19705,0.0799 0.19705,0.20257 0,0.12264 -0.0786,0.2067 -0.19705,0.2067 -0.11714,0 -0.19569,-0.0772 -0.19569,-0.19981 m -0.17501,1.86999 c 0.18466,-0.004 0.22876,-0.0358 0.22876,-0.11299 v -0.8916 c 0,-0.0965 -0.0441,-0.15434 -0.22876,-0.15709 v -0.15434 l 0.52641,-0.0138 v 1.21681 c 0,0.0772 0.0413,0.10887 0.22876,0.113 v 0.15434 h -0.75517 z m 0,0"
       id="path2637" />
    <path
       style="fill:#000000;fill-opacity:1;fill-rule:nonzero;stroke:none;stroke-width:0.352778"
       d="m 110.17829,151.0509 0.86541,-1.2485 h -0.23703 c -0.2384,0 -0.3073,0.0317 -0.46302,0.3955 l -0.11713,-0.007 0.0317,-0.54019 h 1.17271 l 0.01,0.0772 -0.86266,1.2485 h 0.27561 c 0.20671,0 0.30455,-0.0386 0.46026,-0.41892 l 0.11714,0.007 -0.0317,0.56361 h -1.2113 z m 0,0"
       id="path2639" />
    <path
       style="fill:#000000;fill-opacity:1;fill-rule:nonzero;stroke:none;stroke-width:0.352778"
       d="m 112.42449,150.9696 c 0.26734,-0.01 0.33624,-0.0386 0.33624,-0.1378 v -1.52549 c 0,-0.0992 -0.0689,-0.12816 -0.33624,-0.13781 v -0.15847 h 0.99908 v 0.15847 c -0.26596,0.01 -0.33624,0.0386 -0.33624,0.13781 v 1.52549 c 0,0.0992 0.0703,0.12816 0.33624,0.1378 v 0.15847 h -0.99908 z m 0,0"
       id="path2641" />
    <path
       style="fill:#000000;fill-opacity:1;fill-rule:nonzero;stroke:none;stroke-width:0.352778"
       d="m 113.63441,150.97373 c 0.18328,-0.004 0.23151,-0.0358 0.23151,-0.11299 v -0.8916 c 0,-0.0965 -0.0482,-0.15434 -0.23151,-0.15709 v -0.15434 l 0.52227,-0.0138 v 0.22187 c 0.16812,-0.11851 0.34865,-0.23151 0.55811,-0.23151 0.21911,0 0.37483,0.15847 0.37483,0.44786 v 0.77859 c 0,0.0772 0.0441,0.10887 0.23151,0.113 v 0.15434 h -0.73312 v -0.15434 c 0.16261,-0.004 0.20257,-0.0358 0.20257,-0.113 v -0.66284 c 0,-0.25769 -0.091,-0.3321 -0.27147,-0.3321 -0.14332,0 -0.26321,0.062 -0.35554,0.11575 v 0.87919 c 0,0.0772 0.0413,0.10887 0.19982,0.113 v 0.15434 h -0.72898 z m 0,0"
       id="path2643" />
    <path
       style="fill:#000000;fill-opacity:1;fill-rule:nonzero;stroke:none;stroke-width:0.352778"
       d="m 115.47409,150.97373 c 0.18466,-0.004 0.23426,-0.0358 0.23426,-0.11299 v -1.03629 h -0.26871 v -0.11576 l 0.26871,-0.0579 v -0.0606 c 0,-0.27699 0.0854,-0.45476 0.19982,-0.57051 0.10197,-0.10336 0.226,-0.15434 0.34864,-0.15434 0.2384,0 0.36243,0.12953 0.36243,0.29214 0,0.1006 -0.0634,0.17501 -0.15572,0.17501 -0.0827,0 -0.18052,-0.0551 -0.18052,-0.20395 0,-0.0248 0.003,-0.0537 0.01,-0.0854 -0.0289,-0.0138 -0.0538,-0.0193 -0.0799,-0.0193 -0.051,0 -0.0978,0.0193 -0.13367,0.0538 -0.0537,0.0551 -0.073,0.13918 -0.073,0.38998 v 0.19017 h 0.38723 v 0.16674 h -0.38723 v 1.03629 c 0,0.0772 0.0675,0.10335 0.31833,0.113 v 0.15434 h -0.85025 z m 0,0"
       id="path2645" />
    <path
       style="fill:#000000;fill-opacity:1;fill-rule:nonzero;stroke:none;stroke-width:0.352778"
       d="m 117.67481,150.38807 c 0,-0.42168 -0.15434,-0.60496 -0.40927,-0.60496 -0.24943,0 -0.38034,0.18328 -0.38034,0.60496 0,0.4203 0.15572,0.60771 0.40928,0.60771 0.24804,0 0.38033,-0.18741 0.38033,-0.60771 m -1.11896,0.006 c 0,-0.44649 0.29214,-0.76895 0.72622,-0.76895 0.44787,0 0.72347,0.30868 0.72347,0.75655 0,0.45062 -0.29214,0.7717 -0.72347,0.7717 -0.45337,0 -0.72622,-0.30868 -0.72622,-0.7593"
       id="path2647" />
    <path
       style="fill:#000000;fill-opacity:1;fill-rule:nonzero;stroke:none;stroke-width:0.352778"
       d="m 118.22189,150.97373 c 0.18329,-0.004 0.23151,-0.0358 0.23151,-0.11299 v -0.8916 c 0,-0.0965 -0.0482,-0.15434 -0.23151,-0.15709 v -0.15434 l 0.52228,-0.0138 v 0.25081 c 0.11162,-0.14056 0.24254,-0.26045 0.40652,-0.26045 0.16261,0 0.24392,0.113 0.24392,0.2508 0,0.10335 -0.0758,0.1943 -0.17363,0.1943 -0.0951,0 -0.18466,-0.0524 -0.18466,-0.17501 0,-0.0152 0.003,-0.0345 0.007,-0.0551 -0.14332,-0.006 -0.226,0.0909 -0.29215,0.17088 v 0.8406 c 0,0.0772 0.0579,0.10887 0.26734,0.113 v 0.15434 H 118.222 Z m 0,0"
       id="path2649" />
    <path
       style="fill:#000000;fill-opacity:1;fill-rule:nonzero;stroke:none;stroke-width:0.352778"
       d="m 120.49015,150.97373 c 0.15847,-0.004 0.18328,-0.0358 0.18328,-0.11299 v -0.66009 c 0,-0.25769 -0.0951,-0.33486 -0.27561,-0.33486 -0.14194,0 -0.23151,0.062 -0.32384,0.11576 v 0.87919 c 0,0.0772 0.022,0.10886 0.1819,0.11299 v 0.15434 h -0.71107 v -0.15434 c 0.18328,-0.004 0.23151,-0.0358 0.23151,-0.11299 v -0.8916 c 0,-0.0965 -0.0482,-0.15434 -0.23151,-0.15709 v -0.15434 l 0.52366,-0.0138 v 0.22187 c 0.16812,-0.11851 0.3197,-0.23151 0.52916,-0.23151 0.16123,0 0.28939,0.0965 0.34589,0.26458 0.18328,-0.16123 0.3638,-0.26458 0.565,-0.26458 0.21773,0 0.36104,0.15847 0.36104,0.44786 v 0.77859 c 0,0.0772 0.0469,0.10887 0.23151,0.113 v 0.15434 h -0.71382 v -0.15434 c 0.15847,-0.004 0.18328,-0.0358 0.18328,-0.113 v -0.66008 c 0,-0.25769 -0.0813,-0.33486 -0.26321,-0.33486 -0.10473,0 -0.20257,0.0482 -0.34175,0.14194 0.003,0.0427 0.007,0.0675 0.007,0.0937 v 0.7593 c 0,0.0772 0.0289,0.10887 0.21222,0.113 v 0.15434 h -0.69453 z m 0,0"
       id="path2651" />
    <path
       style="fill:#000000;fill-opacity:1;fill-rule:nonzero;stroke:none;stroke-width:0.352778"
       d="m 123.15527,150.74774 v -0.36656 c -0.4451,0.10335 -0.52641,0.17088 -0.52641,0.35415 0,0.10611 0.0537,0.20533 0.21911,0.20533 0.12678,0 0.23702,-0.0923 0.3073,-0.19292 m -0.85989,0.0606 c 0,-0.12816 0.0606,-0.26045 0.19292,-0.33348 0.24116,-0.13505 0.61874,-0.19017 0.66697,-0.22876 v -0.0909 c 0,-0.2701 -0.073,-0.36932 -0.27974,-0.36932 -0.1006,0 -0.15847,0.022 -0.20946,0.0648 0.0262,0.0538 0.0317,0.10611 0.0317,0.15021 0,0.0978 -0.0593,0.18052 -0.16812,0.18052 -0.11438,0 -0.18328,-0.0868 -0.18328,-0.18052 0,-0.22187 0.2701,-0.36656 0.57464,-0.36656 0.32935,0 0.53193,0.15158 0.53193,0.46027 v 0.68213 c 0,0.15847 0.0124,0.2067 0.22186,0.18052 l 0.0124,0.12264 c -0.11299,0.0414 -0.17639,0.0606 -0.2632,0.0606 -0.16674,0 -0.22462,-0.0606 -0.23978,-0.24805 h -0.0289 c -0.12678,0.14607 -0.27285,0.25494 -0.46026,0.25494 -0.26596,0 -0.39963,-0.14883 -0.39963,-0.339"
       id="path2653" />
    <path
       style="fill:#000000;fill-opacity:1;fill-rule:nonzero;stroke:none;stroke-width:0.352778"
       d="m 124.00001,150.75049 v -0.92604 h -0.25494 v -0.11576 l 0.26045,-0.0579 v -0.41893 l 0.29215,-0.11575 v 0.54157 h 0.44372 v 0.16674 h -0.44372 v 0.89159 c 0,0.17639 0.0537,0.24805 0.18741,0.24805 0.0882,0 0.14883,-0.0675 0.21773,-0.17088 l 0.0965,0.0744 c -0.11851,0.21497 -0.22324,0.28525 -0.42581,0.28525 -0.25356,0 -0.37345,-0.15985 -0.37345,-0.40239"
       id="path2655" />
    <path
       style="fill:#000000;fill-opacity:1;fill-rule:nonzero;stroke:none;stroke-width:0.352778"
       d="m 125.12862,149.10374 c 0,-0.12265 0.0799,-0.20946 0.19706,-0.20946 0.11714,0 0.19706,0.0799 0.19706,0.20257 0,0.12264 -0.0799,0.2067 -0.19706,0.2067 -0.11713,0 -0.19706,-0.0772 -0.19706,-0.19981 m -0.17363,1.86999 c 0.18328,-0.004 0.22738,-0.0358 0.22738,-0.11299 v -0.8916 c 0,-0.0965 -0.0441,-0.15434 -0.22738,-0.15709 v -0.15434 l 0.52641,-0.0138 v 1.21681 c 0,0.0772 0.0413,0.10887 0.22738,0.113 v 0.15434 h -0.75379 z m 0,0"
       id="path2657" />
    <path
       style="fill:#000000;fill-opacity:1;fill-rule:nonzero;stroke:none;stroke-width:0.352778"
       d="m 127.02205,150.38807 c 0,-0.42168 -0.15434,-0.60496 -0.4079,-0.60496 -0.2508,0 -0.38034,0.18328 -0.38034,0.60496 0,0.4203 0.15434,0.60771 0.4079,0.60771 0.24805,0 0.38034,-0.18741 0.38034,-0.60771 m -1.11897,0.006 c 0,-0.44649 0.29215,-0.76895 0.72623,-0.76895 0.44786,0 0.72347,0.30868 0.72347,0.75655 0,0.45062 -0.29215,0.7717 -0.72347,0.7717 -0.45338,0 -0.72623,-0.30868 -0.72623,-0.7593"
       id="path2659" />
    <path
       style="fill:#000000;fill-opacity:1;fill-rule:nonzero;stroke:none;stroke-width:0.352778"
       d="m 127.56913,150.97373 c 0.18328,-0.004 0.23151,-0.0358 0.23151,-0.11299 v -0.8916 c 0,-0.0965 -0.0482,-0.15434 -0.23151,-0.15709 v -0.15434 l 0.52228,-0.0138 v 0.22187 c 0.1695,-0.11851 0.35002,-0.23151 0.55948,-0.23151 0.21773,0 0.37345,0.15847 0.37345,0.44786 v 0.77859 c 0,0.0772 0.0441,0.10887 0.23151,0.113 v 0.15434 h -0.73174 v -0.15434 c 0.16123,-0.004 0.20257,-0.0358 0.20257,-0.113 v -0.66284 c 0,-0.25769 -0.0923,-0.3321 -0.27285,-0.3321 -0.14332,0 -0.2632,0.062 -0.35553,0.11575 v 0.87919 c 0,0.0772 0.0413,0.10887 0.19981,0.113 v 0.15434 h -0.72898 z m 0,0"
       id="path2661" />
    <path
       style="fill:#000000;fill-opacity:1;fill-rule:nonzero;stroke:none;stroke-width:0.352778"
       d="m 130.08818,150.09455 c 0,-0.6463 0.48094,-1.13551 1.08176,-1.13551 0.21773,0 0.37345,0.0744 0.49058,0.1447 l 0.0992,-0.13505 h 0.12954 v 0.74965 h -0.11024 c -0.14332,-0.3638 -0.33073,-0.57326 -0.64217,-0.57326 -0.3638,0 -0.68075,0.32935 -0.68075,0.93707 0,0.57601 0.3514,0.87229 0.73863,0.87229 0.35829,0 0.51125,-0.18465 0.64354,-0.45337 l 0.13918,0.0703 c -0.12953,0.30868 -0.40238,0.60771 -0.8654,0.60771 -0.59532,0 -1.02389,-0.43132 -1.02389,-1.08451"
       id="path2663" />
    <path
       style="fill:#000000;fill-opacity:1;fill-rule:nonzero;stroke:none;stroke-width:0.352778"
       d="m 132.48597,150.24338 0.65732,-0.0138 c 0.003,-0.26734 -0.0854,-0.46715 -0.3073,-0.46715 -0.17501,0 -0.32384,0.11024 -0.35002,0.48093 m -0.32246,0.15985 c 0,-0.44097 0.2825,-0.77859 0.69453,-0.77859 0.46578,0 0.62425,0.37621 0.59945,0.7469 l -0.97427,-0.004 v 0.007 c 0,0.32522 0.15571,0.58291 0.46577,0.58291 0.17777,0 0.31833,-0.10335 0.44511,-0.26045 l 0.0882,0.0868 c -0.11713,0.19981 -0.30454,0.36931 -0.62425,0.36931 -0.4451,0 -0.69453,-0.32384 -0.69453,-0.74965"
       id="path2665" />
    <path
       style="fill:#000000;fill-opacity:1;fill-rule:nonzero;stroke:none;stroke-width:0.352778"
       d="m 133.71104,150.97373 c 0.18466,-0.004 0.23152,-0.0358 0.23152,-0.11299 v -0.8916 c 0,-0.0965 -0.0469,-0.15434 -0.23152,-0.15709 v -0.15434 l 0.52366,-0.0138 v 0.22187 c 0.16812,-0.11851 0.34864,-0.23151 0.55811,-0.23151 0.2191,0 0.37482,0.15847 0.37482,0.44786 v 0.77859 c 0,0.0772 0.0441,0.10887 0.23151,0.113 v 0.15434 h -0.73311 v -0.15434 c 0.1626,-0.004 0.20257,-0.0358 0.20257,-0.113 v -0.66284 c 0,-0.25769 -0.0909,-0.3321 -0.27285,-0.3321 -0.14194,0 -0.26183,0.062 -0.35416,0.11575 v 0.87919 c 0,0.0772 0.04,0.10887 0.19982,0.113 v 0.15434 h -0.73037 z m 0,0"
       id="path2667" />
    <path
       style="fill:#000000;fill-opacity:1;fill-rule:nonzero;stroke:none;stroke-width:0.352778"
       d="m 135.74779,150.75049 v -0.92604 h -0.25356 v -0.11576 l 0.26045,-0.0579 v -0.41893 l 0.29214,-0.11575 v 0.54157 h 0.44373 v 0.16674 h -0.44373 v 0.89159 c 0,0.17639 0.0537,0.24805 0.18742,0.24805 0.0882,0 0.14882,-0.0675 0.21773,-0.17088 l 0.0951,0.0744 c -0.11713,0.21497 -0.22187,0.28525 -0.42444,0.28525 -0.25356,0 -0.37482,-0.15985 -0.37482,-0.40239"
       id="path2669" />
    <path
       style="fill:#000000;fill-opacity:1;fill-rule:nonzero;stroke:none;stroke-width:0.352778"
       d="m 136.70001,150.97373 c 0.18466,-0.004 0.23151,-0.0358 0.23151,-0.11299 v -0.8916 c 0,-0.0965 -0.0469,-0.15434 -0.23151,-0.15709 v -0.15434 l 0.52366,-0.0138 v 0.25081 c 0.11024,-0.14056 0.24115,-0.26045 0.40514,-0.26045 0.16261,0 0.24529,0.113 0.24529,0.2508 0,0.10335 -0.0772,0.1943 -0.17501,0.1943 -0.0951,0 -0.18328,-0.0524 -0.18328,-0.17501 0,-0.0152 0.003,-0.0345 0.006,-0.0551 -0.14194,-0.006 -0.22462,0.0909 -0.29214,0.17088 v 0.8406 c 0,0.0772 0.0579,0.10887 0.26734,0.113 v 0.15434 H 136.7 Z m 0,0"
       id="path2671" />
    <path
       style="fill:#000000;fill-opacity:1;fill-rule:nonzero;stroke:none;stroke-width:0.352778"
       d="m 138.34952,150.24338 0.65733,-0.0138 c 0.003,-0.26734 -0.0868,-0.46715 -0.30868,-0.46715 -0.17363,0 -0.32246,0.11024 -0.34865,0.48093 m -0.32246,0.15985 c 0,-0.44097 0.28112,-0.77859 0.69315,-0.77859 0.46716,0 0.62563,0.37621 0.60083,0.7469 l -0.97427,-0.004 v 0.007 c 0,0.32522 0.15572,0.58291 0.46577,0.58291 0.17777,0 0.31833,-0.10335 0.44373,-0.26045 l 0.0896,0.0868 c -0.11713,0.19981 -0.30454,0.36931 -0.62563,0.36931 -0.44372,0 -0.69315,-0.32384 -0.69315,-0.74965"
       id="path2673" />
    <path
       style="fill:#000000;fill-opacity:1;fill-rule:nonzero;stroke:none;stroke-width:0.352778"
       d="m 101.17694,154.36922 c 0.18466,-0.003 0.23565,-0.0358 0.23565,-0.113 v -1.03628 h -0.2701 v -0.11576 l 0.2701,-0.0579 v -0.0606 c 0,-0.27698 0.0854,-0.45475 0.19981,-0.57051 0.1006,-0.10197 0.22462,-0.15296 0.34864,-0.15296 0.23703,0 0.36105,0.12816 0.36105,0.29214 0,0.0992 -0.0634,0.17364 -0.15572,0.17364 -0.0813,0 -0.18052,-0.0551 -0.18052,-0.20257 0,-0.0262 0.004,-0.0551 0.01,-0.0868 -0.0289,-0.0124 -0.0537,-0.0193 -0.0786,-0.0193 -0.051,0 -0.0992,0.0193 -0.13367,0.0551 -0.0537,0.0537 -0.073,0.1378 -0.073,0.38861 v 0.19017 h 0.38722 v 0.16674 h -0.38722 v 1.03629 c 0,0.0772 0.0661,0.10335 0.31694,0.11299 v 0.15434 h -0.85024 z m 0,0"
       id="path2675" />
    <path
       style="fill:#000000;fill-opacity:1;fill-rule:nonzero;stroke:none;stroke-width:0.352778"
       d="m 103.37905,153.78355 c 0,-0.42168 -0.15572,-0.60495 -0.40928,-0.60495 -0.25081,0 -0.38034,0.18327 -0.38034,0.60495 0,0.42169 0.15572,0.60772 0.40928,0.60772 0.24667,0 0.38034,-0.18603 0.38034,-0.60772 m -1.11897,0.006 c 0,-0.44649 0.29076,-0.76895 0.72485,-0.76895 0.44786,0 0.72347,0.31006 0.72347,0.75654 0,0.45062 -0.29077,0.77308 -0.72347,0.77308 -0.45338,0 -0.72485,-0.30868 -0.72485,-0.76067"
       id="path2677" />
    <path
       style="fill:#000000;fill-opacity:1;fill-rule:nonzero;stroke:none;stroke-width:0.352778"
       d="m 103.92475,154.36922 c 0.18466,-0.003 0.23151,-0.0358 0.23151,-0.113 v -0.89159 c 0,-0.0965 -0.0469,-0.15434 -0.23151,-0.1571 v -0.15434 l 0.52365,-0.0138 v 0.25218 c 0.11025,-0.14194 0.24116,-0.26045 0.40652,-0.26045 0.16123,0 0.24392,0.11162 0.24392,0.2508 0,0.10198 -0.0772,0.19293 -0.17501,0.19293 -0.0951,0 -0.18328,-0.051 -0.18328,-0.17363 0,-0.0165 0.003,-0.0358 0.005,-0.0551 -0.14194,-0.007 -0.22462,0.0896 -0.29215,0.17087 v 0.83923 c 0,0.0772 0.0579,0.11024 0.26734,0.113 v 0.15434 h -0.7965 z m 0,0"
       id="path2679" />
    <path
       style="fill:#000000;fill-opacity:1;fill-rule:nonzero;stroke:none;stroke-width:0.352778"
       d="m 105.94633,154.36647 c 0.26596,-0.01 0.33624,-0.0386 0.33624,-0.13919 v -1.52548 c 0,-0.0992 -0.0703,-0.12816 -0.33624,-0.13781 v -0.15848 h 1.71841 l 0.01,0.66284 -0.12954,0.004 c -0.11162,-0.36105 -0.15847,-0.48645 -0.514,-0.48645 h -0.42168 v 0.74965 h 0.14607 c 0.23426,0 0.3073,-0.005 0.38585,-0.34037 h 0.11851 v 0.87505 h -0.11851 c -0.0785,-0.33486 -0.15159,-0.35415 -0.38585,-0.35415 h -0.14607 v 0.82682 h 0.42168 c 0.41892,0 0.50987,-0.18052 0.62149,-0.55397 l 0.12953,0.004 -0.0152,0.73036 h -1.82039 z m 0,0"
       id="path2681" />
    <path
       style="fill:#000000;fill-opacity:1;fill-rule:nonzero;stroke:none;stroke-width:0.352778"
       d="m 108.0437,153.79871 c 0,-0.44648 0.31971,-0.77859 0.71658,-0.77859 0.3266,0 0.53331,0.17777 0.53331,0.37069 0,0.12816 -0.0799,0.23565 -0.19017,0.23565 -0.10887,0 -0.18466,-0.0717 -0.18466,-0.16812 0,-0.0868 0.0565,-0.14745 0.10197,-0.17364 -0.0317,-0.051 -0.13642,-0.1061 -0.25356,-0.1061 -0.2384,0 -0.40376,0.14193 -0.40376,0.54983 0,0.3831 0.15572,0.62426 0.46578,0.62426 0.17776,0 0.31143,-0.10336 0.41892,-0.22876 l 0.0896,0.0868 c -0.13367,0.19706 -0.2949,0.33899 -0.60909,0.33899 -0.41617,0 -0.68489,-0.32246 -0.68489,-0.75103"
       id="path2683" />
    <path
       style="fill:#000000;fill-opacity:1;fill-rule:nonzero;stroke:none;stroke-width:0.352778"
       d="m 110.62891,153.78355 c 0,-0.42168 -0.15572,-0.60495 -0.40928,-0.60495 -0.25081,0 -0.38034,0.18327 -0.38034,0.60495 0,0.42169 0.15572,0.60772 0.40928,0.60772 0.24667,0 0.38034,-0.18603 0.38034,-0.60772 m -1.11897,0.006 c 0,-0.44649 0.29076,-0.76895 0.72485,-0.76895 0.44786,0 0.72347,0.31006 0.72347,0.75654 0,0.45062 -0.29077,0.77308 -0.72347,0.77308 -0.45338,0 -0.72485,-0.30868 -0.72485,-0.76067"
       id="path2685" />
    <path
       style="fill:#000000;fill-opacity:1;fill-rule:nonzero;stroke:none;stroke-width:0.352778"
       d="m 111.17461,154.36922 c 0.18466,-0.003 0.23151,-0.0358 0.23151,-0.113 v -0.89159 c 0,-0.0965 -0.0469,-0.15434 -0.23151,-0.1571 v -0.15434 l 0.52365,-0.0138 v 0.22324 c 0.16812,-0.11989 0.34865,-0.23151 0.55811,-0.23151 0.21911,0 0.37483,0.1571 0.37483,0.44649 v 0.77859 c 0,0.0772 0.0441,0.11024 0.23151,0.113 v 0.15434 h -0.73312 v -0.15434 c 0.16261,-0.003 0.20257,-0.0358 0.20257,-0.113 v -0.66284 c 0,-0.25769 -0.091,-0.33073 -0.27285,-0.33073 -0.14194,0 -0.26183,0.0606 -0.35416,0.11438 v 0.87919 c 0,0.0772 0.04,0.11024 0.19982,0.113 v 0.15434 h -0.73036 z m 0,0"
       id="path2687" />
    <path
       style="fill:#000000;fill-opacity:1;fill-rule:nonzero;stroke:none;stroke-width:0.352778"
       d="m 114.13464,153.78355 c 0,-0.42168 -0.15572,-0.60495 -0.40928,-0.60495 -0.25081,0 -0.38034,0.18327 -0.38034,0.60495 0,0.42169 0.15572,0.60772 0.40928,0.60772 0.24804,0 0.38034,-0.18603 0.38034,-0.60772 m -1.11897,0.006 c 0,-0.44649 0.29076,-0.76895 0.72623,-0.76895 0.44648,0 0.72209,0.31006 0.72209,0.75654 0,0.45062 -0.29077,0.77308 -0.72209,0.77308 -0.45476,0 -0.72623,-0.30868 -0.72623,-0.76067"
       id="path2689" />
    <path
       style="fill:#000000;fill-opacity:1;fill-rule:nonzero;stroke:none;stroke-width:0.352778"
       d="m 115.62567,154.36922 c 0.15848,-0.003 0.18466,-0.0358 0.18466,-0.113 v -0.66008 c 0,-0.25631 -0.0951,-0.33348 -0.27561,-0.33348 -0.14331,0 -0.23151,0.0606 -0.32384,0.11437 v 0.87919 c 0,0.0772 0.022,0.11025 0.18053,0.113 v 0.15434 h -0.71107 v -0.15434 c 0.18466,-0.003 0.23151,-0.0358 0.23151,-0.113 v -0.89159 c 0,-0.0965 -0.0469,-0.15434 -0.23151,-0.1571 v -0.15434 l 0.52365,-0.0138 v 0.22324 c 0.16812,-0.11989 0.32108,-0.23151 0.53055,-0.23151 0.16123,0 0.28801,0.0951 0.34451,0.26321 0.18465,-0.16123 0.36518,-0.26321 0.56499,-0.26321 0.21911,0 0.36105,0.1571 0.36105,0.44649 v 0.77859 c 0,0.0772 0.0482,0.11024 0.23151,0.113 v 0.15434 h -0.71245 v -0.15434 c 0.1571,-0.003 0.18328,-0.0358 0.18328,-0.113 v -0.66008 c 0,-0.25632 -0.0827,-0.33349 -0.2632,-0.33349 -0.10473,0 -0.20258,0.0482 -0.34176,0.14056 0.003,0.0427 0.006,0.0675 0.006,0.0937 v 0.7593 c 0,0.0772 0.0289,0.11024 0.21221,0.113 v 0.15434 h -0.69453 z m 0,0"
       id="path2691" />
    <path
       style="fill:#000000;fill-opacity:1;fill-rule:nonzero;stroke:none;stroke-width:0.352778"
       d="m 117.59351,152.49922 c 0,-0.12126 0.0799,-0.20946 0.19706,-0.20946 0.11713,0 0.19568,0.0813 0.19568,0.20395 0,0.12127 -0.0785,0.20533 -0.19568,0.20533 -0.11713,0 -0.19706,-0.0772 -0.19706,-0.19982 m -0.17501,1.87 c 0.18466,-0.003 0.22875,-0.0358 0.22875,-0.113 v -0.89159 c 0,-0.0965 -0.0441,-0.15434 -0.22875,-0.1571 v -0.15434 l 0.52641,-0.0124 v 1.21543 c 0,0.0772 0.0413,0.11024 0.22876,0.113 v 0.15434 h -0.75517 z m 0,0"
       id="path2693" />
    <path
       style="fill:#000000;fill-opacity:1;fill-rule:nonzero;stroke:none;stroke-width:0.352778"
       d="m 118.36797,153.79871 c 0,-0.44648 0.3197,-0.77859 0.71658,-0.77859 0.32659,0 0.5333,0.17777 0.5333,0.37069 0,0.12816 -0.0799,0.23565 -0.19017,0.23565 -0.10887,0 -0.18466,-0.0717 -0.18466,-0.16812 0,-0.0868 0.0565,-0.14745 0.10198,-0.17364 -0.0317,-0.051 -0.13643,-0.1061 -0.25356,-0.1061 -0.2384,0 -0.40377,0.14193 -0.40377,0.54983 0,0.3831 0.15572,0.62426 0.46578,0.62426 0.17777,0 0.31144,-0.10336 0.41892,-0.22876 l 0.0896,0.0868 c -0.13367,0.19706 -0.2949,0.33899 -0.6091,0.33899 -0.41616,0 -0.68488,-0.32246 -0.68488,-0.75103"
       id="path2695" />
    <path
       style="fill:#000000;fill-opacity:1;fill-rule:nonzero;stroke:none;stroke-width:0.352778"
       d="m 119.86865,154.05641 h 0.13229 c 0.14608,0.23564 0.2825,0.34175 0.46716,0.34175 0.14607,0 0.22462,-0.0909 0.22462,-0.19017 0,-0.1378 -0.0951,-0.21911 -0.36105,-0.28939 -0.32108,-0.0868 -0.44786,-0.226 -0.44786,-0.42719 0,-0.28112 0.20671,-0.46991 0.5209,-0.46991 0.1006,0 0.21773,0.0413 0.2825,0.0923 l 0.0565,-0.0923 h 0.11437 v 0.43959 h -0.13367 c -0.11024,-0.18879 -0.20257,-0.28938 -0.35829,-0.28938 -0.15572,0 -0.23426,0.0799 -0.23426,0.19292 0,0.12954 0.10748,0.19293 0.34589,0.25769 0.31694,0.0868 0.44372,0.21222 0.44372,0.43133 0,0.27009 -0.15572,0.49609 -0.5016,0.49609 -0.13367,0 -0.26872,-0.0482 -0.3514,-0.11575 l -0.0854,0.11575 h -0.11438 z m 0,0"
       id="path2697" />
  </g>
</svg>
