<?xml version="1.0" encoding="UTF-8" standalone="no"?>
<svg
   width="613.875pt"
   height="176.75781pt"
   viewBox="0 0 613.875 176.75781"
   version="1.2"
   id="svg899"
   xmlns="http://www.w3.org/2000/svg"
   xmlns:svg="http://www.w3.org/2000/svg">
  <defs
     id="defs903" />
  <g
     id="surface15424"
     transform="translate(-55.6875,-58.074219)">
    <path
       style="fill:#bd117a;fill-opacity:1;fill-rule:nonzero;stroke:none"
       d="M 55.6875,99.179688 H 74.191406 V 225.35156 H 55.6875 Z m 0,0"
       id="path824" />
    <path
       style="fill:#66a8b8;fill-opacity:1;fill-rule:nonzero;stroke:none"
       d="m 130.53125,139.07422 c 2.99219,-2.08985 4.48828,-5.79688 4.48828,-11.12109 0,-9.98047 -5.51172,-14.96875 -16.53515,-14.96875 h -8.83985 v 29.22656 h 7.69922 c 5.79688,0 10.19141,-1.04297 13.1875,-3.13672 z M 109.64453,73.636719 v 25.378906 h 7.41406 c 9.59766,0 14.39844,-4.371094 14.39844,-13.117187 0,-4.371094 -1.26172,-7.507813 -3.77734,-9.410157 -2.51953,-1.898437 -6.53516,-2.851562 -12.04688,-2.851562 z m 40.70313,39.062501 c 3.84765,3.61328 5.77343,9.03125 5.77343,16.2539 0,9.97657 -3.44531,17.22657 -10.33593,21.74219 -6.89454,4.51563 -16.42188,6.76953 -28.58594,6.76953 H 89.113281 V 58.808594 h 24.523439 c 12.44922,0 22.02344,2.070312 28.72656,6.203125 6.69922,4.132812 10.05078,10.480469 10.05078,19.035156 0,5.605469 -1.64062,10.191406 -4.91797,13.753906 -3.28125,3.566409 -7.48437,6.058599 -12.61718,7.484379 6.46093,1.33203 11.61718,3.80468 15.46875,7.41406"
       id="path826" />
    <path
       style="fill:#66a8b8;fill-opacity:1;fill-rule:nonzero;stroke:none"
       d="m 166.64453,58.808594 h 20.53125 v 98.656246 h -20.53125 z m 0,0"
       id="path828" />
    <path
       style="fill:#66a8b8;fill-opacity:1;fill-rule:nonzero;stroke:none"
       d="M 251.17578,157.46484 V 114.125 h -27.37109 v 43.33984 H 203.27344 V 58.808594 h 20.53125 V 97.875 h 27.37109 V 58.808594 h 20.52734 v 98.656246 h -20.52734"
       id="path830" />
    <path
       style="fill:#3f5461;fill-opacity:1;fill-rule:nonzero;stroke:none"
       d="m 583.82812,60.894531 c 4.28125,1.882813 8.30079,4.703125 12.0625,8.460938 l -6.63281,7.472656 c -3.1914,-2.820313 -6.36719,-4.910156 -9.51562,-6.273437 -3.14844,-1.363282 -6.5586,-2.046876 -10.22266,-2.046876 -4.69922,0 -8.48437,1.292969 -11.35156,3.878907 -2.86719,2.585937 -4.30078,5.992187 -4.30078,10.222656 0,2.820313 0.5664,5.238281 1.69531,7.261719 1.125,2.019531 3.05078,3.851562 5.78125,5.496094 2.72266,1.644531 6.57812,3.3125 11.55859,5.007812 5.73438,2.06641 10.4375,4.27734 14.10547,6.62891 3.66016,2.34765 6.48047,5.35547 8.45703,9.01953 1.97266,3.66797 2.96094,8.27344 2.96094,13.82031 0,5.54687 -1.27344,10.50391 -3.80859,14.875 -2.53907,4.37109 -6.17969,7.80078 -10.92969,10.28906 -4.74609,2.49219 -10.3125,3.73828 -16.70313,3.73828 -11.7539,0 -21.76171,-4.23047 -30.03515,-12.6875 l 6.91015,-7.47265 c 3.47657,3.10156 7.02735,5.47656 10.64454,7.11718 3.61718,1.64844 7.63671,2.46875 12.05468,2.46875 5.54688,0 9.98828,-1.57421 13.32422,-4.72265 3.33594,-3.14844 5.00781,-7.4961 5.00781,-13.04297 0,-4.79297 -1.34375,-8.60156 -4.01953,-11.42187 -2.67968,-2.82032 -7.59375,-5.44922 -14.73437,-7.89454 -9.11719,-3.19531 -15.67578,-6.91015 -19.66797,-11.140621 -3.99609,-4.230469 -5.99219,-9.726563 -5.99219,-16.496094 0,-4.792969 1.19531,-9.136719 3.59375,-13.039063 2.39844,-3.902343 5.75781,-6.933593 10.07813,-9.097656 4.32422,-2.160156 9.21484,-3.242187 14.66797,-3.242187 5.73437,0 10.73828,0.941406 15.01171,2.820312"
       id="path832" />
    <path
       style="fill:#3f5461;fill-opacity:1;fill-rule:nonzero;stroke:none"
       d="m 343.05078,148.17187 c -15.60547,0 -23.40625,-13.20312 -23.40625,-39.62109 0,-26.691405 7.80078,-40.042968 23.40625,-40.042968 7.61328,0 13.41797,3.199219 17.41406,9.589844 3.99219,6.394532 5.99219,16.496094 5.99219,30.312504 0,13.91015 -1.97656,24.01562 -5.92578,30.3125 -3.94531,6.30078 -9.77344,9.44921 -17.48047,9.44921 z m 26.625,-1.49218 c 0.24219,-0.29688 0.49219,-0.59375 0.72656,-0.90625 6.57813,-8.64453 9.8711,-21.09766 9.8711,-37.36328 0,-16.542972 -3.3125,-29.06641 -9.94141,-37.574222 -6.625,-8.507813 -15.72266,-12.761719 -27.28125,-12.761719 -7.52344,0 -14.07812,1.929687 -19.66797,5.78125 -5.59375,3.855469 -9.91797,9.566406 -12.97265,17.132812 -3.05469,7.566407 -4.58204,16.757813 -4.58204,27.562499 0,16.45313 3.3125,28.92969 9.9375,37.4375 6.62891,8.50391 15.72266,12.75781 27.28516,12.75781 6.69141,0 12.53906,-1.43359 17.55859,-4.28125 l 12.6836,12.6836 c 0,0 3.03125,-1.66797 4.89453,-3.53125 1.89062,-1.89063 3.53125,-4.89453 3.53125,-4.89453 l -12.04297,-12.04297"
       id="path834" />
    <path
       style="fill:#3f5461;fill-opacity:1;fill-rule:nonzero;stroke:none"
       d="m 457.00391,128.43359 c 0,8.92969 -2.67969,16.21485 -8.03907,21.85157 -5.35547,5.64062 -13.01953,8.46093 -22.98047,8.46093 -10.05859,0 -17.71875,-2.79687 -22.98046,-8.38672 -5.26563,-5.59375 -7.89844,-12.90234 -7.89844,-21.92578 V 59.90625 h 13.11328 v 67.67969 c 0,13.63281 5.92187,20.44531 17.76562,20.44531 11.84375,0 17.76563,-6.8125 17.76563,-20.44531 V 59.90625 h 13.25391 v 68.52734"
       id="path836" />
    <path
       style="fill:#3f5461;fill-opacity:1;fill-rule:nonzero;stroke:none"
       d="m 524.25781,59.90625 -1.55078,10.152344 h -33.55859 v 32.007816 h 29.1875 v 10.15234 h -29.1875 v 34.40234 h 35.53125 v 10.29297 H 476.03516 V 59.90625 h 48.22265"
       id="path838" />
    <path
       style="fill:#3f5461;fill-opacity:1;fill-rule:nonzero;stroke:none"
       d="M 669.5625,59.90625 668.01172,70.625 h -23.82813 v 86.28906 H 631.07031 V 70.625 H 606.53906 V 59.90625 h 63.02344"
       id="path840" />
    <path
       style="fill:#66a8b8;fill-opacity:1;fill-rule:nonzero;stroke:none"
       d="m 104.49609,194.53125 c 1.19922,0.49609 2.38672,1.26953 3.55469,2.32031 l -2.16015,2.51953 c -0.8711,-0.75 -1.73047,-1.30468 -2.58594,-1.66406 -0.85547,-0.36328 -1.79297,-0.54297 -2.8125,-0.54297 -2.339846,0 -4.203128,1 -5.582034,2.99219 -1.378906,1.99609 -2.070312,5.21484 -2.070312,9.65234 0,4.32422 0.691406,7.51172 2.070312,9.5625 1.378906,2.0586 3.242188,3.08594 5.582034,3.08594 1.16797,0 2.17187,-0.21094 3.01562,-0.63281 0.83985,-0.41797 1.75391,-1.03516 2.74219,-1.84375 l 2.11719,2.47656 c -2.25,2.30859 -4.95313,3.46484 -8.10156,3.46484 -2.308599,0 -4.35938,-0.60156 -6.144536,-1.80078 -1.78125,-1.19922 -3.179688,-3.00781 -4.183594,-5.42187 -1.003906,-2.41406 -1.507812,-5.37891 -1.507812,-8.89063 0,-3.47656 0.519531,-6.41797 1.554687,-8.8164 1.035156,-2.40235 2.445313,-4.20313 4.230469,-5.40235 1.78125,-1.19922 3.800781,-1.80078 6.050786,-1.80078 1.62109,0 3.03125,0.25 4.23046,0.74219"
       id="path842" />
    <path
       style="fill:#66a8b8;fill-opacity:1;fill-rule:nonzero;stroke:none"
       d="m 124.16016,211.56641 c 0,-4.94922 -1.63282,-7.42579 -4.90235,-7.42579 -1.5,0 -2.6875,0.6211 -3.55468,1.86719 -0.8711,1.2461 -1.36719,3.26172 -1.48438,6.05078 h 9.94141 z m 3.82812,3.32812 h -13.76953 c 0.11719,2.76172 0.67188,4.75 1.66406,5.96484 0.98828,1.21485 2.33985,1.82032 4.05078,1.82032 1.07813,0 2.04688,-0.16407 2.90235,-0.4961 0.85156,-0.32812 1.74609,-0.86718 2.67578,-1.61718 l 1.80078,2.38281 c -2.22266,1.98047 -4.74219,2.97265 -7.5625,2.97265 -3.08984,0 -5.48047,-1.07421 -7.17578,-3.21875 -1.69531,-2.14453 -2.54297,-5.15234 -2.54297,-9.02343 0,-3.8711 0.8125,-6.9375 2.42969,-9.20313 1.62109,-2.26172 3.87109,-3.39453 6.75,-3.39453 2.85156,0 5.03906,1.01172 6.57031,3.03516 1.53125,2.02734 2.29687,4.91406 2.29687,8.66406 0,0.62891 -0.0312,1.33594 -0.0898,2.11328"
       id="path844" />
    <path
       style="fill:#66a8b8;fill-opacity:1;fill-rule:nonzero;stroke:none"
       d="m 148.39453,202.94922 c 1.0625,1.24219 1.59766,2.96094 1.59766,5.15234 v 17.23438 h -4.05078 v -16.74219 c 0,-1.52734 -0.25782,-2.62891 -0.76563,-3.30469 -0.51172,-0.67578 -1.28906,-1.01172 -2.33984,-1.01172 -1.98047,0 -3.78125,1.41016 -5.39844,4.23047 v 16.82813 h -4.05078 v -23.67188 h 3.50781 l 0.31641,3.51172 c 1.82812,-2.73047 4.07812,-4.09375 6.75,-4.09375 1.89062,0 3.36718,0.62109 4.43359,1.86719"
       id="path846" />
    <path
       style="fill:#66a8b8;fill-opacity:1;fill-rule:nonzero;stroke:none"
       d="m 167.98828,224.30078 c -1.5,1.08203 -3.16406,1.62109 -4.99219,1.62109 -1.92187,0 -3.39843,-0.55859 -4.43359,-1.66406 -1.03516,-1.11328 -1.55078,-2.67187 -1.55078,-4.68359 v -14.84766 h -3.375 v -3.0625 h 3.375 v -5.44531 l 4.04687,-0.49219 v 5.9375 h 5.21875 l -0.44922,3.0625 h -4.76953 v 14.80469 c 0,2.03906 0.85547,3.05859 2.56641,3.05859 0.51172,0 0.98047,-0.0742 1.41797,-0.22265 0.43359,-0.15235 0.92187,-0.375 1.46094,-0.67578 l 1.48437,2.60937"
       id="path848" />
    <path
       style="fill:#66a8b8;fill-opacity:1;fill-rule:nonzero;stroke:none"
       d="m 183.19922,211.56641 c 0,-4.94922 -1.63672,-7.42579 -4.90235,-7.42579 -1.5,0 -2.6875,0.6211 -3.55859,1.86719 -0.86719,1.2461 -1.36328,3.26172 -1.48437,6.05078 h 9.94531 z m 3.82422,3.32812 h -13.76953 c 0.12109,2.76172 0.67578,4.75 1.66796,5.96484 0.98829,1.21485 2.33985,1.82032 4.05079,1.82032 1.07812,0 2.04687,-0.16407 2.89843,-0.4961 0.85547,-0.32812 1.75,-0.86718 2.67969,-1.61718 l 1.80078,2.38281 c -2.22265,1.98047 -4.74219,2.97265 -7.5625,2.97265 -3.08984,0 -5.48047,-1.07421 -7.17578,-3.21875 -1.69531,-2.14453 -2.54297,-5.15234 -2.54297,-9.02343 0,-3.8711 0.8086,-6.9375 2.42969,-9.20313 1.62109,-2.26172 3.87109,-3.39453 6.75,-3.39453 2.85156,0 5.03906,1.01172 6.57031,3.03516 1.53125,2.02734 2.29297,4.91406 2.29297,8.66406 0,0.62891 -0.0273,1.33594 -0.0898,2.11328"
       id="path850" />
    <path
       style="fill:#66a8b8;fill-opacity:1;fill-rule:nonzero;stroke:none"
       d="m 204.16797,201.39453 -0.67578,3.91406 c -0.56641,-0.17578 -1.1836,-0.26953 -1.84375,-0.26953 -1.32032,0 -2.39063,0.52735 -3.21485,1.57813 -0.82812,1.04687 -1.48047,2.65234 -1.95703,4.8125 v 13.90625 h -4.05078 v -23.67188 h 3.50781 l 0.31641,4.67969 c 1.16797,-3.47656 3.13281,-5.21875 5.89453,-5.21875 0.78125,0 1.45313,0.0898 2.02344,0.26953"
       id="path852" />
    <path
       style="fill:#66a8b8;fill-opacity:1;fill-rule:nonzero;stroke:none"
       d="m 223.35937,195.63672 c -0.52343,0.53906 -0.78515,1.3789 -0.78515,2.51953 v 3.50781 h 5.30859 l -0.44922,3.0625 h -4.85937 v 20.60938 h -4.05078 v -20.60938 h -3.50782 v -3.0625 h 3.50782 v -3.46484 c 0,-1.98047 0.60937,-3.56641 1.82422,-4.76953 1.21484,-1.19922 2.90234,-1.79688 5.0625,-1.79688 1.80078,0 3.57031,0.4336 5.30859,1.30078 l -1.21484,2.79297 c -1.23047,-0.60156 -2.46094,-0.90234 -3.69141,-0.90234 -1.10938,0 -1.92578,0.26953 -2.45313,0.8125"
       id="path854" />
    <path
       style="fill:#66a8b8;fill-opacity:1;fill-rule:nonzero;stroke:none"
       d="m 235.26562,206.55078 c -0.93359,1.48047 -1.39843,3.80078 -1.39843,6.94922 0,6.15234 1.80078,9.22656 5.40234,9.22656 3.59766,0 5.39844,-3.08984 5.39844,-9.26953 0,-3.15234 -0.44922,-5.46094 -1.35156,-6.92969 -0.89844,-1.47265 -2.23438,-2.20703 -4.00391,-2.20703 -1.76953,0 -3.12109,0.74219 -4.04688,2.23047 z m 11.11329,-2.27344 c 1.67968,2.12891 2.51953,5.19141 2.51953,9.17969 0,3.83984 -0.85547,6.87891 -2.5625,9.10938 -1.71094,2.23828 -4.06641,3.35546 -7.06641,3.35546 -3.03125,0 -5.39453,-1.09765 -7.08984,-3.28515 -1.69532,-2.19141 -2.53907,-5.23438 -2.53907,-9.13672 0,-3.92969 0.85157,-6.98047 2.5625,-9.15625 1.71094,-2.17578 4.07813,-3.26172 7.10938,-3.26172 3.03125,0 5.38672,1.0625 7.06641,3.19531"
       id="path856" />
    <path
       style="fill:#66a8b8;fill-opacity:1;fill-rule:nonzero;stroke:none"
       d="m 266.17578,201.39453 -0.67187,3.91406 c -0.57032,-0.17578 -1.1875,-0.26953 -1.84766,-0.26953 -1.32031,0 -2.39063,0.52735 -3.21875,1.57813 -0.82422,1.04687 -1.47656,2.65234 -1.95703,4.8125 v 13.90625 h -4.04688 v -23.67188 h 3.50782 l 0.3164,4.67969 c 1.16797,-3.47656 3.13281,-5.21875 5.89453,-5.21875 0.78125,0 1.45313,0.0898 2.02344,0.26953"
       id="path858" />
    <path
       style="fill:#66a8b8;fill-opacity:1;fill-rule:nonzero;stroke:none"
       d="m 292.63672,207.53906 c 1.05078,-0.94531 1.57422,-2.42187 1.57422,-4.43359 0,-1.89063 -0.53125,-3.28516 -1.59766,-4.1836 -1.0625,-0.90234 -2.79687,-1.35156 -5.19531,-1.35156 h -2.97266 v 11.38672 h 3.375 c 2.16016,0 3.76563,-0.47266 4.81641,-1.41797 z m 2.83594,17.79688 -6.66016,-13.1836 h -4.36719 v 13.1836 h -4.18359 V 194.375 h 7.24609 c 7.37891,0 11.06641,2.91016 11.06641,8.73047 0,2.03906 -0.49219,3.76562 -1.48047,5.17578 -0.99219,1.41016 -2.44922,2.44531 -4.36719,3.10547 l 7.37891,13.94922 h -4.63281"
       id="path860" />
    <path
       style="fill:#66a8b8;fill-opacity:1;fill-rule:nonzero;stroke:none"
       d="m 316.30859,211.56641 c 0,-4.94922 -1.63672,-7.42579 -4.90625,-7.42579 -1.5,0 -2.68359,0.6211 -3.55468,1.86719 -0.8711,1.2461 -1.36719,3.26172 -1.48829,6.05078 h 9.94922 z m 3.82422,3.32812 h -13.77344 c 0.1211,2.76172 0.67579,4.75 1.66797,5.96484 0.98828,1.21485 2.33985,1.82032 4.05078,1.82032 1.07813,0 2.04688,-0.16407 2.90235,-0.4961 0.85547,-0.32812 1.74609,-0.86718 2.67578,-1.61718 l 1.80078,2.38281 c -2.22266,1.98047 -4.74219,2.97265 -7.5625,2.97265 -3.08594,0 -5.48047,-1.07421 -7.17578,-3.21875 -1.69531,-2.14453 -2.54297,-5.15234 -2.54297,-9.02343 0,-3.8711 0.80859,-6.9375 2.42969,-9.20313 1.62109,-2.26172 3.87109,-3.39453 6.75,-3.39453 2.85156,0 5.03906,1.01172 6.57031,3.03516 1.53125,2.02734 2.29688,4.91406 2.29688,8.66406 0,0.62891 -0.0312,1.33594 -0.0899,2.11328"
       id="path862" />
    <path
       style="fill:#66a8b8;fill-opacity:1;fill-rule:nonzero;stroke:none"
       d="m 338.94141,203.78125 -1.71094,2.38281 c -0.96094,-0.65625 -1.85938,-1.15234 -2.69922,-1.48437 -0.83984,-0.32813 -1.72266,-0.4961 -2.65234,-0.4961 -1.23438,0 -2.19922,0.29297 -2.90235,0.87891 -0.70703,0.58594 -1.05859,1.38672 -1.05859,2.40625 0,0.99219 0.33594,1.77344 1.01172,2.33984 0.67578,0.57422 1.95703,1.15625 3.84765,1.75782 2.36719,0.75 4.09375,1.66406 5.17578,2.74218 1.07813,1.08203 1.61719,2.56641 1.61719,4.45703 0,2.21875 -0.80859,3.96875 -2.42969,5.24219 -1.62109,1.27735 -3.64453,1.91406 -6.07421,1.91406 -3.21094,0 -5.92579,-1.0664 -8.14454,-3.19531 l 2.07032,-2.25 c 1.89062,1.53125 3.88672,2.29297 5.98437,2.29297 1.32031,0 2.38281,-0.32812 3.19531,-0.98828 0.8086,-0.66016 1.21485,-1.57422 1.21485,-2.74609 0,-0.83985 -0.14453,-1.51563 -0.42578,-2.02344 -0.28516,-0.51172 -0.79688,-0.96875 -1.53125,-1.375 -0.73828,-0.40235 -1.8086,-0.83203 -3.21875,-1.28125 -2.25,-0.75 -3.86719,-1.64844 -4.85938,-2.69922 -0.99219,-1.05078 -1.48437,-2.38672 -1.48437,-4.00391 0,-1.26172 0.32812,-2.38672 0.98828,-3.375 0.66015,-0.99218 1.57812,-1.76953 2.74609,-2.34375 1.16797,-0.5664 2.51953,-0.85156 4.05078,-0.85156 2.73047,0 5.16016,0.89844 7.28907,2.69922"
       id="path864" />
    <path
       style="fill:#66a8b8;fill-opacity:1;fill-rule:nonzero;stroke:none"
       d="m 358.19922,213.45703 c 0,-3.21094 -0.38281,-5.54297 -1.14453,-7 -0.76563,-1.45312 -1.92969,-2.17969 -3.48828,-2.17969 -1.05079,0 -1.98047,0.3125 -2.78907,0.94141 -0.8125,0.63281 -1.57812,1.48828 -2.29687,2.56641 v 11.97265 c 1.23047,1.94922 2.80469,2.92188 4.72656,2.92188 3.32813,0 4.99219,-3.07422 4.99219,-9.22266 z m 2.27344,-9.17969 c 1.30468,2.12891 1.95703,5.17188 1.95703,9.13282 0,3.83984 -0.72657,6.88671 -2.17969,9.13671 -1.45703,2.25 -3.48828,3.375 -6.09766,3.375 -2.33984,0 -4.23047,-0.94531 -5.67187,-2.83593 v 11.25 l -4.05078,0.49609 v -33.16797 h 3.55468 l 0.22657,3.19531 c 1.62109,-2.51953 3.76562,-3.77734 6.43359,-3.77734 2.58203,0 4.52344,1.0625 5.82813,3.19531"
       id="path866" />
    <path
       style="fill:#66a8b8;fill-opacity:1;fill-rule:nonzero;stroke:none"
       d="m 372.24219,206.55078 c -0.92969,1.48047 -1.39453,3.80078 -1.39453,6.94922 0,6.15234 1.79687,9.22656 5.39843,9.22656 3.60157,0 5.39844,-3.08984 5.39844,-9.26953 0,-3.15234 -0.44922,-5.46094 -1.34766,-6.92969 -0.90234,-1.47265 -2.23437,-2.20703 -4.00781,-2.20703 -1.76953,0 -3.11719,0.74219 -4.04687,2.23047 z m 11.11328,-2.27344 c 1.67969,2.12891 2.51953,5.19141 2.51953,9.17969 0,3.83984 -0.85547,6.87891 -2.5625,9.10938 -1.71094,2.23828 -4.06641,3.35546 -7.06641,3.35546 -3.03125,0 -5.39062,-1.09765 -7.08984,-3.28515 -1.69141,-2.19141 -2.53906,-5.23438 -2.53906,-9.13672 0,-3.92969 0.85547,-6.98047 2.5625,-9.15625 1.71093,-2.17578 4.08203,-3.26172 7.10937,-3.26172 3.03125,0 5.38672,1.0625 7.06641,3.19531"
       id="path868" />
    <path
       style="fill:#66a8b8;fill-opacity:1;fill-rule:nonzero;stroke:none"
       d="m 406.41797,202.94922 c 1.0625,1.24219 1.59765,2.96094 1.59765,5.15234 v 17.23438 h -4.05078 v -16.74219 c 0,-1.52734 -0.2539,-2.62891 -0.76562,-3.30469 -0.51172,-0.67578 -1.28906,-1.01172 -2.33985,-1.01172 -1.98046,0 -3.78125,1.41016 -5.39843,4.23047 v 16.82813 h -4.05078 v -23.67188 h 3.51171 l 0.3125,3.51172 c 1.82813,-2.73047 4.07813,-4.09375 6.75,-4.09375 1.89063,0 3.36719,0.62109 4.4336,1.86719"
       id="path870" />
    <path
       style="fill:#66a8b8;fill-opacity:1;fill-rule:nonzero;stroke:none"
       d="m 428.21875,203.78125 -1.71094,2.38281 c -0.95703,-0.65625 -1.85937,-1.15234 -2.69922,-1.48437 -0.83984,-0.32813 -1.72265,-0.4961 -2.65625,-0.4961 -1.22656,0 -2.19531,0.29297 -2.89843,0.87891 -0.70704,0.58594 -1.0586,1.38672 -1.0586,2.40625 0,0.99219 0.33594,1.77344 1.01172,2.33984 0.67578,0.57422 1.95703,1.15625 3.84766,1.75782 2.37109,0.75 4.09375,1.66406 5.17578,2.74218 1.07812,1.08203 1.61719,2.56641 1.61719,4.45703 0,2.21875 -0.8086,3.96875 -2.42969,5.24219 -1.61719,1.27735 -3.64453,1.91406 -6.07422,1.91406 -3.21094,0 -5.92578,-1.0664 -8.14453,-3.19531 l 2.07031,-2.25 c 1.89063,1.53125 3.88281,2.29297 5.98438,2.29297 1.32031,0 2.38671,-0.32812 3.19531,-0.98828 0.80859,-0.66016 1.21484,-1.57422 1.21484,-2.74609 0,-0.83985 -0.14453,-1.51563 -0.42969,-2.02344 -0.28515,-0.51172 -0.79296,-0.96875 -1.52734,-1.375 -0.73437,-0.40235 -1.80859,-0.83203 -3.21875,-1.28125 -2.25,-0.75 -3.87109,-1.64844 -4.85937,-2.69922 -0.98829,-1.05078 -1.48438,-2.38672 -1.48438,-4.00391 0,-1.26172 0.32813,-2.38672 0.98828,-3.375 0.66016,-0.99218 1.57813,-1.76953 2.7461,-2.34375 1.17187,-0.5664 2.51953,-0.85156 4.05078,-0.85156 2.72656,0 5.16015,0.89844 7.28906,2.69922"
       id="path872" />
    <path
       style="fill:#66a8b8;fill-opacity:1;fill-rule:nonzero;stroke:none"
       d="m 433.71094,201.66406 h 4.05078 v 23.67188 h -4.05078 z m 3.93359,-10.39453 c 0.49609,0.51172 0.74609,1.14063 0.74609,1.89063 0,0.75 -0.24218,1.37109 -0.71875,1.86718 -0.48437,0.4961 -1.125,0.74219 -1.9375,0.74219 -0.78125,0 -1.41796,-0.24609 -1.91406,-0.74219 -0.49219,-0.49609 -0.74219,-1.11718 -0.74219,-1.86718 0,-0.75 0.25,-1.37891 0.74219,-1.89063 0.4961,-0.50781 1.13281,-0.76172 1.91406,-0.76172 0.78125,0 1.41797,0.25391 1.91016,0.76172"
       id="path874" />
    <path
       style="fill:#66a8b8;fill-opacity:1;fill-rule:nonzero;stroke:none"
       d="m 458.50391,213.45703 c 0,-3.33203 -0.40625,-5.69531 -1.21485,-7.08984 -0.80859,-1.39453 -1.96484,-2.08985 -3.46484,-2.08985 -1.05078,0 -1.97266,0.3125 -2.76563,0.94141 -0.79687,0.63281 -1.55468,1.51562 -2.27343,2.65625 v 11.74609 c 0.57031,0.92969 1.25781,1.67969 2.07031,2.25 0.80859,0.57032 1.69531,0.85547 2.65234,0.85547 3.33203,0 4.9961,-3.08984 4.9961,-9.26953 z m 2.18359,-9.20312 c 1.36328,2.11328 2.04687,5.18359 2.04687,9.20312 0,3.83984 -0.74218,6.87891 -2.22656,9.10938 -1.48828,2.23828 -3.5039,3.35546 -6.05469,3.35546 -1.19921,0 -2.29296,-0.27734 -3.28515,-0.83203 -0.98828,-0.55859 -1.84375,-1.34375 -2.5625,-2.36328 l -0.26953,2.60938 h -3.60157 V 192.125 l 4.05079,-0.44922 v 12.87109 c 0.74609,-1.08203 1.64062,-1.92968 2.67578,-2.54296 1.03515,-0.61719 2.18359,-0.92188 3.4414,-0.92188 2.49219,0 4.41797,1.05469 5.78516,3.17188"
       id="path876" />
    <path
       style="fill:#66a8b8;fill-opacity:1;fill-rule:nonzero;stroke:none"
       d="m 469.39453,224.61719 c -0.83984,-0.8711 -1.26172,-2.08594 -1.26172,-3.64844 v -28.88672 l 4.05078,-0.44922 v 29.20313 c 0,1.17187 0.48047,1.7539 1.44141,1.7539 0.39062,0 0.82422,-0.0898 1.30469,-0.26953 l 0.89843,2.83594 c -0.96093,0.50781 -1.96484,0.76562 -3.01562,0.76562 -1.4375,0 -2.57813,-0.4375 -3.41797,-1.30468"
       id="path878" />
    <path
       style="fill:#66a8b8;fill-opacity:1;fill-rule:nonzero;stroke:none"
       d="m 492.39062,211.56641 c 0,-4.94922 -1.63671,-7.42579 -4.90625,-7.42579 -1.5,0 -2.68359,0.6211 -3.55468,1.86719 -0.8711,1.2461 -1.36719,3.26172 -1.48828,6.05078 h 9.94921 z m 3.82422,3.32812 h -13.77343 c 0.12109,2.76172 0.67578,4.75 1.66796,5.96484 0.98829,1.21485 2.33985,1.82032 4.05079,1.82032 1.07812,0 2.04687,-0.16407 2.90234,-0.4961 0.85156,-0.32812 1.74609,-0.86718 2.67578,-1.61718 l 1.80078,2.38281 c -2.22265,1.98047 -4.74219,2.97265 -7.55859,2.97265 -3.08985,0 -5.48438,-1.07421 -7.17969,-3.21875 -1.69531,-2.14453 -2.54297,-5.15234 -2.54297,-9.02343 0,-3.8711 0.8086,-6.9375 2.42969,-9.20313 1.62109,-2.26172 3.87109,-3.39453 6.75,-3.39453 2.85156,0 5.04297,1.01172 6.57031,3.03516 1.53125,2.02734 2.29688,4.91406 2.29688,8.66406 0,0.62891 -0.0312,1.33594 -0.0899,2.11328"
       id="path880" />
    <path
       style="fill:#66a8b8;fill-opacity:1;fill-rule:nonzero;stroke:none"
       d="m 524.42969,207.53906 c 1.04687,-0.94531 1.57422,-2.42187 1.57422,-4.43359 0,-1.89063 -0.53516,-3.28516 -1.59766,-4.1836 -1.06641,-0.90234 -2.80078,-1.35156 -5.19922,-1.35156 h -2.96875 v 11.38672 h 3.375 c 2.16016,0 3.76563,-0.47266 4.81641,-1.41797 z m 2.83203,17.79688 -6.66016,-13.1836 h -4.36328 v 13.1836 h -4.18359 V 194.375 h 7.24218 c 7.38282,0 11.07032,2.91016 11.07032,8.73047 0,2.03906 -0.4961,3.76562 -1.48438,5.17578 -0.98828,1.41016 -2.44531,2.44531 -4.36328,3.10547 l 7.37891,13.94922 h -4.63672"
       id="path882" />
    <path
       style="fill:#66a8b8;fill-opacity:1;fill-rule:nonzero;stroke:none"
       d="m 548.09766,211.56641 c 0,-4.94922 -1.63282,-7.42579 -4.90625,-7.42579 -1.5,0 -2.6836,0.6211 -3.55079,1.86719 -0.87109,1.2461 -1.36718,3.26172 -1.48828,6.05078 h 9.94532 z m 3.82812,3.32812 h -13.77344 c 0.1211,2.76172 0.67578,4.75 1.66407,5.96484 0.99218,1.21485 2.33984,1.82032 4.05078,1.82032 1.08203,0 2.04687,-0.16407 2.90234,-0.4961 0.85547,-0.32812 1.75,-0.86718 2.67969,-1.61718 l 1.80078,2.38281 c -2.22266,1.98047 -4.74219,2.97265 -7.5625,2.97265 -3.08984,0 -5.48047,-1.07421 -7.17578,-3.21875 -1.69531,-2.14453 -2.54297,-5.15234 -2.54297,-9.02343 0,-3.8711 0.80859,-6.9375 2.42969,-9.20313 1.62109,-2.26172 3.87109,-3.39453 6.75,-3.39453 2.84765,0 5.03906,1.01172 6.57031,3.03516 1.53125,2.02734 2.29687,4.91406 2.29687,8.66406 0,0.62891 -0.0312,1.33594 -0.0898,2.11328"
       id="path884" />
    <path
       style="fill:#66a8b8;fill-opacity:1;fill-rule:nonzero;stroke:none"
       d="m 570.73047,203.78125 -1.70703,2.38281 c -0.96094,-0.65625 -1.86328,-1.15234 -2.70313,-1.48437 -0.83984,-0.32813 -1.72265,-0.4961 -2.65234,-0.4961 -1.23047,0 -2.19922,0.29297 -2.90235,0.87891 -0.70703,0.58594 -1.05859,1.38672 -1.05859,2.40625 0,0.99219 0.33984,1.77344 1.01563,2.33984 0.67187,0.57422 1.95703,1.15625 3.84375,1.75782 2.37109,0.75 4.09765,1.66406 5.17578,2.74218 1.07812,1.08203 1.62109,2.56641 1.62109,4.45703 0,2.21875 -0.80859,3.96875 -2.42969,5.24219 -1.62109,1.27735 -3.64453,1.91406 -6.07812,1.91406 -3.20703,0 -5.92188,-1.0664 -8.14063,-3.19531 l 2.06641,-2.25 c 1.89062,1.53125 3.88672,2.29297 5.98828,2.29297 1.32031,0 2.38281,-0.32812 3.19531,-0.98828 0.8086,-0.66016 1.21485,-1.57422 1.21485,-2.74609 0,-0.83985 -0.14453,-1.51563 -0.42969,-2.02344 -0.28516,-0.51172 -0.79688,-0.96875 -1.52734,-1.375 -0.73829,-0.40235 -1.8125,-0.83203 -3.21875,-1.28125 -2.25,-0.75 -3.8711,-1.64844 -4.85938,-2.69922 -0.99219,-1.05078 -1.48828,-2.38672 -1.48828,-4.00391 0,-1.26172 0.33203,-2.38672 0.99219,-3.375 0.66015,-0.99218 1.57422,-1.76953 2.74609,-2.34375 1.16797,-0.5664 2.51953,-0.85156 4.04688,-0.85156 2.73046,0 5.16015,0.89844 7.28906,2.69922"
       id="path886" />
    <path
       style="fill:#66a8b8;fill-opacity:1;fill-rule:nonzero;stroke:none"
       d="m 588.91016,211.56641 c 0,-4.94922 -1.63282,-7.42579 -4.90235,-7.42579 -1.5,0 -2.6875,0.6211 -3.55469,1.86719 -0.87109,1.2461 -1.36718,3.26172 -1.48437,6.05078 h 9.94141 z m 3.82812,3.32812 h -13.76953 c 0.11719,2.76172 0.67578,4.75 1.66406,5.96484 0.98828,1.21485 2.33985,1.82032 4.05078,1.82032 1.07813,0 2.04688,-0.16407 2.90235,-0.4961 0.85156,-0.32812 1.74609,-0.86718 2.67578,-1.61718 l 1.80078,2.38281 c -2.21875,1.98047 -4.74219,2.97265 -7.55859,2.97265 -3.09375,0 -5.48438,-1.07421 -7.17969,-3.21875 -1.69531,-2.14453 -2.54297,-5.15234 -2.54297,-9.02343 0,-3.8711 0.8125,-6.9375 2.42969,-9.20313 1.62109,-2.26172 3.87109,-3.39453 6.75,-3.39453 2.85156,0 5.04297,1.01172 6.57031,3.03516 1.53125,2.02734 2.29687,4.91406 2.29687,8.66406 0,0.62891 -0.0312,1.33594 -0.0898,2.11328"
       id="path888" />
    <path
       style="fill:#66a8b8;fill-opacity:1;fill-rule:nonzero;stroke:none"
       d="m 608.48828,219.17187 v -5.58203 h -2.60937 c -3.90235,0 -5.85157,1.63672 -5.85157,4.90625 0,1.41016 0.31641,2.48828 0.94532,3.23828 0.6289,0.75 1.53125,1.125 2.69921,1.125 2.10157,0 3.70704,-1.22656 4.81641,-3.6875 z m 4.41016,2.90235 c 0.26953,0.46484 0.6914,0.8164 1.25781,1.05859 l -0.85156,2.74219 c -1.17188,-0.17969 -2.08594,-0.53906 -2.7461,-1.07813 -0.66015,-0.53906 -1.125,-1.36718 -1.39453,-2.47656 -1.53125,2.40235 -3.67578,3.60156 -6.4375,3.60156 -2.09765,0 -3.76172,-0.65234 -4.99609,-1.95703 -1.22656,-1.30859 -1.84375,-3.05468 -1.84375,-5.24609 0,-2.51953 0.82812,-4.4375 2.47656,-5.75781 1.64844,-1.32032 4.00391,-1.98047 7.06641,-1.98047 h 3.05859 v -2.02344 c 0,-1.65234 -0.33984,-2.84375 -1.01172,-3.57812 -0.67578,-0.73438 -1.77734,-1.10157 -3.30859,-1.10157 -1.64844,0 -3.57031,0.41797 -5.76172,1.25782 l -0.98828,-2.83594 c 2.64062,-1.07813 5.10156,-1.61719 7.3789,-1.61719 5.13282,0 7.69532,2.5625 7.69532,7.69531 v 11.15625 c 0,0.96094 0.13672,1.67578 0.40625,2.14063"
       id="path890" />
    <path
       style="fill:#66a8b8;fill-opacity:1;fill-rule:nonzero;stroke:none"
       d="m 631.21094,201.39453 -0.67578,3.91406 c -0.56641,-0.17578 -1.1836,-0.26953 -1.84375,-0.26953 -1.32032,0 -2.39063,0.52735 -3.21485,1.57813 -0.82812,1.04687 -1.48047,2.65234 -1.95703,4.8125 v 13.90625 h -4.05078 v -23.67188 h 3.50781 l 0.31641,4.67969 c 1.16797,-3.47656 3.13281,-5.21875 5.89453,-5.21875 0.78125,0 1.45312,0.0898 2.02344,0.26953"
       id="path892" />
    <path
       style="fill:#66a8b8;fill-opacity:1;fill-rule:nonzero;stroke:none"
       d="m 645.29687,201.71094 c 1.05079,0.42187 2.05469,1.0664 3.01563,1.93359 l -1.80078,2.42969 c -0.71875,-0.56641 -1.4375,-0.9961 -2.16016,-1.28125 -0.71875,-0.28516 -1.5,-0.42578 -2.33984,-0.42578 -1.76953,0 -3.14063,0.75 -4.11719,2.25 -0.97266,1.5 -1.46094,3.83984 -1.46094,7.01953 0,5.9375 1.85938,8.91015 5.57813,8.91015 0.83984,0 1.60547,-0.14453 2.29687,-0.42968 0.6875,-0.28125 1.42188,-0.71094 2.20313,-1.28125 l 1.89062,2.47265 c -1.92187,1.74219 -4.09375,2.61328 -6.52343,2.61328 -3.03125,0 -5.40625,-1.05078 -7.13282,-3.15234 -1.72656,-2.09766 -2.58984,-5.12891 -2.58984,-9.08984 0,-2.57813 0.39844,-4.8125 1.19531,-6.70313 0.79297,-1.89062 1.91797,-3.34375 3.375,-4.36719 1.45313,-1.01562 3.15625,-1.52734 5.10547,-1.52734 1.26172,0 2.41406,0.20703 3.46484,0.62891"
       id="path894" />
    <path
       style="fill:#66a8b8;fill-opacity:1;fill-rule:nonzero;stroke:none"
       d="m 667.55078,202.96875 c 1.0625,1.26172 1.59766,2.97266 1.59766,5.13281 v 17.23438 h -4.05078 v -16.74219 c 0,-1.52734 -0.26172,-2.62891 -0.78907,-3.30469 -0.52343,-0.67578 -1.29687,-1.01172 -2.3164,-1.01172 -1.98047,0 -3.77735,1.41016 -5.39844,4.23047 v 16.82813 h -4.05078 V 192.125 l 4.05078,-0.44922 v 13.36328 c 0.86719,-1.28906 1.82812,-2.26953 2.87891,-2.94531 1.05078,-0.67578 2.26562,-1.01172 3.64453,-1.01172 1.89062,0 3.36718,0.62891 4.43359,1.88672"
       id="path896" />
  </g>
</svg>
