<?xml version="1.0" encoding="UTF-8" standalone="no"?>
<svg
   xmlns:dc="http://purl.org/dc/elements/1.1/"
   xmlns:cc="http://creativecommons.org/ns#"
   xmlns:rdf="http://www.w3.org/1999/02/22-rdf-syntax-ns#"
   xmlns:svg="http://www.w3.org/2000/svg"
   xmlns="http://www.w3.org/2000/svg"
   id="svg1891"
   version="1.1"
   viewBox="0 0 34.40207 20.98145"
   height="79.299965"
   width="130.02357">
  <defs
     id="defs1885" />
  <metadata
     id="metadata1888">
    <rdf:RDF>
      <cc:Work
         rdf:about="">
        <dc:format>image/svg+xml</dc:format>
        <dc:type
           rdf:resource="http://purl.org/dc/dcmitype/StillImage" />
        <dc:title></dc:title>
      </cc:Work>
    </rdf:RDF>
  </metadata>
  <g
     transform="translate(-6.2931367,-119.65781)"
     id="layer1">
    <g
       id="g1105"
       transform="matrix(0.26097325,0,0,0.26097325,25.182688,94.849133)">
      <path
         id="path1085"
         style="opacity:1;fill:#000000;stroke:none;stroke-width:8.00126;stroke-linecap:round;stroke-miterlimit:4;stroke-dasharray:none"
         d="m 101.89844,382.45508 a 98.749992,98.749992 0 0 0 -11.587893,0.78125 c -5.278064,3.1837 -11.987464,8.06131 -18.646485,15.23828 -14.240972,15.34862 -28.35574,41.2824 -28.414062,82.79492 -0.05833,41.51622 14.05242,67.45294 28.324219,82.80274 6.536608,7.03035 13.130203,11.85546 18.375,15.04296 a 98.749992,98.749992 0 0 0 11.996091,0.83008 l 0.58985,-1.75781 c 0,0 -12.942375,-4.27892 -26.199222,-18.53711 -13.256852,-14.25819 -26.64611,-38.32151 -26.589844,-78.37305 0.05628,-40.05528 13.447354,-64.12142 26.677734,-78.38086 13.23038,-14.25943 26.111332,-18.54296 26.111332,-18.54296 z"
         transform="scale(0.26458333)" />
      <path
         id="path1087"
         style="opacity:1;fill:#000000;stroke:none;stroke-width:8.00126;stroke-linecap:round;stroke-miterlimit:4;stroke-dasharray:none"
         d="m 102.75,382.44922 a 98.749992,98.749992 0 0 0 -1.64844,0.0137 l -0.63476,1.89063 c 0,0 12.94236,4.28473 26.19922,18.54296 13.25685,14.25823 26.6383,38.32147 26.58203,78.37305 -0.0563,40.05525 -13.43955,64.12146 -26.66993,78.38086 -13.23037,14.2594 -26.11132,18.54297 -26.11132,18.54297 l 0.58593,1.74219 a 98.749992,98.749992 0 0 0 1.69727,0.0137 98.749992,98.749992 0 0 0 9.66211,-0.47461 c 5.31861,-3.17666 12.14919,-8.09867 18.92578,-15.40234 14.24098,-15.34863 28.35574,-41.28245 28.41406,-82.79493 0.0583,-41.51622 -14.06023,-67.4529 -28.33203,-82.80273 -6.90894,-7.43084 -13.88339,-12.40302 -19.25586,-15.57422 A 98.749992,98.749992 0 0 0 102.75,382.44922 Z"
         transform="scale(0.26458333)" />
      <circle
         r="26.127602"
         cy="127.31726"
         cx="27.185936"
         id="circle1089"
         style="fill:none;stroke:#000000;stroke-width:1.8248997;stroke-linecap:round;stroke-miterlimit:4;stroke-dasharray:none" />
      <path
         style="fill:none;stroke:#000000;stroke-width:1.32292;stroke-linecap:butt;stroke-linejoin:miter;stroke-miterlimit:4;stroke-dasharray:none;stroke-opacity:1"
         d="M 0.39687598,127.33656 H 53.313541"
         id="path1091" />
      <path
         id="path1093"
         style="color:#000000;font-style:normal;font-variant:normal;font-weight:normal;font-stretch:normal;font-size:medium;line-height:normal;font-family:sans-serif;font-variant-ligatures:normal;font-variant-position:normal;font-variant-caps:normal;font-variant-numeric:normal;font-variant-alternates:normal;font-variant-east-asian:normal;font-feature-settings:normal;font-variation-settings:normal;text-indent:0;text-align:start;text-decoration:none;text-decoration-line:none;text-decoration-style:solid;text-decoration-color:#000000;letter-spacing:normal;word-spacing:normal;text-transform:none;writing-mode:lr-tb;direction:ltr;text-orientation:mixed;dominant-baseline:auto;baseline-shift:baseline;text-anchor:start;white-space:normal;shape-padding:0;shape-margin:0;inline-size:0;clip-rule:nonzero;display:inline;overflow:visible;visibility:visible;opacity:1;isolation:auto;mix-blend-mode:normal;color-interpolation:sRGB;color-interpolation-filters:linearRGB;solid-color:#000000;solid-opacity:1;vector-effect:none;fill:#000000;fill-opacity:1;fill-rule:nonzero;stroke:none;stroke-width:5.00001;stroke-linecap:butt;stroke-linejoin:miter;stroke-miterlimit:4;stroke-dasharray:none;stroke-dashoffset:0;stroke-opacity:1;color-rendering:auto;image-rendering:auto;shape-rendering:auto;text-rendering:auto;enable-background:accumulate;stop-color:#000000;stop-opacity:1"
         d="m 101.50195,422.45117 c -28.2974,0 -61.332358,2.86136 -81.546872,4.92774 a 98.749992,98.749992 0 0 0 -3.255859,5.375 c 19.521799,-2.05961 54.875764,-5.30469 84.802731,-5.30469 31.29364,0 68.64056,3.55633 87.45508,5.58398 a 98.749992,98.749992 0 0 0 -3.22851,-5.36914 c -19.81872,-2.07524 -54.53287,-5.21289 -84.22657,-5.21289 z"
         transform="scale(0.26458333)" />
      <path
         id="path1095"
         style="color:#000000;font-style:normal;font-variant:normal;font-weight:normal;font-stretch:normal;font-size:medium;line-height:normal;font-family:sans-serif;font-variant-ligatures:normal;font-variant-position:normal;font-variant-caps:normal;font-variant-numeric:normal;font-variant-alternates:normal;font-variant-east-asian:normal;font-feature-settings:normal;font-variation-settings:normal;text-indent:0;text-align:start;text-decoration:none;text-decoration-line:none;text-decoration-style:solid;text-decoration-color:#000000;letter-spacing:normal;word-spacing:normal;text-transform:none;writing-mode:lr-tb;direction:ltr;text-orientation:mixed;dominant-baseline:auto;baseline-shift:baseline;text-anchor:start;white-space:normal;shape-padding:0;shape-margin:0;inline-size:0;clip-rule:nonzero;display:inline;overflow:visible;visibility:visible;opacity:1;isolation:auto;mix-blend-mode:normal;color-interpolation:sRGB;color-interpolation-filters:linearRGB;solid-color:#000000;solid-opacity:1;vector-effect:none;fill:#000000;fill-opacity:1;fill-rule:nonzero;stroke:none;stroke-width:5.00001;stroke-linecap:butt;stroke-linejoin:miter;stroke-miterlimit:4;stroke-dasharray:none;stroke-dashoffset:0;stroke-opacity:1;color-rendering:auto;image-rendering:auto;shape-rendering:auto;text-rendering:auto;enable-background:accumulate;stop-color:#000000;stop-opacity:1"
         d="m 189.16602,528.98828 c -18.50729,1.26272 -55.25539,3.46094 -87.66407,3.46094 -30.996399,0 -65.865368,-2.00775 -85.072262,-3.28906 a 98.749992,98.749992 0 0 0 3.117187,5.22461 c 19.855139,1.28094 52.648283,3.06054 81.955075,3.06054 30.73762,0 65.12606,-1.95063 84.5625,-3.23633 a 98.749992,98.749992 0 0 0 3.10157,-5.2207 z"
         transform="scale(0.26458333)" />
      <path
         style="fill:none;stroke:#000000;stroke-width:1.85208;stroke-linecap:butt;stroke-linejoin:miter;stroke-miterlimit:4;stroke-dasharray:none;stroke-opacity:1"
         d="m 26.855209,100.87823 v 26.45833 26.45833"
         id="path1097" />
      <ellipse
         ry="5.6885424"
         rx="5.68854"
         cy="113.75737"
         cx="26.855209"
         id="ellipse1099"
         style="fill:#d61d7e;fill-opacity:1;stroke:#ffffff;stroke-width:1.32293;stroke-linecap:round;stroke-miterlimit:4;stroke-dasharray:none" />
      <circle
         style="fill:#d61d7e;fill-opacity:1;stroke:#ffffff;stroke-width:1.32292;stroke-linecap:round;stroke-miterlimit:4;stroke-dasharray:none"
         id="circle1101"
         cx="12.367734"
         cy="127.31726"
         r="4.6302085" />
      <circle
         r="5.1593752"
         cy="140.42737"
         cx="39.051998"
         id="circle1103"
         style="fill:#d61d7e;fill-opacity:1;stroke:#ffffff;stroke-width:1.32292;stroke-linecap:round;stroke-miterlimit:4;stroke-dasharray:none" />
    </g>
    <path
       id="path1850"
       style="font-style:normal;font-variant:normal;font-weight:bold;font-stretch:normal;font-size:50.8px;line-height:1.25;font-family:Inter;-inkscape-font-specification:'Inter Bold';text-align:center;text-anchor:middle;fill:#000000;fill-opacity:1;stroke:none;stroke-width:0.0690491"
       d="m 6.302642,132.89642 h 2.03852 v -3.41794 h 1.487696 l 1.826664,3.41794 h 2.250375 l -2.047936,-3.74749 c 1.096941,-0.47079 1.70426,-1.42649 1.70426,-2.7447 0,-1.91612 -1.266425,-3.14958 -3.455596,-3.14958 H 6.302642 Z m 2.03852,-5.05628 v -2.9189 h 1.374707 c 1.176974,0 1.746629,0.52258 1.746629,1.48299 0,0.9557 -0.569655,1.43591 -1.737213,1.43591 z" />
    <path
       id="path1852"
       style="font-style:normal;font-variant:normal;font-weight:bold;font-stretch:normal;font-size:50.8px;line-height:1.25;font-family:Inter;-inkscape-font-specification:'Inter Bold';text-align:center;text-anchor:middle;fill:#000000;fill-opacity:1;stroke:none;stroke-width:0.0690491"
       d="m 23.481762,123.25465 h -2.029103 v 6.06377 h -0.08474 l -4.161782,-6.06377 h -1.789003 v 9.64177 h 2.038519 v -6.06848 h 0.07062 l 4.194738,6.06848 h 1.760752 z" />
    <g
       aria-label="DE"
       id="text708"
       style="font-style:normal;font-weight:normal;font-size:6.35px;line-height:1.25;font-family:sans-serif;fill:#d61d7e;fill-opacity:1;stroke:none;stroke-width:0.264583">
      <path
         d="m 7.9302461,139.31635 c 1.4071022,0 2.2594819,-0.87042 2.2594819,-2.31361 0,-1.43867 -0.8523797,-2.30458 -2.2459521,-2.30458 H 6.2931367 v 4.61819 z m -0.6607067,-0.8366 v -2.94499 h 0.6223721 c 0.8659091,0 1.3236683,0.44197 1.3236683,1.46798 0,1.03053 -0.4577592,1.47701 -1.3259232,1.47701 z"
         style="font-style:normal;font-variant:normal;font-weight:bold;font-stretch:normal;font-size:6.35px;font-family:Inter;-inkscape-font-specification:'Inter Bold';fill:#d61d7e;fill-opacity:1;stroke-width:0.264583"
         id="path915" />
      <path
         d="m 10.906808,139.31635 h 3.120881 v -0.80503 h -2.144478 v -1.10268 h 1.975355 v -0.80503 h -1.975355 v -1.10042 h 2.135458 v -0.80503 h -3.111861 z"
         style="font-style:normal;font-variant:normal;font-weight:bold;font-stretch:normal;font-size:6.35px;font-family:Inter;-inkscape-font-specification:'Inter Bold';fill:#d61d7e;fill-opacity:1;stroke-width:0.264583"
         id="path917" />
    </g>
    <g
       aria-label="Reproducibility Network"
       id="text33"
       style="font-style:normal;font-variant:normal;font-weight:normal;font-stretch:normal;font-size:2.29306px;line-height:1.2;font-family:'Source Sans 3';-inkscape-font-specification:'Source Sans 3, ';stroke-width:0.264583">
      <path
         d="m 15.499486,139.31635 h 0.190323 v -0.63518 h 0.272874 l 0.362303,0.63518 h 0.215547 l -0.38294,-0.65582 c 0.206375,-0.0504 0.339372,-0.19262 0.339372,-0.42651 0,-0.31185 -0.220133,-0.42192 -0.527403,-0.42192 h -0.470076 z m 0.190323,-0.79111 v -0.5595 h 0.252237 c 0.233891,0 0.364595,0.0711 0.364595,0.26828 0,0.19491 -0.130704,0.29122 -0.364595,0.29122 z"
         style="font-style:normal;font-variant:normal;font-weight:normal;font-stretch:normal;font-size:2.29306px;font-family:'Source Sans 3';-inkscape-font-specification:'Source Sans 3, ';stroke-width:0.264583"
         id="path857" />
      <path
         d="m 17.18395,138.32804 c 0.171979,0 0.270581,0.11694 0.270581,0.33249 h -0.580143 c 0.02981,-0.23848 0.171979,-0.33249 0.309562,-0.33249 z m 0.02981,1.01582 c 0.151342,0 0.27058,-0.0481 0.369182,-0.11465 l -0.06879,-0.12383 c -0.07796,0.0527 -0.171979,0.0849 -0.27746,0.0849 -0.18803,0 -0.348544,-0.13071 -0.366888,-0.38065 h 0.745243 c 0.0069,-0.0367 0.0092,-0.0734 0.0092,-0.11236 0,-0.31644 -0.155928,-0.52282 -0.44256,-0.52282 -0.256822,0 -0.504472,0.22243 -0.504472,0.58473 0,0.36918 0.236185,0.58473 0.536575,0.58473 z"
         style="font-style:normal;font-variant:normal;font-weight:normal;font-stretch:normal;font-size:2.29306px;font-family:'Source Sans 3';-inkscape-font-specification:'Source Sans 3, ';stroke-width:0.264583"
         id="path859" />
      <path
         d="m 17.899598,139.78642 h 0.188031 v -0.37606 l -0.0046,-0.19491 c 0.103187,0.0803 0.206375,0.12841 0.309562,0.12841 0.25453,0 0.481542,-0.22242 0.481542,-0.60078 0,-0.34625 -0.153635,-0.56868 -0.440267,-0.56868 -0.130704,0 -0.254529,0.0711 -0.355423,0.15593 h -0.0069 l -0.01605,-0.12841 h -0.155928 z m 0.460905,-0.60078 c -0.07338,0 -0.17198,-0.0321 -0.272874,-0.11694 v -0.58473 c 0.110067,-0.0986 0.204082,-0.15135 0.298097,-0.15135 0.210961,0 0.293511,0.1651 0.293511,0.41046 0,0.27517 -0.13529,0.44256 -0.318734,0.44256 z"
         style="font-style:normal;font-variant:normal;font-weight:normal;font-stretch:normal;font-size:2.29306px;font-family:'Source Sans 3';-inkscape-font-specification:'Source Sans 3, ';stroke-width:0.264583"
         id="path861" />
      <path
         d="m 19.171528,139.31635 h 0.18803 v -0.71544 c 0.07567,-0.18803 0.188031,-0.25682 0.282046,-0.25682 0.04586,0 0.06879,0.005 0.103188,0.0138 l 0.04127,-0.16052 c -0.03669,-0.0161 -0.07109,-0.0229 -0.119239,-0.0229 -0.126118,0 -0.240771,0.0894 -0.316442,0.22931 h -0.0069 l -0.01605,-0.20179 h -0.155927 z"
         style="font-style:normal;font-variant:normal;font-weight:normal;font-stretch:normal;font-size:2.29306px;font-family:'Source Sans 3';-inkscape-font-specification:'Source Sans 3, ';stroke-width:0.264583"
         id="path863" />
      <path
         d="m 20.379717,139.34386 c 0.272874,0 0.515937,-0.21325 0.515937,-0.58243 0,-0.37377 -0.243063,-0.58703 -0.515937,-0.58703 -0.272874,0 -0.515938,0.21326 -0.515938,0.58703 0,0.36918 0.243064,0.58243 0.515938,0.58243 z m 0,-0.15593 c -0.190324,0 -0.321028,-0.17198 -0.321028,-0.4265 0,-0.25683 0.130704,-0.4311 0.321028,-0.4311 0.192617,0 0.321028,0.17427 0.321028,0.4311 0,0.25452 -0.128411,0.4265 -0.321028,0.4265 z"
         style="font-style:normal;font-variant:normal;font-weight:normal;font-stretch:normal;font-size:2.29306px;font-family:'Source Sans 3';-inkscape-font-specification:'Source Sans 3, ';stroke-width:0.264583"
         id="path865" />
      <path
         d="m 21.572034,139.34386 c 0.130704,0 0.249943,-0.0734 0.337079,-0.15822 h 0.0069 l 0.01605,0.13071 h 0.155928 v -1.63266 h -0.190324 v 0.4288 l 0.0092,0.19032 c -0.0986,-0.0803 -0.183444,-0.12841 -0.311855,-0.12841 -0.254529,0 -0.483835,0.22472 -0.483835,0.58703 0,0.37147 0.181151,0.58243 0.460904,0.58243 z m 0.04128,-0.15822 c -0.194909,0 -0.307269,-0.16051 -0.307269,-0.42651 0,-0.25453 0.142169,-0.42651 0.321028,-0.42651 0.09172,0 0.176565,0.0321 0.27058,0.11695 v 0.58244 c -0.09172,0.10318 -0.181151,0.15363 -0.284339,0.15363 z"
         style="font-style:normal;font-variant:normal;font-weight:normal;font-stretch:normal;font-size:2.29306px;font-family:'Source Sans 3';-inkscape-font-specification:'Source Sans 3, ';stroke-width:0.264583"
         id="path867" />
      <path
         d="m 22.78893,139.34386 c 0.153635,0 0.263702,-0.0803 0.366889,-0.20179 h 0.0069 l 0.01605,0.17428 h 0.155927 v -1.11443 h -0.18803 v 0.7911 c -0.105481,0.13071 -0.185738,0.18803 -0.30039,0.18803 -0.146756,0 -0.208669,-0.0894 -0.208669,-0.29809 v -0.68104 h -0.190323 v 0.70626 c 0,0.28434 0.10548,0.43568 0.341665,0.43568 z"
         style="font-style:normal;font-variant:normal;font-weight:normal;font-stretch:normal;font-size:2.29306px;font-family:'Source Sans 3';-inkscape-font-specification:'Source Sans 3, ';stroke-width:0.264583"
         id="path869" />
      <path
         d="m 24.153119,139.34386 c 0.132998,0 0.259116,-0.0505 0.36001,-0.14217 l -0.08255,-0.11924 c -0.0665,0.0596 -0.158221,0.10548 -0.261408,0.10548 -0.204082,0 -0.343958,-0.17198 -0.343958,-0.4265 0,-0.25683 0.146755,-0.4311 0.348544,-0.4311 0.09172,0 0.162807,0.0367 0.224719,0.094 l 0.09402,-0.11924 c -0.07796,-0.0734 -0.178859,-0.13071 -0.325614,-0.13071 -0.286632,0 -0.536575,0.21326 -0.536575,0.58703 0,0.36918 0.227012,0.58243 0.522816,0.58243 z"
         style="font-style:normal;font-variant:normal;font-weight:normal;font-stretch:normal;font-size:2.29306px;font-family:'Source Sans 3';-inkscape-font-specification:'Source Sans 3, ';stroke-width:0.264583"
         id="path871" />
      <path
         d="m 24.756372,139.31635 h 0.18803 v -1.11443 h -0.18803 z m 0.09402,-1.34374 c 0.07338,0 0.126118,-0.0481 0.126118,-0.12382 0,-0.0734 -0.05274,-0.12383 -0.126118,-0.12383 -0.07338,0 -0.126118,0.0504 -0.126118,0.12383 0,0.0757 0.05274,0.12382 0.126118,0.12382 z"
         style="font-style:normal;font-variant:normal;font-weight:normal;font-stretch:normal;font-size:2.29306px;font-family:'Source Sans 3';-inkscape-font-specification:'Source Sans 3, ';stroke-width:0.264583"
         id="path873" />
      <path
         d="m 25.813685,139.34386 c 0.254529,0 0.481542,-0.22242 0.481542,-0.60307 0,-0.34396 -0.153635,-0.56639 -0.44256,-0.56639 -0.123825,0 -0.24765,0.0665 -0.348544,0.15593 l 0.0046,-0.20179 v -0.44485 h -0.188031 v 1.63266 h 0.151342 l 0.01605,-0.11466 h 0.0069 c 0.0986,0.0894 0.215548,0.14217 0.318735,0.14217 z m -0.0321,-0.15822 c -0.07338,0 -0.174272,-0.0321 -0.272873,-0.11694 v -0.58473 c 0.10548,-0.0986 0.204082,-0.15135 0.298097,-0.15135 0.210961,0 0.293511,0.1651 0.293511,0.41046 0,0.27517 -0.13529,0.44256 -0.318735,0.44256 z"
         style="font-style:normal;font-variant:normal;font-weight:normal;font-stretch:normal;font-size:2.29306px;font-family:'Source Sans 3';-inkscape-font-specification:'Source Sans 3, ';stroke-width:0.264583"
         id="path875" />
      <path
         d="m 26.588129,139.31635 h 0.188031 v -1.11443 h -0.188031 z m 0.09402,-1.34374 c 0.07338,0 0.126118,-0.0481 0.126118,-0.12382 0,-0.0734 -0.05274,-0.12383 -0.126118,-0.12383 -0.07338,0 -0.126118,0.0504 -0.126118,0.12383 0,0.0757 0.05274,0.12382 0.126118,0.12382 z"
         style="font-style:normal;font-variant:normal;font-weight:normal;font-stretch:normal;font-size:2.29306px;font-family:'Source Sans 3';-inkscape-font-specification:'Source Sans 3, ';stroke-width:0.264583"
         id="path877" />
      <path
         d="m 27.351931,139.34386 c 0.04586,0 0.08255,-0.007 0.107774,-0.0206 l -0.02522,-0.13987 c -0.01834,0.005 -0.02752,0.005 -0.03898,0.005 -0.02981,0 -0.05503,-0.0206 -0.05503,-0.0825 v -1.42169 h -0.18803 v 1.40794 c 0,0.1628 0.05733,0.25223 0.199495,0.25223 z"
         style="font-style:normal;font-variant:normal;font-weight:normal;font-stretch:normal;font-size:2.29306px;font-family:'Source Sans 3';-inkscape-font-specification:'Source Sans 3, ';stroke-width:0.264583"
         id="path879" />
      <path
         d="m 27.739135,139.31635 h 0.188031 v -1.11443 h -0.188031 z m 0.09401,-1.34374 c 0.07338,0 0.126118,-0.0481 0.126118,-0.12382 0,-0.0734 -0.05274,-0.12383 -0.126118,-0.12383 -0.07338,0 -0.126118,0.0504 -0.126118,0.12383 0,0.0757 0.05274,0.12382 0.126118,0.12382 z"
         style="font-style:normal;font-variant:normal;font-weight:normal;font-stretch:normal;font-size:2.29306px;font-family:'Source Sans 3';-inkscape-font-specification:'Source Sans 3, ';stroke-width:0.264583"
         id="path881" />
      <path
         d="m 28.65428,139.34386 c 0.07567,0 0.149048,-0.0206 0.208668,-0.0481 l -0.03898,-0.133 c -0.04357,0.0206 -0.08714,0.0275 -0.126118,0.0275 -0.128411,0 -0.171979,-0.078 -0.171979,-0.21555 v -0.61913 h 0.30039 v -0.15363 h -0.30039 v -0.35772 h -0.158221 l -0.02293,0.35772 -0.174272,0.0115 v 0.14216 h 0.1651 v 0.61684 c 0,0.22013 0.08026,0.37147 0.318735,0.37147 z"
         style="font-style:normal;font-variant:normal;font-weight:normal;font-stretch:normal;font-size:2.29306px;font-family:'Source Sans 3';-inkscape-font-specification:'Source Sans 3, ';stroke-width:0.264583"
         id="path883" />
      <path
         d="m 29.096589,139.79559 c 0.224719,0 0.339372,-0.16739 0.417336,-0.38752 l 0.419629,-1.20615 H 29.75011 l -0.199496,0.61683 c -0.02981,0.0986 -0.06191,0.21326 -0.09401,0.31415 h -0.0092 c -0.03439,-0.10319 -0.07338,-0.21784 -0.107773,-0.31415 l -0.227013,-0.61683 h -0.194909 l 0.447145,1.11672 -0.02522,0.0826 c -0.04586,0.13758 -0.126118,0.23848 -0.252236,0.23848 -0.02522,0 -0.05274,-0.005 -0.08026,-0.0138 l -0.04127,0.14675 c 0.03669,0.0138 0.08026,0.0229 0.130704,0.0229 z"
         style="font-style:normal;font-variant:normal;font-weight:normal;font-stretch:normal;font-size:2.29306px;font-family:'Source Sans 3';-inkscape-font-specification:'Source Sans 3, ';stroke-width:0.264583"
         id="path885" />
      <path
         d="m 30.623799,139.31635 h 0.181152 v -0.78652 c 0,-0.16052 -0.01147,-0.32103 -0.02522,-0.47237 h 0.0092 c 0.04815,0.11006 0.105481,0.22242 0.162807,0.32332 l 0.534282,0.93557 h 0.208668 v -1.50425 h -0.183444 v 0.78193 c 0,0.15593 0.01376,0.32103 0.02522,0.47696 h -0.0092 c -0.05045,-0.11007 -0.103187,-0.22243 -0.160514,-0.32332 l -0.534282,-0.93557 h -0.208668 z"
         style="font-style:normal;font-variant:normal;font-weight:normal;font-stretch:normal;font-size:2.29306px;font-family:'Source Sans 3';-inkscape-font-specification:'Source Sans 3, ';stroke-width:0.264583"
         id="path887" />
      <path
         d="m 32.509803,138.32804 c 0.171979,0 0.27058,0.11694 0.27058,0.33249 H 32.20024 c 0.02981,-0.23848 0.171979,-0.33249 0.309563,-0.33249 z m 0.02981,1.01582 c 0.151342,0 0.270581,-0.0481 0.369182,-0.11465 l -0.06879,-0.12383 c -0.07796,0.0527 -0.17198,0.0849 -0.27746,0.0849 -0.188031,0 -0.348545,-0.13071 -0.366889,-0.38065 h 0.745243 c 0.0069,-0.0367 0.0092,-0.0734 0.0092,-0.11236 0,-0.31644 -0.155927,-0.52282 -0.442559,-0.52282 -0.256823,0 -0.504473,0.22243 -0.504473,0.58473 0,0.36918 0.236185,0.58473 0.536575,0.58473 z"
         style="font-style:normal;font-variant:normal;font-weight:normal;font-stretch:normal;font-size:2.29306px;font-family:'Source Sans 3';-inkscape-font-specification:'Source Sans 3, ';stroke-width:0.264583"
         id="path889" />
      <path
         d="m 33.553895,139.34386 c 0.07567,0 0.149049,-0.0206 0.208668,-0.0481 l -0.03898,-0.133 c -0.04357,0.0206 -0.08714,0.0275 -0.126118,0.0275 -0.128411,0 -0.171979,-0.078 -0.171979,-0.21555 v -0.61913 h 0.30039 v -0.15363 h -0.30039 v -0.35772 h -0.158221 l -0.02293,0.35772 -0.174273,0.0115 v 0.14216 h 0.1651 v 0.61684 c 0,0.22013 0.08026,0.37147 0.318735,0.37147 z"
         style="font-style:normal;font-variant:normal;font-weight:normal;font-stretch:normal;font-size:2.29306px;font-family:'Source Sans 3';-inkscape-font-specification:'Source Sans 3, ';stroke-width:0.264583"
         id="path891" />
      <path
         d="m 34.154424,139.31635 h 0.233892 l 0.149048,-0.5962 c 0.02752,-0.10089 0.05045,-0.1995 0.07109,-0.3302 h 0.0092 c 0.02522,0.1307 0.04357,0.22701 0.07109,0.3302 l 0.149049,0.5962 h 0.245357 l 0.30039,-1.11443 h -0.183445 l -0.162806,0.64435 c -0.02293,0.10089 -0.04357,0.1972 -0.0665,0.31644 h -0.0092 c -0.02293,-0.11924 -0.04586,-0.21555 -0.07338,-0.31644 l -0.167393,-0.64435 h -0.206375 l -0.1651,0.64435 c -0.02522,0.10089 -0.04815,0.1972 -0.07108,0.31644 h -0.0092 c -0.01835,-0.11924 -0.04128,-0.21555 -0.06421,-0.31644 l -0.162807,-0.64435 h -0.197202 z"
         style="font-style:normal;font-variant:normal;font-weight:normal;font-stretch:normal;font-size:2.29306px;font-family:'Source Sans 3';-inkscape-font-specification:'Source Sans 3, ';stroke-width:0.264583"
         id="path893" />
      <path
         d="m 36.050424,139.34386 c 0.272873,0 0.515937,-0.21325 0.515937,-0.58243 0,-0.37377 -0.243064,-0.58703 -0.515937,-0.58703 -0.272874,0 -0.515938,0.21326 -0.515938,0.58703 0,0.36918 0.243064,0.58243 0.515938,0.58243 z m 0,-0.15593 c -0.190324,0 -0.321028,-0.17198 -0.321028,-0.4265 0,-0.25683 0.130704,-0.4311 0.321028,-0.4311 0.192616,0 0.321027,0.17427 0.321027,0.4311 0,0.25452 -0.128411,0.4265 -0.321027,0.4265 z"
         style="font-style:normal;font-variant:normal;font-weight:normal;font-stretch:normal;font-size:2.29306px;font-family:'Source Sans 3';-inkscape-font-specification:'Source Sans 3, ';stroke-width:0.264583"
         id="path895" />
      <path
         d="m 36.862092,139.31635 h 0.188031 v -0.71544 c 0.07567,-0.18803 0.18803,-0.25682 0.282046,-0.25682 0.04586,0 0.06879,0.005 0.103187,0.0138 l 0.04127,-0.16052 c -0.03669,-0.0161 -0.07108,-0.0229 -0.119239,-0.0229 -0.126118,0 -0.240771,0.0894 -0.316441,0.22931 h -0.0069 l -0.01605,-0.20179 h -0.155928 z"
         style="font-style:normal;font-variant:normal;font-weight:normal;font-stretch:normal;font-size:2.29306px;font-family:'Source Sans 3';-inkscape-font-specification:'Source Sans 3, ';stroke-width:0.264583"
         id="path897" />
      <path
         d="m 37.659288,139.31635 h 0.18803 v -0.29352 l 0.206375,-0.24306 0.325614,0.53658 h 0.206375 l -0.421922,-0.66499 0.371475,-0.44944 h -0.210961 l -0.47237,0.58473 h -0.0046 v -1.10296 h -0.18803 z"
         style="font-style:normal;font-variant:normal;font-weight:normal;font-stretch:normal;font-size:2.29306px;font-family:'Source Sans 3';-inkscape-font-specification:'Source Sans 3, ';stroke-width:0.264583"
         id="path899" />
    </g>
    <g
       aria-label="German"
       id="text47"
       style="font-style:normal;font-variant:normal;font-weight:normal;font-stretch:normal;font-size:2.29306px;line-height:1.2;font-family:'Source Sans 3';-inkscape-font-specification:'Source Sans 3, ';stroke-width:0.264583">
      <path
         d="m 16.091096,136.89498 c 0.201789,0 0.366889,-0.0734 0.463198,-0.17427 v -0.63289 h -0.493008 v 0.15822 h 0.318735 v 0.39212 c -0.05962,0.055 -0.162807,0.0894 -0.270581,0.0894 -0.321028,0 -0.499887,-0.23848 -0.499887,-0.61684 0,-0.37377 0.19491,-0.60766 0.497594,-0.60766 0.151342,0 0.247651,0.0573 0.323322,0.13759 l 0.10548,-0.11924 c -0.08714,-0.094 -0.224719,-0.18574 -0.433388,-0.18574 -0.398992,0 -0.690211,0.2958 -0.690211,0.77964 0,0.49071 0.282046,0.77964 0.678746,0.77964 z"
         style="font-style:normal;font-variant:normal;font-weight:normal;font-stretch:normal;font-size:2.29306px;font-family:'Source Sans 3';-inkscape-font-specification:'Source Sans 3, ';stroke-width:0.264583"
         id="path902" />
      <path
         d="m 17.318313,135.87915 c 0.171979,0 0.270581,0.11695 0.270581,0.3325 H 17.00875 c 0.02981,-0.23848 0.171979,-0.3325 0.309563,-0.3325 z m 0.02981,1.01583 c 0.151342,0 0.270581,-0.0482 0.369182,-0.11465 l -0.06879,-0.12383 c -0.07796,0.0527 -0.17198,0.0848 -0.277461,0.0848 -0.188031,0 -0.348545,-0.1307 -0.366889,-0.38064 h 0.745244 c 0.0069,-0.0367 0.0092,-0.0734 0.0092,-0.11236 0,-0.31645 -0.155928,-0.52282 -0.44256,-0.52282 -0.256823,0 -0.504473,0.22243 -0.504473,0.58473 0,0.36918 0.236185,0.58473 0.536576,0.58473 z"
         style="font-style:normal;font-variant:normal;font-weight:normal;font-stretch:normal;font-size:2.29306px;font-family:'Source Sans 3';-inkscape-font-specification:'Source Sans 3, ';stroke-width:0.264583"
         id="path904" />
      <path
         d="m 18.033962,136.86746 h 0.188031 v -0.71543 c 0.07567,-0.18803 0.188031,-0.25683 0.282047,-0.25683 0.04586,0 0.06879,0.005 0.103187,0.0138 l 0.04128,-0.16051 c -0.03669,-0.016 -0.07109,-0.0229 -0.11924,-0.0229 -0.126118,0 -0.240771,0.0894 -0.316442,0.2293 h -0.0069 l -0.01605,-0.20179 h -0.155929 z"
         style="font-style:normal;font-variant:normal;font-weight:normal;font-stretch:normal;font-size:2.29306px;font-family:'Source Sans 3';-inkscape-font-specification:'Source Sans 3, ';stroke-width:0.264583"
         id="path906" />
      <path
         d="m 18.831159,136.86746 h 0.188031 v -0.80715 c 0.103188,-0.11466 0.197203,-0.17198 0.279754,-0.17198 0.142169,0 0.208668,0.0894 0.208668,0.29809 v 0.68104 h 0.188031 v -0.80715 c 0.103188,-0.11466 0.192617,-0.17198 0.279753,-0.17198 0.139877,0 0.206376,0.0894 0.206376,0.29809 v 0.68104 h 0.188031 v -0.70626 c 0,-0.28434 -0.110067,-0.43568 -0.339373,-0.43568 -0.135291,0 -0.249944,0.0871 -0.36689,0.21325 -0.04586,-0.13299 -0.137583,-0.21325 -0.30727,-0.21325 -0.132997,0 -0.249943,0.0825 -0.346252,0.18803 h -0.0069 l -0.01605,-0.16052 h -0.155928 z"
         style="font-style:normal;font-variant:normal;font-weight:normal;font-stretch:normal;font-size:2.29306px;font-family:'Source Sans 3';-inkscape-font-specification:'Source Sans 3, ';stroke-width:0.264583"
         id="path908" />
      <path
         d="m 20.986922,136.89498 c 0.139877,0 0.259116,-0.0711 0.369183,-0.16052 h 0.0069 l 0.01605,0.133 h 0.155928 v -0.68333 c 0,-0.27746 -0.116946,-0.45861 -0.387527,-0.45861 -0.178858,0 -0.334786,0.0757 -0.437974,0.14446 l 0.07338,0.12841 c 0.08714,-0.055 0.204082,-0.11465 0.332493,-0.11465 0.181152,0 0.229307,0.13529 0.2316,0.27517 -0.476957,0.0527 -0.687918,0.16968 -0.687918,0.41963 0,0.20179 0.142169,0.31644 0.327907,0.31644 z m 0.05274,-0.15593 c -0.107774,0 -0.194911,-0.0481 -0.194911,-0.17198 0,-0.14446 0.126119,-0.2293 0.502181,-0.27287 v 0.30039 c -0.107774,0.0963 -0.199497,0.14446 -0.30727,0.14446 z"
         style="font-style:normal;font-variant:normal;font-weight:normal;font-stretch:normal;font-size:2.29306px;font-family:'Source Sans 3';-inkscape-font-specification:'Source Sans 3, ';stroke-width:0.264583"
         id="path910" />
      <path
         d="m 21.885587,136.86746 h 0.188031 v -0.80715 c 0.11236,-0.11236 0.190324,-0.17198 0.304977,-0.17198 0.146756,0 0.210961,0.0894 0.210961,0.29809 v 0.68104 h 0.188031 v -0.70626 c 0,-0.28434 -0.10548,-0.43568 -0.339373,-0.43568 -0.153635,0 -0.268288,0.0825 -0.373768,0.18803 h -0.0069 l -0.01605,-0.16052 h -0.155928 z"
         style="font-style:normal;font-variant:normal;font-weight:normal;font-stretch:normal;font-size:2.29306px;font-family:'Source Sans 3';-inkscape-font-specification:'Source Sans 3, ';stroke-width:0.264583"
         id="path912" />
    </g>
  </g>
</svg>
