<?xml version="1.0" encoding="UTF-8" standalone="no"?>
<svg
   xmlns:dc="http://purl.org/dc/elements/1.1/"
   xmlns:cc="http://creativecommons.org/ns#"
   xmlns:rdf="http://www.w3.org/1999/02/22-rdf-syntax-ns#"
   xmlns:svg="http://www.w3.org/2000/svg"
   xmlns="http://www.w3.org/2000/svg"
   id="svg1891"
   version="1.1"
   viewBox="0 0 59.531249 19.843751"
   height="75"
   width="225">
  <defs
     id="defs1885" />
  <metadata
     id="metadata1888">
    <rdf:RDF>
      <cc:Work
         rdf:about="">
        <dc:format>image/svg+xml</dc:format>
        <dc:type
           rdf:resource="http://purl.org/dc/dcmitype/StillImage" />
        <dc:title></dc:title>
      </cc:Work>
    </rdf:RDF>
  </metadata>
  <g
     transform="translate(-2.5118651,-118.15366)"
     id="layer1">
    <g
       id="g1105"
       transform="matrix(0.26097325,0,0,0.26097325,25.182688,94.849133)">
      <path
         id="path1085"
         style="opacity:1;fill:#000000;stroke:none;stroke-width:8.00126;stroke-linecap:round;stroke-miterlimit:4;stroke-dasharray:none"
         d="m 101.89844,382.45508 a 98.749992,98.749992 0 0 0 -11.587893,0.78125 c -5.278064,3.1837 -11.987464,8.06131 -18.646485,15.23828 -14.240972,15.34862 -28.35574,41.2824 -28.414062,82.79492 -0.05833,41.51622 14.05242,67.45294 28.324219,82.80274 6.536608,7.03035 13.130203,11.85546 18.375,15.04296 a 98.749992,98.749992 0 0 0 11.996091,0.83008 l 0.58985,-1.75781 c 0,0 -12.942375,-4.27892 -26.199222,-18.53711 -13.256852,-14.25819 -26.64611,-38.32151 -26.589844,-78.37305 0.05628,-40.05528 13.447354,-64.12142 26.677734,-78.38086 13.23038,-14.25943 26.111332,-18.54296 26.111332,-18.54296 z"
         transform="scale(0.26458333)" />
      <path
         id="path1087"
         style="opacity:1;fill:#000000;stroke:none;stroke-width:8.00126;stroke-linecap:round;stroke-miterlimit:4;stroke-dasharray:none"
         d="m 102.75,382.44922 a 98.749992,98.749992 0 0 0 -1.64844,0.0137 l -0.63476,1.89063 c 0,0 12.94236,4.28473 26.19922,18.54296 13.25685,14.25823 26.6383,38.32147 26.58203,78.37305 -0.0563,40.05525 -13.43955,64.12146 -26.66993,78.38086 -13.23037,14.2594 -26.11132,18.54297 -26.11132,18.54297 l 0.58593,1.74219 a 98.749992,98.749992 0 0 0 1.69727,0.0137 98.749992,98.749992 0 0 0 9.66211,-0.47461 c 5.31861,-3.17666 12.14919,-8.09867 18.92578,-15.40234 14.24098,-15.34863 28.35574,-41.28245 28.41406,-82.79493 0.0583,-41.51622 -14.06023,-67.4529 -28.33203,-82.80273 -6.90894,-7.43084 -13.88339,-12.40302 -19.25586,-15.57422 A 98.749992,98.749992 0 0 0 102.75,382.44922 Z"
         transform="scale(0.26458333)" />
      <circle
         r="26.127602"
         cy="127.31726"
         cx="27.185936"
         id="circle1089"
         style="fill:none;stroke:#000000;stroke-width:2.11667;stroke-linecap:round;stroke-miterlimit:4;stroke-dasharray:none" />
      <path
         style="fill:none;stroke:#000000;stroke-width:1.32292;stroke-linecap:butt;stroke-linejoin:miter;stroke-miterlimit:4;stroke-dasharray:none;stroke-opacity:1"
         d="M 0.39687598,127.33656 H 53.313541"
         id="path1091" />
      <path
         id="path1093"
         style="color:#000000;font-style:normal;font-variant:normal;font-weight:normal;font-stretch:normal;font-size:medium;line-height:normal;font-family:sans-serif;font-variant-ligatures:normal;font-variant-position:normal;font-variant-caps:normal;font-variant-numeric:normal;font-variant-alternates:normal;font-variant-east-asian:normal;font-feature-settings:normal;font-variation-settings:normal;text-indent:0;text-align:start;text-decoration:none;text-decoration-line:none;text-decoration-style:solid;text-decoration-color:#000000;letter-spacing:normal;word-spacing:normal;text-transform:none;writing-mode:lr-tb;direction:ltr;text-orientation:mixed;dominant-baseline:auto;baseline-shift:baseline;text-anchor:start;white-space:normal;shape-padding:0;shape-margin:0;inline-size:0;clip-rule:nonzero;display:inline;overflow:visible;visibility:visible;opacity:1;isolation:auto;mix-blend-mode:normal;color-interpolation:sRGB;color-interpolation-filters:linearRGB;solid-color:#000000;solid-opacity:1;vector-effect:none;fill:#000000;fill-opacity:1;fill-rule:nonzero;stroke:none;stroke-width:5.00001;stroke-linecap:butt;stroke-linejoin:miter;stroke-miterlimit:4;stroke-dasharray:none;stroke-dashoffset:0;stroke-opacity:1;color-rendering:auto;image-rendering:auto;shape-rendering:auto;text-rendering:auto;enable-background:accumulate;stop-color:#000000;stop-opacity:1"
         d="m 101.50195,422.45117 c -28.2974,0 -61.332358,2.86136 -81.546872,4.92774 a 98.749992,98.749992 0 0 0 -3.255859,5.375 c 19.521799,-2.05961 54.875764,-5.30469 84.802731,-5.30469 31.29364,0 68.64056,3.55633 87.45508,5.58398 a 98.749992,98.749992 0 0 0 -3.22851,-5.36914 c -19.81872,-2.07524 -54.53287,-5.21289 -84.22657,-5.21289 z"
         transform="scale(0.26458333)" />
      <path
         id="path1095"
         style="color:#000000;font-style:normal;font-variant:normal;font-weight:normal;font-stretch:normal;font-size:medium;line-height:normal;font-family:sans-serif;font-variant-ligatures:normal;font-variant-position:normal;font-variant-caps:normal;font-variant-numeric:normal;font-variant-alternates:normal;font-variant-east-asian:normal;font-feature-settings:normal;font-variation-settings:normal;text-indent:0;text-align:start;text-decoration:none;text-decoration-line:none;text-decoration-style:solid;text-decoration-color:#000000;letter-spacing:normal;word-spacing:normal;text-transform:none;writing-mode:lr-tb;direction:ltr;text-orientation:mixed;dominant-baseline:auto;baseline-shift:baseline;text-anchor:start;white-space:normal;shape-padding:0;shape-margin:0;inline-size:0;clip-rule:nonzero;display:inline;overflow:visible;visibility:visible;opacity:1;isolation:auto;mix-blend-mode:normal;color-interpolation:sRGB;color-interpolation-filters:linearRGB;solid-color:#000000;solid-opacity:1;vector-effect:none;fill:#000000;fill-opacity:1;fill-rule:nonzero;stroke:none;stroke-width:5.00001;stroke-linecap:butt;stroke-linejoin:miter;stroke-miterlimit:4;stroke-dasharray:none;stroke-dashoffset:0;stroke-opacity:1;color-rendering:auto;image-rendering:auto;shape-rendering:auto;text-rendering:auto;enable-background:accumulate;stop-color:#000000;stop-opacity:1"
         d="m 189.16602,528.98828 c -18.50729,1.26272 -55.25539,3.46094 -87.66407,3.46094 -30.996399,0 -65.865368,-2.00775 -85.072262,-3.28906 a 98.749992,98.749992 0 0 0 3.117187,5.22461 c 19.855139,1.28094 52.648283,3.06054 81.955075,3.06054 30.73762,0 65.12606,-1.95063 84.5625,-3.23633 a 98.749992,98.749992 0 0 0 3.10157,-5.2207 z"
         transform="scale(0.26458333)" />
      <path
         style="fill:none;stroke:#000000;stroke-width:1.85208;stroke-linecap:butt;stroke-linejoin:miter;stroke-miterlimit:4;stroke-dasharray:none;stroke-opacity:1"
         d="m 26.855209,100.87823 v 26.45833 26.45833"
         id="path1097" />
      <ellipse
         ry="5.6885424"
         rx="5.68854"
         cy="113.75737"
         cx="26.855209"
         id="ellipse1099"
         style="fill:#d61d7e;fill-opacity:1;stroke:#ffffff;stroke-width:1.32293;stroke-linecap:round;stroke-miterlimit:4;stroke-dasharray:none" />
      <circle
         style="fill:#d61d7e;fill-opacity:1;stroke:#ffffff;stroke-width:1.32292;stroke-linecap:round;stroke-miterlimit:4;stroke-dasharray:none"
         id="circle1101"
         cx="12.367734"
         cy="127.31726"
         r="4.6302085" />
      <circle
         r="5.1593752"
         cy="140.42737"
         cx="39.051998"
         id="circle1103"
         style="fill:#d61d7e;fill-opacity:1;stroke:#ffffff;stroke-width:1.32292;stroke-linecap:round;stroke-miterlimit:4;stroke-dasharray:none" />
    </g>
    <path
       id="path1846"
       style="font-style:normal;font-variant:normal;font-weight:bold;font-stretch:normal;font-size:50.8px;line-height:1.25;font-family:Inter;-inkscape-font-specification:'Inter Bold';text-align:center;text-anchor:middle;opacity:0.9;fill:#000000;fill-opacity:1;stroke:none;stroke-width:0.0691577;stroke-miterlimit:4;stroke-dasharray:none"
       d="m 9.7205756,132.89642 c 2.9377284,0 4.7173144,-1.81725 4.7173144,-4.83031 0,-3.00364 -1.779586,-4.81146 -4.6890669,-4.81146 H 6.3026418 v 9.64177 z m -1.379414,-1.74663 v -6.14852 h 1.2993798 c 1.8078326,0 2.7635366,0.92275 2.7635366,3.06484 0,2.15152 -0.955704,3.08368 -2.7682443,3.08368 z" />
    <path
       id="path1848"
       style="font-style:normal;font-variant:normal;font-weight:bold;font-stretch:normal;font-size:50.8px;line-height:1.25;font-family:Inter;-inkscape-font-specification:'Inter Bold';text-align:center;text-anchor:middle;opacity:0.9;fill:#000000;fill-opacity:1;stroke:none;stroke-width:0.0691577;stroke-miterlimit:4;stroke-dasharray:none"
       d="m 15.935001,132.89642 h 6.581877 v -1.68072 h -4.543357 v -2.30216 h 4.124119 v -1.68072 h -4.124119 v -2.29746 h 4.524526 v -1.68071 h -6.563046 z" />
    <path
       id="path1850"
       style="font-style:normal;font-variant:normal;font-weight:bold;font-stretch:normal;font-size:50.8px;line-height:1.25;font-family:Inter;-inkscape-font-specification:'Inter Bold';text-align:center;text-anchor:middle;fill:#000000;fill-opacity:1;stroke:none;stroke-width:0.0690491"
       d="m 42.039911,132.89642 h 2.03852 v -3.41794 h 1.487696 l 1.826664,3.41794 h 2.250375 l -2.047936,-3.74749 c 1.096941,-0.47079 1.70426,-1.42649 1.70426,-2.7447 0,-1.91612 -1.266425,-3.14958 -3.455596,-3.14958 h -3.803983 z m 2.03852,-5.05628 v -2.9189 h 1.374707 c 1.176974,0 1.746629,0.52258 1.746629,1.48299 0,0.9557 -0.569655,1.43591 -1.737213,1.43591 z" />
    <path
       id="path1852"
       style="font-style:normal;font-variant:normal;font-weight:bold;font-stretch:normal;font-size:50.8px;line-height:1.25;font-family:Inter;-inkscape-font-specification:'Inter Bold';text-align:center;text-anchor:middle;fill:#000000;fill-opacity:1;stroke:none;stroke-width:0.0690491"
       d="m 59.219031,123.25465 h -2.029103 v 6.06377 h -0.08474 l -4.161782,-6.06377 h -1.789003 v 9.64177 h 2.038519 v -6.06848 h 0.07062 l 4.194738,6.06848 h 1.760752 z" />
  </g>
</svg>
